%TF.GenerationSoftware,KiCad,Pcbnew,8.0.3*%
%TF.CreationDate,2024-07-24T15:17:42-06:00*%
%TF.ProjectId,SparkFun_IoT_Node_LoRaWAN,53706172-6b46-4756-9e5f-496f545f4e6f,v02*%
%TF.SameCoordinates,Original*%
%TF.FileFunction,Soldermask,Bot*%
%TF.FilePolarity,Negative*%
%FSLAX46Y46*%
G04 Gerber Fmt 4.6, Leading zero omitted, Abs format (unit mm)*
G04 Created by KiCad (PCBNEW 8.0.3) date 2024-07-24 15:17:42*
%MOMM*%
%LPD*%
G01*
G04 APERTURE LIST*
G04 Aperture macros list*
%AMRoundRect*
0 Rectangle with rounded corners*
0 $1 Rounding radius*
0 $2 $3 $4 $5 $6 $7 $8 $9 X,Y pos of 4 corners*
0 Add a 4 corners polygon primitive as box body*
4,1,4,$2,$3,$4,$5,$6,$7,$8,$9,$2,$3,0*
0 Add four circle primitives for the rounded corners*
1,1,$1+$1,$2,$3*
1,1,$1+$1,$4,$5*
1,1,$1+$1,$6,$7*
1,1,$1+$1,$8,$9*
0 Add four rect primitives between the rounded corners*
20,1,$1+$1,$2,$3,$4,$5,0*
20,1,$1+$1,$4,$5,$6,$7,0*
20,1,$1+$1,$6,$7,$8,$9,0*
20,1,$1+$1,$8,$9,$2,$3,0*%
G04 Aperture macros list end*
%ADD10C,0.000000*%
%ADD11C,3.302000*%
%ADD12C,2.082800*%
%ADD13C,1.000000*%
%ADD14RoundRect,0.101600X0.330200X0.635000X-0.330200X0.635000X-0.330200X-0.635000X0.330200X-0.635000X0*%
%ADD15RoundRect,0.609600X0.000010X0.000010X-0.000010X0.000010X-0.000010X-0.000010X0.000010X-0.000010X0*%
%ADD16RoundRect,0.101600X-0.330200X-0.635000X0.330200X-0.635000X0.330200X0.635000X-0.330200X0.635000X0*%
%ADD17C,0.850000*%
%ADD18RoundRect,0.101600X0.635000X-0.330200X0.635000X0.330200X-0.635000X0.330200X-0.635000X-0.330200X0*%
%ADD19RoundRect,0.101600X-0.317500X-0.635000X0.317500X-0.635000X0.317500X0.635000X-0.317500X0.635000X0*%
%ADD20RoundRect,0.101600X-0.635000X0.330200X-0.635000X-0.330200X0.635000X-0.330200X0.635000X0.330200X0*%
%ADD21C,0.650000*%
%ADD22O,1.000000X1.600000*%
%ADD23O,1.000000X2.100000*%
G04 APERTURE END LIST*
D10*
%TO.C,JP1*%
G36*
X254000Y-37740500D02*
G01*
X-254000Y-37740500D01*
X-254000Y-37259500D01*
X254000Y-37259500D01*
X254000Y-37740500D01*
G37*
%TO.C,JP3*%
G36*
X15254000Y38009500D02*
G01*
X14746000Y38009500D01*
X14746000Y38490500D01*
X15254000Y38490500D01*
X15254000Y38009500D01*
G37*
%TO.C,JP6*%
G36*
X-14746000Y-39740500D02*
G01*
X-15254000Y-39740500D01*
X-15254000Y-39259500D01*
X-14746000Y-39259500D01*
X-14746000Y-39740500D01*
G37*
%TO.C,JP4*%
G36*
X21740500Y-7754000D02*
G01*
X21259500Y-7754000D01*
X21259500Y-7246000D01*
X21740500Y-7246000D01*
X21740500Y-7754000D01*
G37*
%TO.C,JP2*%
G36*
X-16256000Y34836100D02*
G01*
X-16764000Y34836100D01*
X-16764000Y36283900D01*
X-16256000Y36283900D01*
X-16256000Y34836100D01*
G37*
%TO.C,JP7*%
G36*
X-27759500Y3225300D02*
G01*
X-28240500Y3225300D01*
X-28240500Y3733300D01*
X-27759500Y3733300D01*
X-27759500Y3225300D01*
G37*
G36*
X-27736500Y4258000D02*
G01*
X-28217500Y4258000D01*
X-28217500Y4766000D01*
X-27736500Y4766000D01*
X-27736500Y4258000D01*
G37*
%TO.C,JP5*%
G36*
X-14759500Y-15754000D02*
G01*
X-15240500Y-15754000D01*
X-15240500Y-15246000D01*
X-14759500Y-15246000D01*
X-14759500Y-15754000D01*
G37*
%TD*%
D11*
%TO.C,ST2*%
X23500000Y-34000000D03*
%TD*%
%TO.C,ST4*%
X-23500000Y34000000D03*
%TD*%
%TO.C,ST1*%
X-23500000Y-34000000D03*
%TD*%
%TO.C,ST3*%
X23500000Y34000000D03*
%TD*%
D12*
%TO.C,J8*%
X27940000Y11430000D03*
X27940000Y13970000D03*
X27940000Y16510000D03*
X27940000Y19050000D03*
X27940000Y21590000D03*
X27940000Y24130000D03*
X27940000Y26670000D03*
X27940000Y29210000D03*
X27940000Y31750000D03*
X27940000Y34290000D03*
X27940000Y36830000D03*
X27940000Y39370000D03*
%TD*%
%TO.C,J6*%
X-27940000Y39370000D03*
X-27940000Y36830000D03*
X-27940000Y34290000D03*
X-27940000Y31750000D03*
X-27940000Y29210000D03*
X-27940000Y26670000D03*
X-27940000Y24130000D03*
X-27940000Y21590000D03*
X-27940000Y19050000D03*
X-27940000Y16510000D03*
X-27940000Y13970000D03*
X-27940000Y11430000D03*
%TD*%
D13*
%TO.C,FID3*%
X-29000000Y40500000D03*
%TD*%
D14*
%TO.C,JP1*%
X520700Y-37500000D03*
X-520700Y-37500000D03*
%TD*%
D15*
%TO.C,TP2*%
X11000000Y-10000000D03*
%TD*%
D13*
%TO.C,FID2*%
X29000000Y-40500000D03*
%TD*%
D15*
%TO.C,TP1*%
X15000000Y-36500000D03*
%TD*%
D16*
%TO.C,JP3*%
X14479300Y38250000D03*
X15520700Y38250000D03*
%TD*%
%TO.C,JP6*%
X-15520700Y-39500000D03*
X-14479300Y-39500000D03*
%TD*%
D17*
%TO.C,SW1*%
X-12500000Y31500000D03*
X-12500000Y28500000D03*
%TD*%
D18*
%TO.C,JP4*%
X21500000Y-8020700D03*
X21500000Y-6979300D03*
%TD*%
D12*
%TO.C,JP2*%
X-17780000Y35560000D03*
D19*
X-17018000Y35560000D03*
X-16002000Y35560000D03*
D12*
X-15240000Y35560000D03*
%TD*%
D18*
%TO.C,JP7*%
X-28000000Y2958600D03*
X-28000000Y4000000D03*
D20*
X-28000000Y5041400D03*
%TD*%
D18*
%TO.C,JP5*%
X-15000000Y-16020700D03*
X-15000000Y-14979300D03*
%TD*%
D12*
%TO.C,J7*%
X27940000Y-11430000D03*
X27940000Y-13970000D03*
X27940000Y-16510000D03*
X27940000Y-19050000D03*
X27940000Y-21590000D03*
X27940000Y-24130000D03*
X27940000Y-26670000D03*
X27940000Y-29210000D03*
X27940000Y-31750000D03*
X27940000Y-34290000D03*
X27940000Y-36830000D03*
X27940000Y-39370000D03*
%TD*%
%TO.C,J5*%
X-27940000Y-11430000D03*
X-27940000Y-13970000D03*
X-27940000Y-16510000D03*
X-27940000Y-19050000D03*
X-27940000Y-21590000D03*
X-27940000Y-24130000D03*
X-27940000Y-26670000D03*
X-27940000Y-29210000D03*
X-27940000Y-31750000D03*
X-27940000Y-34290000D03*
X-27940000Y-36830000D03*
X-27940000Y-39370000D03*
%TD*%
D21*
%TO.C,J1*%
X-2890000Y-34445000D03*
X2890000Y-34445000D03*
D22*
X-4318000Y-38095000D03*
D23*
X-4318000Y-33915000D03*
X4318000Y-33915000D03*
D22*
X4318000Y-38095000D03*
%TD*%
D21*
%TO.C,J3*%
X17890000Y34445000D03*
X12110000Y34445000D03*
D22*
X19318000Y38095000D03*
D23*
X19318000Y33915000D03*
X10682000Y33915000D03*
D22*
X10682000Y38095000D03*
%TD*%
D12*
%TO.C,J2*%
X2540000Y0D03*
X0Y0D03*
X-2540000Y0D03*
%TD*%
M02*
