M48
; DRILL file {KiCad 8.0.3} date 2024-07-24T15:17:42-0600
; FORMAT={-:-/ absolute / metric / decimal}
; #@! TF.CreationDate,2024-07-24T15:17:42-06:00
; #@! TF.GenerationSoftware,Kicad,Pcbnew,8.0.3
; #@! TF.FileFunction,MixedPlating,1,4
FMAT,2
METRIC
; #@! TA.AperFunction,Plated,PTH,ViaDrill
T1C0.300
; #@! TA.AperFunction,Plated,PTH,ComponentDrill
T2C0.600
; #@! TA.AperFunction,Plated,PTH,ComponentDrill
T3C1.016
; #@! TA.AperFunction,NonPlated,NPTH,ComponentDrill
T4C0.650
; #@! TA.AperFunction,NonPlated,NPTH,ComponentDrill
T5C0.850
; #@! TA.AperFunction,NonPlated,NPTH,ComponentDrill
T6C3.302
%
G90
G05
T1
X-28.75Y-4.5
X-26.5Y6.0
X-26.5Y4.0
X-26.5Y2.0
X-25.5Y-28.0
X-24.5Y6.5
X-24.5Y1.5
X-23.1Y-28.6
X-22.25Y-4.5
X-22.25Y-6.5
X-21.5Y6.3
X-21.5Y1.7
X-21.25Y32.0
X-21.0Y18.5
X-21.0Y5.5
X-21.0Y2.5
X-20.75Y-9.5
X-20.75Y-11.5
X-20.5Y-29.5
X-20.0Y-9.5
X-20.0Y-11.5
X-19.75Y28.5
X-19.5Y19.75
X-19.5Y-30.5
X-19.25Y-9.5
X-19.25Y-11.5
X-19.075Y-16.275
X-19.0Y-15.0
X-18.9Y-14.0
X-18.75Y30.743
X-18.75Y-7.75
X-18.0Y-3.5
X-17.5Y20.25
X-17.5Y-1.0
X-17.5Y-7.9
X-17.5Y-20.25
X-17.25Y-0.25
X-17.25Y-1.75
X-17.25Y-17.25
X-17.0Y26.0
X-16.75Y28.0
X-16.75Y-1.0
X-16.75Y-7.25
X-16.75Y-39.5
X-16.7Y-18.0
X-16.5Y37.25
X-16.5Y32.0
X-16.5Y31.25
X-16.5Y-22.0
X-16.0Y-30.75
X-15.5Y20.75
X-15.1Y-24.2
X-15.0Y0.0
X-15.0Y-3.5
X-15.0Y-14.0
X-15.0Y-18.75
X-15.0Y-30.75
X-14.8Y-12.0
X-14.6Y-10.498
X-14.25Y32.5
X-14.0Y25.0
X-13.75Y31.75
X-13.75Y22.5
X-13.75Y-25.5
X-13.5Y-11.25
X-13.5Y-22.0
X-13.25Y-8.75
X-13.25Y-15.5
X-13.25Y-39.5
X-13.0Y25.75
X-13.0Y-18.5
X-12.9Y-25.5
X-12.75Y-12.25
X-12.5Y-7.9
X-12.0Y25.75
X-12.0Y-17.3
X-12.0Y-18.0
X-11.9Y30.6
X-11.5Y38.25
X-11.5Y-10.5
X-11.25Y30.0
X-11.0Y28.25
X-11.0Y25.0
X-11.0Y21.5
X-11.0Y-21.25
X-11.0Y-22.25
X-10.75Y34.75
X-10.75Y0.5
X-10.5Y-30.5
X-10.0Y38.25
X-10.0Y0.0
X-9.5Y33.75
X-9.5Y-0.75
X-8.5Y38.25
X-8.0Y31.25
X-8.0Y30.25
X-8.0Y29.4
X-8.0Y28.1
X-8.0Y25.75
X-7.75Y23.75
X-7.75Y-9.5
X-7.75Y-11.0
X-7.75Y-12.5
X-7.75Y-14.0
X-7.75Y-15.5
X-6.5Y38.0
X-6.5Y22.0
X-6.25Y-5.5
X-6.25Y-6.25
X-6.25Y-7.25
X-6.0Y-4.75
X-6.0Y-13.25
X-5.507Y-4.0
X-5.25Y36.25
X-5.25Y31.75
X-5.25Y29.75
X-5.0Y30.6
X-5.0Y26.9
X-5.0Y-4.75
X-4.9Y-18.2
X-4.3Y-9.893
X-4.3Y-10.907
X-4.3Y-12.1
X-4.25Y26.25
X-4.25Y23.5
X-4.0Y-17.3
X-3.75Y-16.0
X-3.75Y-28.5
X-3.5Y-2.3
X-3.5Y-35.5
X-3.4Y-5.7
X-3.4Y-14.0
X-3.25Y-32.25
X-3.0Y15.0
X-2.6Y-15.1
X-2.507Y-9.893
X-2.507Y-11.2
X-2.507Y-12.0
X-2.5Y11.2
X-2.4Y-32.4
X-2.0Y-5.7
X-1.75Y-7.493
X-1.4Y-15.1
X-1.25Y-8.75
X-1.25Y-10.0
X-1.25Y-11.25
X-0.9Y-7.493
X-0.75Y20.25
X-0.5Y-2.3
X0.0Y11.25
X0.0Y-8.75
X0.0Y-10.0
X0.0Y-11.25
X0.0Y-29.5
X0.0Y-31.977
X0.5Y-16.4
X1.25Y-8.75
X1.25Y-10.0
X1.25Y-11.25
X1.307Y-5.4
X2.4Y-32.4
X2.4Y-12.592
X2.5Y19.0
X2.5Y11.5
X2.5Y-1.75
X2.5Y-20.2
X2.507Y-8.75
X2.507Y-9.606
X2.507Y-10.293
X2.507Y-11.7
X3.25Y-32.25
X3.5Y-35.5
X3.6Y-18.5
X3.75Y-28.5
X4.0Y13.25
X4.0Y-5.25
X4.281Y-11.612
X4.359Y-9.351
X4.368Y-12.293
X5.0Y30.6
X5.0Y29.5
X5.0Y28.2
X5.0Y20.0
X5.0Y13.25
X5.25Y39.75
X5.25Y36.5
X5.25Y23.75
X6.0Y-8.907
X6.0Y-13.3
X6.5Y22.0
X6.75Y-27.5
X7.0Y-21.0
X7.2Y19.9
X7.25Y0.5
X7.25Y-4.5
X7.5Y16.5
X7.75Y-9.5
X7.8Y-10.5
X8.0Y39.75
X8.0Y36.5
X8.0Y35.6
X8.0Y34.4
X8.0Y33.1
X8.0Y31.9
X8.0Y30.5
X8.0Y29.4
X8.0Y26.9
X8.0Y24.5
X8.0Y20.25
X8.6Y27.5
X8.75Y33.75
X8.75Y-16.25
X8.8Y19.9
X9.25Y-1.25
X9.25Y-4.5
X10.5Y29.0
X10.75Y-5.0
X10.75Y-20.75
X10.75Y-24.5
X11.0Y-6.5
X11.0Y-10.0
X11.5Y35.5
X11.5Y29.75
X11.75Y32.25
X12.0Y2.5
X12.0Y-3.5
X12.6Y32.4
X13.5Y-37.5
X14.25Y-12.5
X14.5Y-9.25
X15.0Y31.977
X15.0Y29.5
X16.0Y5.0
X16.0Y-4.75
X16.5Y23.75
X16.5Y-35.5
X16.5Y-36.5
X16.75Y23.0
X16.75Y-22.25
X17.0Y18.5
X17.25Y37.75
X17.4Y32.4
X17.5Y22.75
X17.5Y17.0
X17.75Y-31.0
X18.0Y18.5
X18.25Y32.25
X18.5Y35.5
X18.5Y29.75
X18.75Y-6.5
X19.0Y-27.25
X19.75Y24.5
X20.0Y-1.6
X20.0Y-9.25
X20.25Y-31.5
X20.5Y5.0
X20.5Y-4.75
X21.5Y-12.25
X21.75Y26.5
X21.75Y18.5
X22.0Y-1.6
X22.5Y17.75
X23.0Y-5.75
X23.0Y-9.5
X23.1Y27.6
X23.25Y-14.75
X23.5Y1.5
X23.5Y-1.25
X24.0Y-20.25
X25.0Y28.25
X25.0Y-9.5
X25.0Y-20.25
X25.75Y-17.75
X28.75Y-9.75
T3
X-27.94Y39.37
X-27.94Y36.83
X-27.94Y34.29
X-27.94Y31.75
X-27.94Y29.21
X-27.94Y26.67
X-27.94Y24.13
X-27.94Y21.59
X-27.94Y19.05
X-27.94Y16.51
X-27.94Y13.97
X-27.94Y11.43
X-27.94Y-11.43
X-27.94Y-13.97
X-27.94Y-16.51
X-27.94Y-19.05
X-27.94Y-21.59
X-27.94Y-24.13
X-27.94Y-26.67
X-27.94Y-29.21
X-27.94Y-31.75
X-27.94Y-34.29
X-27.94Y-36.83
X-27.94Y-39.37
X-17.78Y35.56
X-15.24Y35.56
X-2.54Y0.0
X0.0Y0.0
X2.54Y0.0
X27.94Y39.37
X27.94Y36.83
X27.94Y34.29
X27.94Y31.75
X27.94Y29.21
X27.94Y26.67
X27.94Y24.13
X27.94Y21.59
X27.94Y19.05
X27.94Y16.51
X27.94Y13.97
X27.94Y11.43
X27.94Y-11.43
X27.94Y-13.97
X27.94Y-16.51
X27.94Y-19.05
X27.94Y-21.59
X27.94Y-24.13
X27.94Y-26.67
X27.94Y-29.21
X27.94Y-31.75
X27.94Y-34.29
X27.94Y-36.83
X27.94Y-39.37
T4
X-2.89Y-34.445
X2.89Y-34.445
X12.11Y34.445
X17.89Y34.445
T5
X-12.5Y31.5
X-12.5Y28.5
T6
X-23.5Y34.0
X-23.5Y-34.0
X23.5Y34.0
X23.5Y-34.0
T2
G00X-4.318Y-33.365
M15
G01X-4.318Y-34.465
M16
G05
G00X-4.318Y-37.795
M15
G01X-4.318Y-38.395
M16
G05
G00X4.318Y-33.365
M15
G01X4.318Y-34.465
M16
G05
G00X4.318Y-37.795
M15
G01X4.318Y-38.395
M16
G05
G00X10.682Y37.795
M15
G01X10.682Y38.395
M16
G05
G00X10.682Y33.365
M15
G01X10.682Y34.465
M16
G05
G00X19.318Y37.795
M15
G01X19.318Y38.395
M16
G05
G00X19.318Y33.365
M15
G01X19.318Y34.465
M16
G05
M30
