%TF.GenerationSoftware,KiCad,Pcbnew,8.0.3*%
%TF.CreationDate,2024-07-24T15:17:42-06:00*%
%TF.ProjectId,SparkFun_IoT_Node_LoRaWAN,53706172-6b46-4756-9e5f-496f545f4e6f,v02*%
%TF.SameCoordinates,Original*%
%TF.FileFunction,Paste,Top*%
%TF.FilePolarity,Positive*%
%FSLAX46Y46*%
G04 Gerber Fmt 4.6, Leading zero omitted, Abs format (unit mm)*
G04 Created by KiCad (PCBNEW 8.0.3) date 2024-07-24 15:17:42*
%MOMM*%
%LPD*%
G01*
G04 APERTURE LIST*
G04 Aperture macros list*
%AMRoundRect*
0 Rectangle with rounded corners*
0 $1 Rounding radius*
0 $2 $3 $4 $5 $6 $7 $8 $9 X,Y pos of 4 corners*
0 Add a 4 corners polygon primitive as box body*
4,1,4,$2,$3,$4,$5,$6,$7,$8,$9,$2,$3,0*
0 Add four circle primitives for the rounded corners*
1,1,$1+$1,$2,$3*
1,1,$1+$1,$4,$5*
1,1,$1+$1,$6,$7*
1,1,$1+$1,$8,$9*
0 Add four rect primitives between the rounded corners*
20,1,$1+$1,$2,$3,$4,$5,0*
20,1,$1+$1,$4,$5,$6,$7,0*
20,1,$1+$1,$6,$7,$8,$9,0*
20,1,$1+$1,$8,$9,$2,$3,0*%
%AMFreePoly0*
4,1,14,-0.725000,0.420000,0.305000,0.420000,0.434787,0.399444,0.551870,0.339787,0.644787,0.246870,0.704444,0.129787,0.725000,0.000000,0.704444,-0.129787,0.644787,-0.246870,0.551870,-0.339787,0.434787,-0.399444,0.305000,-0.420000,-0.725000,-0.420000,-0.725000,0.420000,-0.725000,0.420000,$1*%
G04 Aperture macros list end*
%ADD10C,0.000000*%
%ADD11R,0.850000X0.500000*%
%ADD12RoundRect,0.225000X0.225000X0.250000X-0.225000X0.250000X-0.225000X-0.250000X0.225000X-0.250000X0*%
%ADD13RoundRect,0.200000X-0.275000X0.200000X-0.275000X-0.200000X0.275000X-0.200000X0.275000X0.200000X0*%
%ADD14RoundRect,0.225000X0.250000X-0.225000X0.250000X0.225000X-0.250000X0.225000X-0.250000X-0.225000X0*%
%ADD15RoundRect,0.225000X-0.225000X-0.250000X0.225000X-0.250000X0.225000X0.250000X-0.225000X0.250000X0*%
%ADD16R,1.200000X0.550000*%
%ADD17RoundRect,0.200000X-0.200000X-0.275000X0.200000X-0.275000X0.200000X0.275000X-0.200000X0.275000X0*%
%ADD18RoundRect,0.225000X-0.250000X0.225000X-0.250000X-0.225000X0.250000X-0.225000X0.250000X0.225000X0*%
%ADD19RoundRect,0.200000X0.275000X-0.200000X0.275000X0.200000X-0.275000X0.200000X-0.275000X-0.200000X0*%
%ADD20R,0.900000X1.000000*%
%ADD21RoundRect,0.200000X0.200000X0.275000X-0.200000X0.275000X-0.200000X-0.275000X0.200000X-0.275000X0*%
%ADD22R,1.000000X1.200000*%
%ADD23FreePoly0,180.000000*%
%ADD24FreePoly0,90.000000*%
%ADD25FreePoly0,0.000000*%
%ADD26R,0.900000X0.800000*%
%ADD27RoundRect,0.250000X0.850000X-0.375000X0.850000X0.375000X-0.850000X0.375000X-0.850000X-0.375000X0*%
%ADD28R,0.550000X1.200000*%
%ADD29RoundRect,0.050000X0.100000X-0.285000X0.100000X0.285000X-0.100000X0.285000X-0.100000X-0.285000X0*%
%ADD30R,0.600000X1.200000*%
%ADD31R,1.150000X1.000000*%
%ADD32R,1.000000X0.500000*%
%ADD33R,1.200000X0.950000*%
%ADD34R,0.740000X2.380000*%
%ADD35R,0.300000X1.000000*%
%ADD36R,0.600000X1.000000*%
%ADD37O,1.000000X1.600000*%
%ADD38O,1.000000X2.100000*%
%ADD39R,1.350000X0.600000*%
%ADD40R,2.000000X1.200000*%
%ADD41R,4.600000X1.000000*%
%ADD42R,3.400000X1.600000*%
%ADD43R,0.630000X0.830000*%
%ADD44RoundRect,0.218750X0.218750X0.256250X-0.218750X0.256250X-0.218750X-0.256250X0.218750X-0.256250X0*%
%ADD45R,0.700000X0.700000*%
G04 APERTURE END LIST*
D10*
%TO.C,U2*%
G36*
X7900000Y-17900000D02*
G01*
X7100000Y-17900000D01*
X7100000Y-17100000D01*
X7900000Y-17100000D01*
X7900000Y-17900000D01*
G37*
%TO.C,U1*%
G36*
X3750000Y-12900000D02*
G01*
X3100000Y-12900000D01*
X3100000Y-12700000D01*
X3750000Y-12700000D01*
X3750000Y-12900000D01*
G37*
G36*
X3750000Y-12500000D02*
G01*
X3100000Y-12500000D01*
X3100000Y-12300000D01*
X3750000Y-12300000D01*
X3750000Y-12500000D01*
G37*
G36*
X3750000Y-12100000D02*
G01*
X3100000Y-12100000D01*
X3100000Y-11900000D01*
X3750000Y-11900000D01*
X3750000Y-12100000D01*
G37*
G36*
X3750000Y-11700000D02*
G01*
X3100000Y-11700000D01*
X3100000Y-11500000D01*
X3750000Y-11500000D01*
X3750000Y-11700000D01*
G37*
G36*
X3750000Y-11300000D02*
G01*
X3100000Y-11300000D01*
X3100000Y-11100000D01*
X3750000Y-11100000D01*
X3750000Y-11300000D01*
G37*
G36*
X3750000Y-10900000D02*
G01*
X3100000Y-10900000D01*
X3100000Y-10700000D01*
X3750000Y-10700000D01*
X3750000Y-10900000D01*
G37*
G36*
X3750000Y-10500000D02*
G01*
X3100000Y-10500000D01*
X3100000Y-10300000D01*
X3750000Y-10300000D01*
X3750000Y-10500000D01*
G37*
G36*
X3750000Y-10100000D02*
G01*
X3100000Y-10100000D01*
X3100000Y-9900000D01*
X3750000Y-9900000D01*
X3750000Y-10100000D01*
G37*
G36*
X3750000Y-9700000D02*
G01*
X3100000Y-9700000D01*
X3100000Y-9500000D01*
X3750000Y-9500000D01*
X3750000Y-9700000D01*
G37*
G36*
X3750000Y-9300000D02*
G01*
X3100000Y-9300000D01*
X3100000Y-9100000D01*
X3750000Y-9100000D01*
X3750000Y-9300000D01*
G37*
G36*
X3750000Y-8900000D02*
G01*
X3100000Y-8900000D01*
X3100000Y-8700000D01*
X3750000Y-8700000D01*
X3750000Y-8900000D01*
G37*
G36*
X3750000Y-8500000D02*
G01*
X3100000Y-8500000D01*
X3100000Y-8300000D01*
X3750000Y-8300000D01*
X3750000Y-8500000D01*
G37*
G36*
X3750000Y-8100000D02*
G01*
X3100000Y-8100000D01*
X3100000Y-7900000D01*
X3750000Y-7900000D01*
X3750000Y-8100000D01*
G37*
G36*
X3750000Y-7700000D02*
G01*
X3100000Y-7700000D01*
X3100000Y-7500000D01*
X3750000Y-7500000D01*
X3750000Y-7700000D01*
G37*
G36*
X3750000Y-7300000D02*
G01*
X3100000Y-7300000D01*
X3100000Y-7100000D01*
X3750000Y-7100000D01*
X3750000Y-7300000D01*
G37*
G36*
X2900000Y-13750000D02*
G01*
X2700000Y-13750000D01*
X2700000Y-13100000D01*
X2900000Y-13100000D01*
X2900000Y-13750000D01*
G37*
G36*
X2900000Y-6900000D02*
G01*
X2700000Y-6900000D01*
X2700000Y-6250000D01*
X2900000Y-6250000D01*
X2900000Y-6900000D01*
G37*
G36*
X2500000Y-13750000D02*
G01*
X2300000Y-13750000D01*
X2300000Y-13100000D01*
X2500000Y-13100000D01*
X2500000Y-13750000D01*
G37*
G36*
X2500000Y-6900000D02*
G01*
X2300000Y-6900000D01*
X2300000Y-6250000D01*
X2500000Y-6250000D01*
X2500000Y-6900000D01*
G37*
G36*
X2100000Y-13750000D02*
G01*
X1900000Y-13750000D01*
X1900000Y-13100000D01*
X2100000Y-13100000D01*
X2100000Y-13750000D01*
G37*
G36*
X2100000Y-6900000D02*
G01*
X1900000Y-6900000D01*
X1900000Y-6250000D01*
X2100000Y-6250000D01*
X2100000Y-6900000D01*
G37*
G36*
X1700000Y-13750000D02*
G01*
X1500000Y-13750000D01*
X1500000Y-13100000D01*
X1700000Y-13100000D01*
X1700000Y-13750000D01*
G37*
G36*
X1700000Y-6900000D02*
G01*
X1500000Y-6900000D01*
X1500000Y-6250000D01*
X1700000Y-6250000D01*
X1700000Y-6900000D01*
G37*
G36*
X1300000Y-13750000D02*
G01*
X1100000Y-13750000D01*
X1100000Y-13100000D01*
X1300000Y-13100000D01*
X1300000Y-13750000D01*
G37*
G36*
X1300000Y-6900000D02*
G01*
X1100000Y-6900000D01*
X1100000Y-6250000D01*
X1300000Y-6250000D01*
X1300000Y-6900000D01*
G37*
G36*
X1000000Y-11000000D02*
G01*
X400000Y-11000000D01*
X400000Y-10400000D01*
X1000000Y-10400000D01*
X1000000Y-11000000D01*
G37*
G36*
X1000000Y-9600000D02*
G01*
X400000Y-9600000D01*
X400000Y-9000000D01*
X1000000Y-9000000D01*
X1000000Y-9600000D01*
G37*
G36*
X900000Y-13750000D02*
G01*
X700000Y-13750000D01*
X700000Y-13100000D01*
X900000Y-13100000D01*
X900000Y-13750000D01*
G37*
G36*
X900000Y-6900000D02*
G01*
X700000Y-6900000D01*
X700000Y-6250000D01*
X900000Y-6250000D01*
X900000Y-6900000D01*
G37*
G36*
X500000Y-13750000D02*
G01*
X300000Y-13750000D01*
X300000Y-13100000D01*
X500000Y-13100000D01*
X500000Y-13750000D01*
G37*
G36*
X500000Y-6900000D02*
G01*
X300000Y-6900000D01*
X300000Y-6250000D01*
X500000Y-6250000D01*
X500000Y-6900000D01*
G37*
G36*
X100000Y-13750000D02*
G01*
X-100000Y-13750000D01*
X-100000Y-13100000D01*
X100000Y-13100000D01*
X100000Y-13750000D01*
G37*
G36*
X100000Y-6900000D02*
G01*
X-100000Y-6900000D01*
X-100000Y-6250000D01*
X100000Y-6250000D01*
X100000Y-6900000D01*
G37*
G36*
X-300000Y-13750000D02*
G01*
X-500000Y-13750000D01*
X-500000Y-13100000D01*
X-300000Y-13100000D01*
X-300000Y-13750000D01*
G37*
G36*
X-400000Y-11000000D02*
G01*
X-1000000Y-11000000D01*
X-1000000Y-10400000D01*
X-400000Y-10400000D01*
X-400000Y-11000000D01*
G37*
G36*
X-400000Y-9600000D02*
G01*
X-1000000Y-9600000D01*
X-1000000Y-9000000D01*
X-400000Y-9000000D01*
X-400000Y-9600000D01*
G37*
G36*
X-300000Y-6900000D02*
G01*
X-500000Y-6900000D01*
X-500000Y-6250000D01*
X-300000Y-6250000D01*
X-300000Y-6900000D01*
G37*
G36*
X-700000Y-13750000D02*
G01*
X-900000Y-13750000D01*
X-900000Y-13100000D01*
X-700000Y-13100000D01*
X-700000Y-13750000D01*
G37*
G36*
X-700000Y-6900000D02*
G01*
X-900000Y-6900000D01*
X-900000Y-6250000D01*
X-700000Y-6250000D01*
X-700000Y-6900000D01*
G37*
G36*
X-1100000Y-13750000D02*
G01*
X-1300000Y-13750000D01*
X-1300000Y-13100000D01*
X-1100000Y-13100000D01*
X-1100000Y-13750000D01*
G37*
G36*
X-1100000Y-6900000D02*
G01*
X-1300000Y-6900000D01*
X-1300000Y-6250000D01*
X-1100000Y-6250000D01*
X-1100000Y-6900000D01*
G37*
G36*
X-1500000Y-13750000D02*
G01*
X-1700000Y-13750000D01*
X-1700000Y-13100000D01*
X-1500000Y-13100000D01*
X-1500000Y-13750000D01*
G37*
G36*
X-1500000Y-6900000D02*
G01*
X-1700000Y-6900000D01*
X-1700000Y-6250000D01*
X-1500000Y-6250000D01*
X-1500000Y-6900000D01*
G37*
G36*
X-1900000Y-13750000D02*
G01*
X-2100000Y-13750000D01*
X-2100000Y-13100000D01*
X-1900000Y-13100000D01*
X-1900000Y-13750000D01*
G37*
G36*
X-1900000Y-6900000D02*
G01*
X-2100000Y-6900000D01*
X-2100000Y-6250000D01*
X-1900000Y-6250000D01*
X-1900000Y-6900000D01*
G37*
G36*
X-2300000Y-13750000D02*
G01*
X-2500000Y-13750000D01*
X-2500000Y-13100000D01*
X-2300000Y-13100000D01*
X-2300000Y-13750000D01*
G37*
G36*
X-2300000Y-6900000D02*
G01*
X-2500000Y-6900000D01*
X-2500000Y-6250000D01*
X-2300000Y-6250000D01*
X-2300000Y-6900000D01*
G37*
G36*
X-2700000Y-13750000D02*
G01*
X-2900000Y-13750000D01*
X-2900000Y-13100000D01*
X-2700000Y-13100000D01*
X-2700000Y-13750000D01*
G37*
G36*
X-2700000Y-6900000D02*
G01*
X-2900000Y-6900000D01*
X-2900000Y-6250000D01*
X-2700000Y-6250000D01*
X-2700000Y-6900000D01*
G37*
G36*
X-3100000Y-12900000D02*
G01*
X-3750000Y-12900000D01*
X-3750000Y-12700000D01*
X-3100000Y-12700000D01*
X-3100000Y-12900000D01*
G37*
G36*
X-3100000Y-12500000D02*
G01*
X-3750000Y-12500000D01*
X-3750000Y-12300000D01*
X-3100000Y-12300000D01*
X-3100000Y-12500000D01*
G37*
G36*
X-3100000Y-12100000D02*
G01*
X-3750000Y-12100000D01*
X-3750000Y-11900000D01*
X-3100000Y-11900000D01*
X-3100000Y-12100000D01*
G37*
G36*
X-3100000Y-11700000D02*
G01*
X-3750000Y-11700000D01*
X-3750000Y-11500000D01*
X-3100000Y-11500000D01*
X-3100000Y-11700000D01*
G37*
G36*
X-3100000Y-11300000D02*
G01*
X-3750000Y-11300000D01*
X-3750000Y-11100000D01*
X-3100000Y-11100000D01*
X-3100000Y-11300000D01*
G37*
G36*
X-3100000Y-10900000D02*
G01*
X-3750000Y-10900000D01*
X-3750000Y-10700000D01*
X-3100000Y-10700000D01*
X-3100000Y-10900000D01*
G37*
G36*
X-3100000Y-10500000D02*
G01*
X-3750000Y-10500000D01*
X-3750000Y-10300000D01*
X-3100000Y-10300000D01*
X-3100000Y-10500000D01*
G37*
G36*
X-3100000Y-10100000D02*
G01*
X-3750000Y-10100000D01*
X-3750000Y-9900000D01*
X-3100000Y-9900000D01*
X-3100000Y-10100000D01*
G37*
G36*
X-3100000Y-9700000D02*
G01*
X-3750000Y-9700000D01*
X-3750000Y-9500000D01*
X-3100000Y-9500000D01*
X-3100000Y-9700000D01*
G37*
G36*
X-3100000Y-9300000D02*
G01*
X-3750000Y-9300000D01*
X-3750000Y-9100000D01*
X-3100000Y-9100000D01*
X-3100000Y-9300000D01*
G37*
G36*
X-3100000Y-8900000D02*
G01*
X-3750000Y-8900000D01*
X-3750000Y-8700000D01*
X-3100000Y-8700000D01*
X-3100000Y-8900000D01*
G37*
G36*
X-3100000Y-8500000D02*
G01*
X-3750000Y-8500000D01*
X-3750000Y-8300000D01*
X-3100000Y-8300000D01*
X-3100000Y-8500000D01*
G37*
G36*
X-3100000Y-8100000D02*
G01*
X-3750000Y-8100000D01*
X-3750000Y-7900000D01*
X-3100000Y-7900000D01*
X-3100000Y-8100000D01*
G37*
G36*
X-3100000Y-7700000D02*
G01*
X-3750000Y-7700000D01*
X-3750000Y-7500000D01*
X-3100000Y-7500000D01*
X-3100000Y-7700000D01*
G37*
G36*
X-3100000Y-7300000D02*
G01*
X-3750000Y-7300000D01*
X-3750000Y-7100000D01*
X-3100000Y-7100000D01*
X-3100000Y-7300000D01*
G37*
%TO.C,U9*%
G36*
X-15625000Y-21300000D02*
G01*
X-15875000Y-21300000D01*
X-15875000Y-20662500D01*
X-15625000Y-20662500D01*
X-15625000Y-21300000D01*
G37*
G36*
X-15625000Y-23337500D02*
G01*
X-15875000Y-23337500D01*
X-15875000Y-22700000D01*
X-15625000Y-22700000D01*
X-15625000Y-23337500D01*
G37*
G36*
X-15125000Y-21300000D02*
G01*
X-15375000Y-21300000D01*
X-15375000Y-20662500D01*
X-15125000Y-20662500D01*
X-15125000Y-21300000D01*
G37*
G36*
X-15125000Y-23337500D02*
G01*
X-15375000Y-23337500D01*
X-15375000Y-22700000D01*
X-15125000Y-22700000D01*
X-15125000Y-23337500D01*
G37*
G36*
X-15090000Y-22320000D02*
G01*
X-15590000Y-22320000D01*
X-15590000Y-21680000D01*
X-15090000Y-21680000D01*
X-15090000Y-22320000D01*
G37*
G36*
X-14625000Y-21300000D02*
G01*
X-14875000Y-21300000D01*
X-14875000Y-20662500D01*
X-14625000Y-20662500D01*
X-14625000Y-21300000D01*
G37*
G36*
X-14625000Y-23337500D02*
G01*
X-14875000Y-23337500D01*
X-14875000Y-22700000D01*
X-14625000Y-22700000D01*
X-14625000Y-23337500D01*
G37*
G36*
X-14410000Y-22320000D02*
G01*
X-14910000Y-22320000D01*
X-14910000Y-21680000D01*
X-14410000Y-21680000D01*
X-14410000Y-22320000D01*
G37*
G36*
X-14125000Y-21300000D02*
G01*
X-14375000Y-21300000D01*
X-14375000Y-20662500D01*
X-14125000Y-20662500D01*
X-14125000Y-21300000D01*
G37*
G36*
X-14125000Y-23337500D02*
G01*
X-14375000Y-23337500D01*
X-14375000Y-22700000D01*
X-14125000Y-22700000D01*
X-14125000Y-23337500D01*
G37*
%TO.C,U3*%
G36*
X6400000Y-21850000D02*
G01*
X6100000Y-21850000D01*
X6100000Y-21650000D01*
X6400000Y-21650000D01*
X6400000Y-21850000D01*
G37*
G36*
X6400000Y-22350000D02*
G01*
X6100000Y-22350000D01*
X6100000Y-22150000D01*
X6400000Y-22150000D01*
X6400000Y-22350000D01*
G37*
G36*
X6400000Y-22850000D02*
G01*
X6100000Y-22850000D01*
X6100000Y-22650000D01*
X6400000Y-22650000D01*
X6400000Y-22850000D01*
G37*
G36*
X6400000Y-23350000D02*
G01*
X6100000Y-23350000D01*
X6100000Y-23150000D01*
X6400000Y-23150000D01*
X6400000Y-23350000D01*
G37*
G36*
X7600000Y-23100000D02*
G01*
X7400000Y-23100000D01*
X7400000Y-21900000D01*
X7600000Y-21900000D01*
X7600000Y-23100000D01*
G37*
G36*
X8900000Y-21850000D02*
G01*
X8600000Y-21850000D01*
X8600000Y-21650000D01*
X8900000Y-21650000D01*
X8900000Y-21850000D01*
G37*
G36*
X8900000Y-22350000D02*
G01*
X8600000Y-22350000D01*
X8600000Y-22150000D01*
X8900000Y-22150000D01*
X8900000Y-22350000D01*
G37*
G36*
X8900000Y-22850000D02*
G01*
X8600000Y-22850000D01*
X8600000Y-22650000D01*
X8900000Y-22650000D01*
X8900000Y-22850000D01*
G37*
G36*
X8900000Y-23350000D02*
G01*
X8600000Y-23350000D01*
X8600000Y-23150000D01*
X8900000Y-23150000D01*
X8900000Y-23350000D01*
G37*
%TD*%
D11*
%TO.C,U2*%
X4725000Y-19405000D03*
X4725000Y-18135000D03*
X4725000Y-16865000D03*
X4725000Y-15595000D03*
X10275000Y-15595000D03*
X10275000Y-16865000D03*
X10275000Y-18135000D03*
X10275000Y-19405000D03*
%TD*%
D12*
%TO.C,C2*%
X6275000Y-4500000D03*
X4725000Y-4500000D03*
%TD*%
D13*
%TO.C,R24*%
X13000000Y3325000D03*
X13000000Y1675000D03*
%TD*%
D14*
%TO.C,C29*%
X-18000000Y-16275000D03*
X-18000000Y-14725000D03*
%TD*%
D15*
%TO.C,C21*%
X19225000Y27500000D03*
X20775000Y27500000D03*
%TD*%
D16*
%TO.C,U8*%
X-16300100Y-14550000D03*
X-16300100Y-15500000D03*
X-16300100Y-16450000D03*
X-13699900Y-16450000D03*
X-13699900Y-14550000D03*
%TD*%
D17*
%TO.C,R7*%
X8675000Y-12500000D03*
X10325000Y-12500000D03*
%TD*%
D12*
%TO.C,C13*%
X-5225000Y-11000000D03*
X-6775000Y-11000000D03*
%TD*%
%TO.C,C5*%
X6275000Y500000D03*
X4725000Y500000D03*
%TD*%
D14*
%TO.C,C8*%
X-3500000Y-4775000D03*
X-3500000Y-3225000D03*
%TD*%
D18*
%TO.C,C17*%
X4250000Y-21725000D03*
X4250000Y-23275000D03*
%TD*%
D19*
%TO.C,R18*%
X20000000Y-8325000D03*
X20000000Y-6675000D03*
%TD*%
D13*
%TO.C,R6*%
X750000Y-21675000D03*
X750000Y-23325000D03*
%TD*%
D20*
%TO.C,SW2*%
X-12550000Y-28200000D03*
X-8450000Y-28200000D03*
X-12550000Y-29800000D03*
X-8450000Y-29800000D03*
%TD*%
D14*
%TO.C,C23*%
X-8500000Y35725000D03*
X-8500000Y37275000D03*
%TD*%
D21*
%TO.C,R1*%
X-5175000Y-15500000D03*
X-6825000Y-15500000D03*
%TD*%
D13*
%TO.C,R16*%
X-17500000Y-4675000D03*
X-17500000Y-6325000D03*
%TD*%
D14*
%TO.C,C20*%
X-11500000Y35725000D03*
X-11500000Y37275000D03*
%TD*%
D19*
%TO.C,R8*%
X10750000Y-23325000D03*
X10750000Y-21675000D03*
%TD*%
D21*
%TO.C,R9*%
X13325000Y-12500000D03*
X11675000Y-12500000D03*
%TD*%
D12*
%TO.C,C1*%
X-5225000Y-12500000D03*
X-6775000Y-12500000D03*
%TD*%
D13*
%TO.C,R28*%
X-17500000Y-21175000D03*
X-17500000Y-22825000D03*
%TD*%
%TO.C,R11*%
X12500000Y30325000D03*
X12500000Y28675000D03*
%TD*%
D18*
%TO.C,C3*%
X2500000Y-17725000D03*
X2500000Y-19275000D03*
%TD*%
D17*
%TO.C,R14*%
X8825000Y17500000D03*
X7175000Y17500000D03*
%TD*%
D22*
%TO.C,Y1*%
X4850000Y-1150000D03*
X4850000Y-2850000D03*
X6150000Y-2850000D03*
X6150000Y-1150000D03*
%TD*%
D12*
%TO.C,C4*%
X-5225000Y-14000000D03*
X-6775000Y-14000000D03*
%TD*%
%TO.C,C30*%
X17775000Y7000000D03*
X16225000Y7000000D03*
%TD*%
D15*
%TO.C,C24*%
X-15775000Y-8500000D03*
X-14225000Y-8500000D03*
%TD*%
%TO.C,C16*%
X6725000Y-26500000D03*
X8275000Y-26500000D03*
%TD*%
D19*
%TO.C,R17*%
X21500000Y-8325000D03*
X21500000Y-6675000D03*
%TD*%
D15*
%TO.C,C11*%
X5225000Y-11000000D03*
X6775000Y-11000000D03*
%TD*%
D14*
%TO.C,C28*%
X-12000000Y-16275000D03*
X-12000000Y-14725000D03*
%TD*%
D13*
%TO.C,R12*%
X17500000Y30325000D03*
X17500000Y28675000D03*
%TD*%
D19*
%TO.C,R22*%
X-14000000Y-29825000D03*
X-14000000Y-28175000D03*
%TD*%
%TO.C,R10*%
X5000000Y14175000D03*
X5000000Y15825000D03*
%TD*%
D20*
%TO.C,SW3*%
X-17450000Y-29800000D03*
X-21550000Y-29800000D03*
X-17450000Y-28200000D03*
X-21550000Y-28200000D03*
%TD*%
D21*
%TO.C,R13*%
X7175000Y19000000D03*
X8825000Y19000000D03*
%TD*%
D17*
%TO.C,R21*%
X-13575000Y-13000000D03*
X-11925000Y-13000000D03*
%TD*%
D19*
%TO.C,R3*%
X2500000Y-30325000D03*
X2500000Y-28675000D03*
%TD*%
D15*
%TO.C,C18*%
X6725000Y-25000000D03*
X8275000Y-25000000D03*
%TD*%
%TO.C,C27*%
X14225000Y-32000000D03*
X15775000Y-32000000D03*
%TD*%
D14*
%TO.C,C15*%
X-4000000Y-19775000D03*
X-4000000Y-18225000D03*
%TD*%
D23*
%TO.C,U4*%
X6550000Y39350000D03*
X6550000Y38100000D03*
X6550000Y36850000D03*
X6550000Y35600000D03*
X6550000Y34350000D03*
X6550000Y33100000D03*
X6550000Y31850000D03*
X6550000Y30600000D03*
X6550000Y29350000D03*
X6550000Y28100000D03*
X6550000Y26850000D03*
X6550000Y25600000D03*
X6550000Y24350000D03*
X6550000Y23100000D03*
D24*
X4370000Y21570000D03*
X3120000Y21570000D03*
X1870000Y21570000D03*
X620000Y21570000D03*
X-630000Y21570000D03*
X-1880000Y21570000D03*
X-3130000Y21570000D03*
X-4380000Y21570000D03*
D25*
X-6550000Y23100000D03*
X-6550000Y24350000D03*
X-6550000Y25600000D03*
X-6550000Y26850000D03*
X-6550000Y28100000D03*
X-6550000Y29350000D03*
X-6550000Y30600000D03*
X-6550000Y31850000D03*
X-6550000Y33100000D03*
X-6550000Y34350000D03*
X-6550000Y35600000D03*
X-6550000Y36850000D03*
%TD*%
D19*
%TO.C,R27*%
X-22500000Y1675000D03*
X-22500000Y3325000D03*
%TD*%
D15*
%TO.C,C26*%
X-14225000Y-1000000D03*
X-15775000Y-1000000D03*
%TD*%
D26*
%TO.C,Q1*%
X25100000Y-7500000D03*
X23000000Y-8450000D03*
X23000000Y-6550000D03*
%TD*%
D13*
%TO.C,R26*%
X-22500000Y6325000D03*
X-22500000Y4675000D03*
%TD*%
D14*
%TO.C,C9*%
X-500000Y-4775000D03*
X-500000Y-3225000D03*
%TD*%
D17*
%TO.C,R2*%
X1675000Y-2500000D03*
X3325000Y-2500000D03*
%TD*%
D12*
%TO.C,C14*%
X-1225000Y-16000000D03*
X-2775000Y-16000000D03*
%TD*%
%TO.C,C6*%
X-5225000Y-9500000D03*
X-6775000Y-9500000D03*
%TD*%
D15*
%TO.C,C19*%
X19225000Y18500000D03*
X20775000Y18500000D03*
%TD*%
D21*
%TO.C,R19*%
X-14175000Y-18000000D03*
X-15825000Y-18000000D03*
%TD*%
%TO.C,R20*%
X-14175000Y-32000000D03*
X-15825000Y-32000000D03*
%TD*%
D15*
%TO.C,C25*%
X-15775000Y-2500000D03*
X-14225000Y-2500000D03*
%TD*%
D13*
%TO.C,R5*%
X2250000Y-21675000D03*
X2250000Y-23325000D03*
%TD*%
D14*
%TO.C,C22*%
X-10000000Y35725000D03*
X-10000000Y37275000D03*
%TD*%
D27*
%TO.C,L1*%
X-2000000Y-17925000D03*
X-2000000Y-20075000D03*
%TD*%
D19*
%TO.C,R4*%
X-2500000Y-30325000D03*
X-2500000Y-28675000D03*
%TD*%
%TO.C,R15*%
X-12500000Y-11325000D03*
X-12500000Y-9675000D03*
%TD*%
D15*
%TO.C,C12*%
X1725000Y-4500000D03*
X3275000Y-4500000D03*
%TD*%
%TO.C,C7*%
X5225000Y-9500000D03*
X6775000Y-9500000D03*
%TD*%
%TO.C,C10*%
X5225000Y-12500000D03*
X6775000Y-12500000D03*
%TD*%
D13*
%TO.C,R23*%
X13000000Y-1675000D03*
X13000000Y-3325000D03*
%TD*%
D15*
%TO.C,C31*%
X-15775000Y-19500000D03*
X-14225000Y-19500000D03*
%TD*%
D19*
%TO.C,R25*%
X-16000000Y-28175000D03*
X-16000000Y-29825000D03*
%TD*%
D28*
%TO.C,U7*%
X-15950000Y-6800100D03*
X-15000000Y-6800100D03*
X-14050000Y-6800100D03*
X-14050000Y-4199900D03*
X-15950000Y-4199900D03*
%TD*%
D29*
%TO.C,U6*%
X-15750000Y-11240000D03*
X-15250000Y-11240000D03*
X-14750000Y-11240000D03*
X-14250000Y-11240000D03*
X-14250000Y-9760000D03*
X-14750000Y-9760000D03*
X-15250000Y-9760000D03*
X-15750000Y-9760000D03*
%TD*%
D30*
%TO.C,U5*%
X19445000Y25800000D03*
X18175000Y25800000D03*
X16905000Y25800000D03*
X15635000Y25800000D03*
X14365000Y25800000D03*
X13095000Y25800000D03*
X11825000Y25800000D03*
X10555000Y25800000D03*
X10555000Y20200000D03*
X11825000Y20200000D03*
X13095000Y20200000D03*
X14365000Y20200000D03*
X15635000Y20200000D03*
X16905000Y20200000D03*
X18175000Y20200000D03*
X19445000Y20200000D03*
%TD*%
D31*
%TO.C,SW1*%
X-15325000Y27500000D03*
X-15325000Y30000000D03*
X-15325000Y32500000D03*
X-9675000Y27500000D03*
X-9675000Y30000000D03*
X-9675000Y32500000D03*
%TD*%
D20*
%TO.C,SW4*%
X8950000Y-9200000D03*
X13050000Y-9200000D03*
X8950000Y-10800000D03*
X13050000Y-10800000D03*
%TD*%
D32*
%TO.C,J10*%
X20975000Y3850000D03*
X20975000Y2750000D03*
X20975000Y1650000D03*
X20975000Y900000D03*
X20975000Y-550000D03*
X20975000Y-1650000D03*
X20975000Y-2750000D03*
X20975000Y-3850000D03*
X20975000Y200000D03*
D33*
X14775000Y-5100000D03*
X19225000Y-5100000D03*
X14775000Y5100000D03*
X19225000Y5100000D03*
%TD*%
D34*
%TO.C,J4*%
X-2540000Y13120000D03*
X-2540000Y16880000D03*
X-1270000Y13120000D03*
X-1270000Y16880000D03*
X0Y13120000D03*
X0Y16880000D03*
X1270000Y13120000D03*
X1270000Y16880000D03*
X2540000Y13120000D03*
X2540000Y16880000D03*
%TD*%
D35*
%TO.C,J1*%
X-1250000Y-33340000D03*
X-250000Y-33340000D03*
X250000Y-33340000D03*
X1250000Y-33340000D03*
X1750000Y-33340000D03*
X750000Y-33340000D03*
X-750000Y-33340000D03*
X-1750000Y-33340000D03*
D36*
X-3225000Y-33340000D03*
X3225000Y-33340000D03*
D37*
X-4318000Y-38095000D03*
D38*
X-4318000Y-33915000D03*
X4318000Y-33915000D03*
D37*
X4318000Y-38095000D03*
D36*
X-2450000Y-33340000D03*
X2450000Y-33340000D03*
%TD*%
D35*
%TO.C,J3*%
X16250000Y33340000D03*
X15250000Y33340000D03*
X14750000Y33340000D03*
X13750000Y33340000D03*
X13250000Y33340000D03*
X14250000Y33340000D03*
X15750000Y33340000D03*
X16750000Y33340000D03*
D36*
X18225000Y33340000D03*
X11775000Y33340000D03*
D37*
X19318000Y38095000D03*
D38*
X19318000Y33915000D03*
X10682000Y33915000D03*
D37*
X10682000Y38095000D03*
D36*
X17450000Y33340000D03*
X12550000Y33340000D03*
%TD*%
D39*
%TO.C,J11*%
X-24500000Y5500000D03*
X-24500000Y4500000D03*
X-24500000Y3500000D03*
X-24500000Y2500000D03*
D40*
X-28175000Y1200000D03*
X-28175000Y6800000D03*
%TD*%
D41*
%TO.C,J9*%
X-22300000Y-5500000D03*
X-22300000Y-3500000D03*
D42*
X-27500000Y-7900000D03*
X-27500000Y-1100000D03*
%TD*%
D43*
%TO.C,D2*%
X16150000Y18500000D03*
X13850000Y18500000D03*
%TD*%
D28*
%TO.C,D3*%
X15950000Y30800100D03*
X15000000Y30800100D03*
X14050000Y30800100D03*
X14050000Y28199900D03*
X15000000Y28200000D03*
X15950000Y28199900D03*
%TD*%
%TO.C,D1*%
X-950000Y-30800100D03*
X0Y-30800100D03*
X950000Y-30800100D03*
X950000Y-28199900D03*
X0Y-28200000D03*
X-950000Y-28199900D03*
%TD*%
D44*
%TO.C,D5*%
X-15787500Y-36500000D03*
X-14212500Y-36500000D03*
%TD*%
%TO.C,D6*%
X-16462500Y-13000000D03*
X-18037500Y-13000000D03*
%TD*%
D45*
%TO.C,D4*%
X14450000Y-37415000D03*
X15550000Y-37415000D03*
X15550000Y-35585000D03*
X14450000Y-35585000D03*
%TD*%
M02*
