<?xml version="1.0" encoding="UTF-8" standalone="no"?>
<!-- Generated by Pixelmator Pro 3.6.4 -->

<svg
   width="52.141468"
   height="18.897638"
   viewBox="0 0 52.141468 18.897639"
   version="1.1"
   id="svg13"
   sodipodi:docname="NodeLogoWhite.svg"
   inkscape:version="1.2.1 (9c6d41e410, 2022-07-14)"
   xmlns:inkscape="http://www.inkscape.org/namespaces/inkscape"
   xmlns:sodipodi="http://sodipodi.sourceforge.net/DTD/sodipodi-0.dtd"
   xmlns="http://www.w3.org/2000/svg"
   xmlns:svg="http://www.w3.org/2000/svg">
  <defs
     id="defs17" />
  <sodipodi:namedview
     id="namedview15"
     pagecolor="#505050"
     bordercolor="#eeeeee"
     borderopacity="1"
     inkscape:showpageshadow="0"
     inkscape:pageopacity="0"
     inkscape:pagecheckerboard="0"
     inkscape:deskcolor="#505050"
     showgrid="false"
     inkscape:zoom="20.48"
     inkscape:cx="32.299805"
     inkscape:cy="15.014648"
     inkscape:window-width="1918"
     inkscape:window-height="1028"
     inkscape:window-x="3826"
     inkscape:window-y="0"
     inkscape:window-maximized="0"
     inkscape:current-layer="svg13" />
  <g
     aria-label="IoT"
     id="IoT"
     style="font-weight:700;font-size:13.8041px;font-family:'Helvetica Neue';fill:#ffffff;stroke-width:0.0479309"
     transform="scale(0.72609217)">
    <path
       d="M 5.877527,19.268188 H 0 V 17.488754 H 1.6446291 V 11.011342 H 0 V 9.2319068 H 5.877527 V 11.011342 H 4.2328979 v 6.477412 H 5.877527 Z"
       id="path875" />
    <path
       d="m 15.590275,15.48689 q 0,1.867058 -1.091926,2.945503 -1.085186,1.071705 -3.053348,1.071705 -1.968163,0 -3.0600889,-1.071705 -1.0851856,-1.078445 -1.0851856,-2.945503 0,-1.880539 1.0919259,-2.952244 1.0986662,-1.071705 3.0533486,-1.071705 1.981643,0 3.060088,1.078445 1.085186,1.078445 1.085186,2.945504 z m -2.985946,1.840097 q 0.23591,-0.289832 0.350495,-0.694249 0.121325,-0.411158 0.121325,-1.132368 0,-0.667288 -0.121325,-1.118887 -0.121325,-0.451599 -0.337014,-0.72121 -0.215689,-0.276352 -0.519002,-0.390937 -0.303313,-0.114584 -0.653807,-0.114584 -0.350495,0 -0.626847,0.09436 -0.269611,0.09436 -0.519001,0.377455 -0.22243,0.262871 -0.3572355,0.721211 -0.1280653,0.458339 -0.1280653,1.152588 0,0.620106 0.1145848,1.078445 0.114585,0.451599 0.337014,0.727951 0.215689,0.262871 0.512262,0.384196 0.303312,0.121325 0.687509,0.121325 0.330273,0 0.626846,-0.107844 0.303313,-0.114585 0.512261,-0.377456 z"
       id="path877" />
    <path
       d="m 25.316503,11.173108 h -3.134232 v 8.09508 h -2.588268 v -8.09508 H 16.459771 V 9.2319068 h 8.856732 z"
       id="path879" />
  </g>
  <path
     style="color:#000000;fill:#ffffff;stroke-linecap:round;stroke-linejoin:round;-inkscape-stroke:none"
     d="m 33.375,6.4042969 c -2.151989,0 -3.896484,1.7875924 -3.896484,3.9609371 0,2.173345 1.744478,3.962891 3.896484,3.962891 2.151949,0 3.898438,-1.789528 3.898437,-3.962891 0,-2.1733624 -1.746506,-3.9609371 -3.898437,-3.9609371 z m 0,1.3222656 c 1.423053,0 2.576172,1.1661835 2.576172,2.6386715 0,1.472488 -1.153137,2.640625 -2.576172,2.640625 -1.423122,0 -2.574219,-1.168119 -2.574219,-2.640625 0,-1.4725057 1.151079,-2.6386715 2.574219,-2.6386715 z"
     id="Oval" />
  <path
     id="path1"
     fill="#ffffff"
     fill-rule="evenodd"
     stroke="none"
     d="m 35.254786,2.2621401 c 0,-0.9610555 -0.779097,-1.74007983 -1.740153,-1.74007983 -0.961055,0 -1.74008,0.77902433 -1.74008,1.74007983 0,0.9610556 0.779025,1.7401525 1.74008,1.7401525 0.961056,0 1.740153,-0.7790969 1.740153,-1.7401525 z"
     style="stroke-width:0.0348023" />
  <path
     id="Oval-copy"
     fill="#ffffff"
     fill-rule="evenodd"
     stroke="none"
     d="m 37.482074,17.157558 c 0,-0.961056 -0.779025,-1.740153 -1.74008,-1.740153 -0.961056,0 -1.740153,0.779097 -1.740153,1.740153 0,0.960983 0.779097,1.74008 1.740153,1.74008 0.961055,0 1.74008,-0.779097 1.74008,-1.74008 z"
     style="stroke-width:0.0348023" />
  <path
     id="Oval-copy-2"
     fill="#ffffff"
     fill-rule="evenodd"
     stroke="none"
     d="M 43.572462,1.2180922 C 43.572462,0.54536783 43.027167,0 42.354442,0 41.681718,0 41.13635,0.54536783 41.13635,1.2180922 c 0,0.6727244 0.545368,1.2180922 1.218092,1.2180922 0.672725,0 1.21802,-0.5453678 1.21802,-1.2180922 z"
     style="stroke-width:0.0348023" />
  <path
     style="color:#000000;fill:#ffffff;stroke-linecap:round;stroke-linejoin:round;-inkscape-stroke:none"
     d="M 42.376953,0.88867188 A 0.33062151,0.33062151 0 0 0 42.138672,0.96875 l -7.34375,6.3691406 a 0.33062151,0.33062151 0 0 0 -0.0332,0.4648438 0.33062151,0.33062151 0 0 0 0.466797,0.033203 L 42.570312,1.46875 a 0.33062151,0.33062151 0 0 0 0.0332,-0.4667969 0.33062151,0.33062151 0 0 0 -0.226563,-0.11328122 z"
     id="Line" />
  <path
     style="color:#000000;fill:#ffffff;stroke-linecap:round;stroke-linejoin:round;-inkscape-stroke:none"
     d="M 33.375,1.9316406 A 0.33062151,0.33062151 0 0 0 33.044922,2.2617188 V 7.0644531 A 0.33062151,0.33062151 0 0 0 33.375,7.3945312 0.33062151,0.33062151 0 0 0 33.707031,7.0644531 V 2.2617188 A 0.33062151,0.33062151 0 0 0 33.375,1.9316406 Z"
     id="Line-copy" />
  <path
     style="color:#000000;fill:#ffffff;stroke-linecap:round;stroke-linejoin:round;-inkscape-stroke:none"
     d="m 34.408203,13.367188 a 0.33062151,0.33062151 0 0 0 -0.195312,0.425781 l 1.289062,3.478515 a 0.33062151,0.33062151 0 0 0 0.423828,0.195313 0.33062151,0.33062151 0 0 0 0.195313,-0.423828 L 34.833984,13.5625 a 0.33062151,0.33062151 0 0 0 -0.425781,-0.195312 z"
     id="path2" />
  <g
     aria-label="N"
     id="N"
     style="font-weight:700;font-size:13.8041px;font-family:'Helvetica Neue';fill:#ffffff;stroke-width:0.0479309"
     transform="scale(0.72609217)">
    <path
       d="m 40.330139,19.268188 h -2.493905 l -4.259859,-6.888569 v 6.888569 h -2.37258 V 9.2319068 h 3.09379 l 3.659974,5.7494612 V 9.2319068 h 2.37258 z"
       id="path872" />
  </g>
  <g
     aria-label="DE"
     id="DE"
     style="font-weight:700;font-size:13.8041px;font-family:'Helvetica Neue';fill:#ffffff;stroke-width:0.0479309"
     transform="scale(0.72609217)">
    <path
       d="m 62.5769,14.451931 q 0,1.401978 -0.640327,2.514125 -0.640327,1.105407 -1.617668,1.698552 -0.734691,0.444858 -1.610927,0.620106 -0.876237,0.175247 -2.076008,0.175247 H 53.093322 V 9.4236792 h 3.639753 q 1.226731,0 2.116449,0.2089488 0.889717,0.2022085 1.496342,0.579664 1.038004,0.633587 1.631149,1.712032 0.599885,1.071705 0.599885,2.527607 z m -2.675892,-0.02022 q 0,-0.990822 -0.363976,-1.691811 -0.357235,-0.70773 -1.139107,-1.105407 -0.397677,-0.195468 -0.815575,-0.262871 -0.411157,-0.07414 -1.246952,-0.07414 H 55.68159 v 6.281944 h 0.653808 q 0.923419,0 1.354797,-0.08088 0.431378,-0.08762 0.842535,-0.310054 0.70773,-0.404417 1.038004,-1.078445 0.330274,-0.680768 0.330274,-1.67833 z"
       id="path867" />
    <path
       d="M 71.811088,19.459961 H 64.551803 V 9.4236792 h 7.259285 v 1.9412018 h -4.684496 v 1.732253 h 4.347482 v 1.941201 h -4.347482 v 2.480424 h 4.684496 z"
       id="path869" />
  </g>
</svg>
