%TF.GenerationSoftware,KiCad,Pcbnew,8.0.5*%
%TF.CreationDate,2024-11-04T11:07:50-07:00*%
%TF.ProjectId,SparkFun_IoT_Node_LoRaWAN_panelized,53706172-6b46-4756-9e5f-496f545f4e6f,v10*%
%TF.SameCoordinates,Original*%
%TF.FileFunction,Paste,Top*%
%TF.FilePolarity,Positive*%
%FSLAX46Y46*%
G04 Gerber Fmt 4.6, Leading zero omitted, Abs format (unit mm)*
G04 Created by KiCad (PCBNEW 8.0.5) date 2024-11-04 11:07:50*
%MOMM*%
%LPD*%
G01*
G04 APERTURE LIST*
G04 Aperture macros list*
%AMRoundRect*
0 Rectangle with rounded corners*
0 $1 Rounding radius*
0 $2 $3 $4 $5 $6 $7 $8 $9 X,Y pos of 4 corners*
0 Add a 4 corners polygon primitive as box body*
4,1,4,$2,$3,$4,$5,$6,$7,$8,$9,$2,$3,0*
0 Add four circle primitives for the rounded corners*
1,1,$1+$1,$2,$3*
1,1,$1+$1,$4,$5*
1,1,$1+$1,$6,$7*
1,1,$1+$1,$8,$9*
0 Add four rect primitives between the rounded corners*
20,1,$1+$1,$2,$3,$4,$5,0*
20,1,$1+$1,$4,$5,$6,$7,0*
20,1,$1+$1,$6,$7,$8,$9,0*
20,1,$1+$1,$8,$9,$2,$3,0*%
%AMFreePoly0*
4,1,14,-0.725000,0.420000,0.305000,0.420000,0.434787,0.399444,0.551870,0.339787,0.644787,0.246870,0.704444,0.129787,0.725000,0.000000,0.704444,-0.129787,0.644787,-0.246870,0.551870,-0.339787,0.434787,-0.399444,0.305000,-0.420000,-0.725000,-0.420000,-0.725000,0.420000,-0.725000,0.420000,$1*%
G04 Aperture macros list end*
%ADD10C,0.000000*%
%ADD11RoundRect,0.225000X0.225000X0.250000X-0.225000X0.250000X-0.225000X-0.250000X0.225000X-0.250000X0*%
%ADD12RoundRect,0.200000X-0.275000X0.200000X-0.275000X-0.200000X0.275000X-0.200000X0.275000X0.200000X0*%
%ADD13RoundRect,0.225000X0.250000X-0.225000X0.250000X0.225000X-0.250000X0.225000X-0.250000X-0.225000X0*%
%ADD14RoundRect,0.225000X-0.225000X-0.250000X0.225000X-0.250000X0.225000X0.250000X-0.225000X0.250000X0*%
%ADD15R,1.200000X0.550000*%
%ADD16RoundRect,0.050000X0.100000X-0.285000X0.100000X0.285000X-0.100000X0.285000X-0.100000X-0.285000X0*%
%ADD17RoundRect,0.200000X-0.200000X-0.275000X0.200000X-0.275000X0.200000X0.275000X-0.200000X0.275000X0*%
%ADD18R,0.550000X1.200000*%
%ADD19RoundRect,0.225000X-0.250000X0.225000X-0.250000X-0.225000X0.250000X-0.225000X0.250000X0.225000X0*%
%ADD20R,1.350000X0.600000*%
%ADD21R,2.000000X1.200000*%
%ADD22RoundRect,0.200000X0.275000X-0.200000X0.275000X0.200000X-0.275000X0.200000X-0.275000X-0.200000X0*%
%ADD23R,0.900000X1.000000*%
%ADD24RoundRect,0.200000X0.200000X0.275000X-0.200000X0.275000X-0.200000X-0.275000X0.200000X-0.275000X0*%
%ADD25R,0.600000X1.200000*%
%ADD26R,1.000000X0.500000*%
%ADD27R,1.200000X0.950000*%
%ADD28RoundRect,0.218750X0.218750X0.256250X-0.218750X0.256250X-0.218750X-0.256250X0.218750X-0.256250X0*%
%ADD29R,0.630000X0.830000*%
%ADD30R,1.000000X1.200000*%
%ADD31R,0.300000X1.000000*%
%ADD32R,0.600000X1.000000*%
%ADD33O,1.000000X1.600000*%
%ADD34O,1.000000X2.100000*%
%ADD35R,0.700000X0.700000*%
%ADD36R,4.600000X1.000000*%
%ADD37R,3.400000X1.600000*%
%ADD38FreePoly0,0.000000*%
%ADD39FreePoly0,90.000000*%
%ADD40FreePoly0,180.000000*%
%ADD41R,0.850000X0.500000*%
%ADD42R,1.150000X1.000000*%
%ADD43R,0.900000X0.800000*%
%ADD44R,0.740000X2.380000*%
%ADD45RoundRect,0.250000X0.850000X-0.375000X0.850000X0.375000X-0.850000X0.375000X-0.850000X-0.375000X0*%
G04 APERTURE END LIST*
D10*
%TO.C,U1*%
G36*
X56400000Y-7300000D02*
G01*
X55750000Y-7300000D01*
X55750000Y-7100000D01*
X56400000Y-7100000D01*
X56400000Y-7300000D01*
G37*
G36*
X56400000Y-7700000D02*
G01*
X55750000Y-7700000D01*
X55750000Y-7500000D01*
X56400000Y-7500000D01*
X56400000Y-7700000D01*
G37*
G36*
X56400000Y-8100000D02*
G01*
X55750000Y-8100000D01*
X55750000Y-7900000D01*
X56400000Y-7900000D01*
X56400000Y-8100000D01*
G37*
G36*
X56400000Y-8500000D02*
G01*
X55750000Y-8500000D01*
X55750000Y-8300000D01*
X56400000Y-8300000D01*
X56400000Y-8500000D01*
G37*
G36*
X56400000Y-8900000D02*
G01*
X55750000Y-8900000D01*
X55750000Y-8700000D01*
X56400000Y-8700000D01*
X56400000Y-8900000D01*
G37*
G36*
X56400000Y-9300000D02*
G01*
X55750000Y-9300000D01*
X55750000Y-9100000D01*
X56400000Y-9100000D01*
X56400000Y-9300000D01*
G37*
G36*
X56400000Y-9700000D02*
G01*
X55750000Y-9700000D01*
X55750000Y-9500000D01*
X56400000Y-9500000D01*
X56400000Y-9700000D01*
G37*
G36*
X56400000Y-10100000D02*
G01*
X55750000Y-10100000D01*
X55750000Y-9900000D01*
X56400000Y-9900000D01*
X56400000Y-10100000D01*
G37*
G36*
X56400000Y-10500000D02*
G01*
X55750000Y-10500000D01*
X55750000Y-10300000D01*
X56400000Y-10300000D01*
X56400000Y-10500000D01*
G37*
G36*
X56400000Y-10900000D02*
G01*
X55750000Y-10900000D01*
X55750000Y-10700000D01*
X56400000Y-10700000D01*
X56400000Y-10900000D01*
G37*
G36*
X56400000Y-11300000D02*
G01*
X55750000Y-11300000D01*
X55750000Y-11100000D01*
X56400000Y-11100000D01*
X56400000Y-11300000D01*
G37*
G36*
X56400000Y-11700000D02*
G01*
X55750000Y-11700000D01*
X55750000Y-11500000D01*
X56400000Y-11500000D01*
X56400000Y-11700000D01*
G37*
G36*
X56400000Y-12100000D02*
G01*
X55750000Y-12100000D01*
X55750000Y-11900000D01*
X56400000Y-11900000D01*
X56400000Y-12100000D01*
G37*
G36*
X56400000Y-12500000D02*
G01*
X55750000Y-12500000D01*
X55750000Y-12300000D01*
X56400000Y-12300000D01*
X56400000Y-12500000D01*
G37*
G36*
X56400000Y-12900000D02*
G01*
X55750000Y-12900000D01*
X55750000Y-12700000D01*
X56400000Y-12700000D01*
X56400000Y-12900000D01*
G37*
G36*
X56800000Y-6900000D02*
G01*
X56600000Y-6900000D01*
X56600000Y-6250000D01*
X56800000Y-6250000D01*
X56800000Y-6900000D01*
G37*
G36*
X56800000Y-13750000D02*
G01*
X56600000Y-13750000D01*
X56600000Y-13100000D01*
X56800000Y-13100000D01*
X56800000Y-13750000D01*
G37*
G36*
X57200000Y-6900000D02*
G01*
X57000000Y-6900000D01*
X57000000Y-6250000D01*
X57200000Y-6250000D01*
X57200000Y-6900000D01*
G37*
G36*
X57200000Y-13750000D02*
G01*
X57000000Y-13750000D01*
X57000000Y-13100000D01*
X57200000Y-13100000D01*
X57200000Y-13750000D01*
G37*
G36*
X57600000Y-6900000D02*
G01*
X57400000Y-6900000D01*
X57400000Y-6250000D01*
X57600000Y-6250000D01*
X57600000Y-6900000D01*
G37*
G36*
X57600000Y-13750000D02*
G01*
X57400000Y-13750000D01*
X57400000Y-13100000D01*
X57600000Y-13100000D01*
X57600000Y-13750000D01*
G37*
G36*
X58000000Y-6900000D02*
G01*
X57800000Y-6900000D01*
X57800000Y-6250000D01*
X58000000Y-6250000D01*
X58000000Y-6900000D01*
G37*
G36*
X58000000Y-13750000D02*
G01*
X57800000Y-13750000D01*
X57800000Y-13100000D01*
X58000000Y-13100000D01*
X58000000Y-13750000D01*
G37*
G36*
X58400000Y-6900000D02*
G01*
X58200000Y-6900000D01*
X58200000Y-6250000D01*
X58400000Y-6250000D01*
X58400000Y-6900000D01*
G37*
G36*
X58400000Y-13750000D02*
G01*
X58200000Y-13750000D01*
X58200000Y-13100000D01*
X58400000Y-13100000D01*
X58400000Y-13750000D01*
G37*
G36*
X58800000Y-6900000D02*
G01*
X58600000Y-6900000D01*
X58600000Y-6250000D01*
X58800000Y-6250000D01*
X58800000Y-6900000D01*
G37*
G36*
X58800000Y-13750000D02*
G01*
X58600000Y-13750000D01*
X58600000Y-13100000D01*
X58800000Y-13100000D01*
X58800000Y-13750000D01*
G37*
G36*
X59200000Y-6900000D02*
G01*
X59000000Y-6900000D01*
X59000000Y-6250000D01*
X59200000Y-6250000D01*
X59200000Y-6900000D01*
G37*
G36*
X59100000Y-9600000D02*
G01*
X58500000Y-9600000D01*
X58500000Y-9000000D01*
X59100000Y-9000000D01*
X59100000Y-9600000D01*
G37*
G36*
X59100000Y-11000000D02*
G01*
X58500000Y-11000000D01*
X58500000Y-10400000D01*
X59100000Y-10400000D01*
X59100000Y-11000000D01*
G37*
G36*
X59200000Y-13750000D02*
G01*
X59000000Y-13750000D01*
X59000000Y-13100000D01*
X59200000Y-13100000D01*
X59200000Y-13750000D01*
G37*
G36*
X59600000Y-6900000D02*
G01*
X59400000Y-6900000D01*
X59400000Y-6250000D01*
X59600000Y-6250000D01*
X59600000Y-6900000D01*
G37*
G36*
X59600000Y-13750000D02*
G01*
X59400000Y-13750000D01*
X59400000Y-13100000D01*
X59600000Y-13100000D01*
X59600000Y-13750000D01*
G37*
G36*
X60000000Y-6900000D02*
G01*
X59800000Y-6900000D01*
X59800000Y-6250000D01*
X60000000Y-6250000D01*
X60000000Y-6900000D01*
G37*
G36*
X60000000Y-13750000D02*
G01*
X59800000Y-13750000D01*
X59800000Y-13100000D01*
X60000000Y-13100000D01*
X60000000Y-13750000D01*
G37*
G36*
X60400000Y-6900000D02*
G01*
X60200000Y-6900000D01*
X60200000Y-6250000D01*
X60400000Y-6250000D01*
X60400000Y-6900000D01*
G37*
G36*
X60400000Y-13750000D02*
G01*
X60200000Y-13750000D01*
X60200000Y-13100000D01*
X60400000Y-13100000D01*
X60400000Y-13750000D01*
G37*
G36*
X60500000Y-9600000D02*
G01*
X59900000Y-9600000D01*
X59900000Y-9000000D01*
X60500000Y-9000000D01*
X60500000Y-9600000D01*
G37*
G36*
X60500000Y-11000000D02*
G01*
X59900000Y-11000000D01*
X59900000Y-10400000D01*
X60500000Y-10400000D01*
X60500000Y-11000000D01*
G37*
G36*
X60800000Y-6900000D02*
G01*
X60600000Y-6900000D01*
X60600000Y-6250000D01*
X60800000Y-6250000D01*
X60800000Y-6900000D01*
G37*
G36*
X60800000Y-13750000D02*
G01*
X60600000Y-13750000D01*
X60600000Y-13100000D01*
X60800000Y-13100000D01*
X60800000Y-13750000D01*
G37*
G36*
X61200000Y-6900000D02*
G01*
X61000000Y-6900000D01*
X61000000Y-6250000D01*
X61200000Y-6250000D01*
X61200000Y-6900000D01*
G37*
G36*
X61200000Y-13750000D02*
G01*
X61000000Y-13750000D01*
X61000000Y-13100000D01*
X61200000Y-13100000D01*
X61200000Y-13750000D01*
G37*
G36*
X61600000Y-6900000D02*
G01*
X61400000Y-6900000D01*
X61400000Y-6250000D01*
X61600000Y-6250000D01*
X61600000Y-6900000D01*
G37*
G36*
X61600000Y-13750000D02*
G01*
X61400000Y-13750000D01*
X61400000Y-13100000D01*
X61600000Y-13100000D01*
X61600000Y-13750000D01*
G37*
G36*
X62000000Y-6900000D02*
G01*
X61800000Y-6900000D01*
X61800000Y-6250000D01*
X62000000Y-6250000D01*
X62000000Y-6900000D01*
G37*
G36*
X62000000Y-13750000D02*
G01*
X61800000Y-13750000D01*
X61800000Y-13100000D01*
X62000000Y-13100000D01*
X62000000Y-13750000D01*
G37*
G36*
X62400000Y-6900000D02*
G01*
X62200000Y-6900000D01*
X62200000Y-6250000D01*
X62400000Y-6250000D01*
X62400000Y-6900000D01*
G37*
G36*
X62400000Y-13750000D02*
G01*
X62200000Y-13750000D01*
X62200000Y-13100000D01*
X62400000Y-13100000D01*
X62400000Y-13750000D01*
G37*
G36*
X63250000Y-7300000D02*
G01*
X62600000Y-7300000D01*
X62600000Y-7100000D01*
X63250000Y-7100000D01*
X63250000Y-7300000D01*
G37*
G36*
X63250000Y-7700000D02*
G01*
X62600000Y-7700000D01*
X62600000Y-7500000D01*
X63250000Y-7500000D01*
X63250000Y-7700000D01*
G37*
G36*
X63250000Y-8100000D02*
G01*
X62600000Y-8100000D01*
X62600000Y-7900000D01*
X63250000Y-7900000D01*
X63250000Y-8100000D01*
G37*
G36*
X63250000Y-8500000D02*
G01*
X62600000Y-8500000D01*
X62600000Y-8300000D01*
X63250000Y-8300000D01*
X63250000Y-8500000D01*
G37*
G36*
X63250000Y-8900000D02*
G01*
X62600000Y-8900000D01*
X62600000Y-8700000D01*
X63250000Y-8700000D01*
X63250000Y-8900000D01*
G37*
G36*
X63250000Y-9300000D02*
G01*
X62600000Y-9300000D01*
X62600000Y-9100000D01*
X63250000Y-9100000D01*
X63250000Y-9300000D01*
G37*
G36*
X63250000Y-9700000D02*
G01*
X62600000Y-9700000D01*
X62600000Y-9500000D01*
X63250000Y-9500000D01*
X63250000Y-9700000D01*
G37*
G36*
X63250000Y-10100000D02*
G01*
X62600000Y-10100000D01*
X62600000Y-9900000D01*
X63250000Y-9900000D01*
X63250000Y-10100000D01*
G37*
G36*
X63250000Y-10500000D02*
G01*
X62600000Y-10500000D01*
X62600000Y-10300000D01*
X63250000Y-10300000D01*
X63250000Y-10500000D01*
G37*
G36*
X63250000Y-10900000D02*
G01*
X62600000Y-10900000D01*
X62600000Y-10700000D01*
X63250000Y-10700000D01*
X63250000Y-10900000D01*
G37*
G36*
X63250000Y-11300000D02*
G01*
X62600000Y-11300000D01*
X62600000Y-11100000D01*
X63250000Y-11100000D01*
X63250000Y-11300000D01*
G37*
G36*
X63250000Y-11700000D02*
G01*
X62600000Y-11700000D01*
X62600000Y-11500000D01*
X63250000Y-11500000D01*
X63250000Y-11700000D01*
G37*
G36*
X63250000Y-12100000D02*
G01*
X62600000Y-12100000D01*
X62600000Y-11900000D01*
X63250000Y-11900000D01*
X63250000Y-12100000D01*
G37*
G36*
X63250000Y-12500000D02*
G01*
X62600000Y-12500000D01*
X62600000Y-12300000D01*
X63250000Y-12300000D01*
X63250000Y-12500000D01*
G37*
G36*
X63250000Y-12900000D02*
G01*
X62600000Y-12900000D01*
X62600000Y-12700000D01*
X63250000Y-12700000D01*
X63250000Y-12900000D01*
G37*
G36*
X-3100000Y77780000D02*
G01*
X-3750000Y77780000D01*
X-3750000Y77980000D01*
X-3100000Y77980000D01*
X-3100000Y77780000D01*
G37*
G36*
X-3100000Y77380000D02*
G01*
X-3750000Y77380000D01*
X-3750000Y77580000D01*
X-3100000Y77580000D01*
X-3100000Y77380000D01*
G37*
G36*
X-3100000Y76980000D02*
G01*
X-3750000Y76980000D01*
X-3750000Y77180000D01*
X-3100000Y77180000D01*
X-3100000Y76980000D01*
G37*
G36*
X-3100000Y76580000D02*
G01*
X-3750000Y76580000D01*
X-3750000Y76780000D01*
X-3100000Y76780000D01*
X-3100000Y76580000D01*
G37*
G36*
X-3100000Y76180000D02*
G01*
X-3750000Y76180000D01*
X-3750000Y76380000D01*
X-3100000Y76380000D01*
X-3100000Y76180000D01*
G37*
G36*
X-3100000Y75780000D02*
G01*
X-3750000Y75780000D01*
X-3750000Y75980000D01*
X-3100000Y75980000D01*
X-3100000Y75780000D01*
G37*
G36*
X-3100000Y75380000D02*
G01*
X-3750000Y75380000D01*
X-3750000Y75580000D01*
X-3100000Y75580000D01*
X-3100000Y75380000D01*
G37*
G36*
X-3100000Y74980000D02*
G01*
X-3750000Y74980000D01*
X-3750000Y75180000D01*
X-3100000Y75180000D01*
X-3100000Y74980000D01*
G37*
G36*
X-3100000Y74580000D02*
G01*
X-3750000Y74580000D01*
X-3750000Y74780000D01*
X-3100000Y74780000D01*
X-3100000Y74580000D01*
G37*
G36*
X-3100000Y74180000D02*
G01*
X-3750000Y74180000D01*
X-3750000Y74380000D01*
X-3100000Y74380000D01*
X-3100000Y74180000D01*
G37*
G36*
X-3100000Y73780000D02*
G01*
X-3750000Y73780000D01*
X-3750000Y73980000D01*
X-3100000Y73980000D01*
X-3100000Y73780000D01*
G37*
G36*
X-3100000Y73380000D02*
G01*
X-3750000Y73380000D01*
X-3750000Y73580000D01*
X-3100000Y73580000D01*
X-3100000Y73380000D01*
G37*
G36*
X-3100000Y72980000D02*
G01*
X-3750000Y72980000D01*
X-3750000Y73180000D01*
X-3100000Y73180000D01*
X-3100000Y72980000D01*
G37*
G36*
X-3100000Y72580000D02*
G01*
X-3750000Y72580000D01*
X-3750000Y72780000D01*
X-3100000Y72780000D01*
X-3100000Y72580000D01*
G37*
G36*
X-3100000Y72180000D02*
G01*
X-3750000Y72180000D01*
X-3750000Y72380000D01*
X-3100000Y72380000D01*
X-3100000Y72180000D01*
G37*
G36*
X-2700000Y78180000D02*
G01*
X-2900000Y78180000D01*
X-2900000Y78830000D01*
X-2700000Y78830000D01*
X-2700000Y78180000D01*
G37*
G36*
X-2700000Y71330000D02*
G01*
X-2900000Y71330000D01*
X-2900000Y71980000D01*
X-2700000Y71980000D01*
X-2700000Y71330000D01*
G37*
G36*
X-2300000Y78180000D02*
G01*
X-2500000Y78180000D01*
X-2500000Y78830000D01*
X-2300000Y78830000D01*
X-2300000Y78180000D01*
G37*
G36*
X-2300000Y71330000D02*
G01*
X-2500000Y71330000D01*
X-2500000Y71980000D01*
X-2300000Y71980000D01*
X-2300000Y71330000D01*
G37*
G36*
X-1900000Y78180000D02*
G01*
X-2100000Y78180000D01*
X-2100000Y78830000D01*
X-1900000Y78830000D01*
X-1900000Y78180000D01*
G37*
G36*
X-1900000Y71330000D02*
G01*
X-2100000Y71330000D01*
X-2100000Y71980000D01*
X-1900000Y71980000D01*
X-1900000Y71330000D01*
G37*
G36*
X-1500000Y78180000D02*
G01*
X-1700000Y78180000D01*
X-1700000Y78830000D01*
X-1500000Y78830000D01*
X-1500000Y78180000D01*
G37*
G36*
X-1500000Y71330000D02*
G01*
X-1700000Y71330000D01*
X-1700000Y71980000D01*
X-1500000Y71980000D01*
X-1500000Y71330000D01*
G37*
G36*
X-1100000Y78180000D02*
G01*
X-1300000Y78180000D01*
X-1300000Y78830000D01*
X-1100000Y78830000D01*
X-1100000Y78180000D01*
G37*
G36*
X-1100000Y71330000D02*
G01*
X-1300000Y71330000D01*
X-1300000Y71980000D01*
X-1100000Y71980000D01*
X-1100000Y71330000D01*
G37*
G36*
X-700000Y78180000D02*
G01*
X-900000Y78180000D01*
X-900000Y78830000D01*
X-700000Y78830000D01*
X-700000Y78180000D01*
G37*
G36*
X-700000Y71330000D02*
G01*
X-900000Y71330000D01*
X-900000Y71980000D01*
X-700000Y71980000D01*
X-700000Y71330000D01*
G37*
G36*
X-300000Y78180000D02*
G01*
X-500000Y78180000D01*
X-500000Y78830000D01*
X-300000Y78830000D01*
X-300000Y78180000D01*
G37*
G36*
X-400000Y75480000D02*
G01*
X-1000000Y75480000D01*
X-1000000Y76080000D01*
X-400000Y76080000D01*
X-400000Y75480000D01*
G37*
G36*
X-400000Y74080000D02*
G01*
X-1000000Y74080000D01*
X-1000000Y74680000D01*
X-400000Y74680000D01*
X-400000Y74080000D01*
G37*
G36*
X-300000Y71330000D02*
G01*
X-500000Y71330000D01*
X-500000Y71980000D01*
X-300000Y71980000D01*
X-300000Y71330000D01*
G37*
G36*
X100000Y78180000D02*
G01*
X-100000Y78180000D01*
X-100000Y78830000D01*
X100000Y78830000D01*
X100000Y78180000D01*
G37*
G36*
X100000Y71330000D02*
G01*
X-100000Y71330000D01*
X-100000Y71980000D01*
X100000Y71980000D01*
X100000Y71330000D01*
G37*
G36*
X500000Y78180000D02*
G01*
X300000Y78180000D01*
X300000Y78830000D01*
X500000Y78830000D01*
X500000Y78180000D01*
G37*
G36*
X500000Y71330000D02*
G01*
X300000Y71330000D01*
X300000Y71980000D01*
X500000Y71980000D01*
X500000Y71330000D01*
G37*
G36*
X900000Y78180000D02*
G01*
X700000Y78180000D01*
X700000Y78830000D01*
X900000Y78830000D01*
X900000Y78180000D01*
G37*
G36*
X900000Y71330000D02*
G01*
X700000Y71330000D01*
X700000Y71980000D01*
X900000Y71980000D01*
X900000Y71330000D01*
G37*
G36*
X1000000Y75480000D02*
G01*
X400000Y75480000D01*
X400000Y76080000D01*
X1000000Y76080000D01*
X1000000Y75480000D01*
G37*
G36*
X1000000Y74080000D02*
G01*
X400000Y74080000D01*
X400000Y74680000D01*
X1000000Y74680000D01*
X1000000Y74080000D01*
G37*
G36*
X1300000Y78180000D02*
G01*
X1100000Y78180000D01*
X1100000Y78830000D01*
X1300000Y78830000D01*
X1300000Y78180000D01*
G37*
G36*
X1300000Y71330000D02*
G01*
X1100000Y71330000D01*
X1100000Y71980000D01*
X1300000Y71980000D01*
X1300000Y71330000D01*
G37*
G36*
X1700000Y78180000D02*
G01*
X1500000Y78180000D01*
X1500000Y78830000D01*
X1700000Y78830000D01*
X1700000Y78180000D01*
G37*
G36*
X1700000Y71330000D02*
G01*
X1500000Y71330000D01*
X1500000Y71980000D01*
X1700000Y71980000D01*
X1700000Y71330000D01*
G37*
G36*
X2100000Y78180000D02*
G01*
X1900000Y78180000D01*
X1900000Y78830000D01*
X2100000Y78830000D01*
X2100000Y78180000D01*
G37*
G36*
X2100000Y71330000D02*
G01*
X1900000Y71330000D01*
X1900000Y71980000D01*
X2100000Y71980000D01*
X2100000Y71330000D01*
G37*
G36*
X2500000Y78180000D02*
G01*
X2300000Y78180000D01*
X2300000Y78830000D01*
X2500000Y78830000D01*
X2500000Y78180000D01*
G37*
G36*
X2500000Y71330000D02*
G01*
X2300000Y71330000D01*
X2300000Y71980000D01*
X2500000Y71980000D01*
X2500000Y71330000D01*
G37*
G36*
X2900000Y78180000D02*
G01*
X2700000Y78180000D01*
X2700000Y78830000D01*
X2900000Y78830000D01*
X2900000Y78180000D01*
G37*
G36*
X2900000Y71330000D02*
G01*
X2700000Y71330000D01*
X2700000Y71980000D01*
X2900000Y71980000D01*
X2900000Y71330000D01*
G37*
G36*
X3750000Y77780000D02*
G01*
X3100000Y77780000D01*
X3100000Y77980000D01*
X3750000Y77980000D01*
X3750000Y77780000D01*
G37*
G36*
X3750000Y77380000D02*
G01*
X3100000Y77380000D01*
X3100000Y77580000D01*
X3750000Y77580000D01*
X3750000Y77380000D01*
G37*
G36*
X3750000Y76980000D02*
G01*
X3100000Y76980000D01*
X3100000Y77180000D01*
X3750000Y77180000D01*
X3750000Y76980000D01*
G37*
G36*
X3750000Y76580000D02*
G01*
X3100000Y76580000D01*
X3100000Y76780000D01*
X3750000Y76780000D01*
X3750000Y76580000D01*
G37*
G36*
X3750000Y76180000D02*
G01*
X3100000Y76180000D01*
X3100000Y76380000D01*
X3750000Y76380000D01*
X3750000Y76180000D01*
G37*
G36*
X3750000Y75780000D02*
G01*
X3100000Y75780000D01*
X3100000Y75980000D01*
X3750000Y75980000D01*
X3750000Y75780000D01*
G37*
G36*
X3750000Y75380000D02*
G01*
X3100000Y75380000D01*
X3100000Y75580000D01*
X3750000Y75580000D01*
X3750000Y75380000D01*
G37*
G36*
X3750000Y74980000D02*
G01*
X3100000Y74980000D01*
X3100000Y75180000D01*
X3750000Y75180000D01*
X3750000Y74980000D01*
G37*
G36*
X3750000Y74580000D02*
G01*
X3100000Y74580000D01*
X3100000Y74780000D01*
X3750000Y74780000D01*
X3750000Y74580000D01*
G37*
G36*
X3750000Y74180000D02*
G01*
X3100000Y74180000D01*
X3100000Y74380000D01*
X3750000Y74380000D01*
X3750000Y74180000D01*
G37*
G36*
X3750000Y73780000D02*
G01*
X3100000Y73780000D01*
X3100000Y73980000D01*
X3750000Y73980000D01*
X3750000Y73780000D01*
G37*
G36*
X3750000Y73380000D02*
G01*
X3100000Y73380000D01*
X3100000Y73580000D01*
X3750000Y73580000D01*
X3750000Y73380000D01*
G37*
G36*
X3750000Y72980000D02*
G01*
X3100000Y72980000D01*
X3100000Y73180000D01*
X3750000Y73180000D01*
X3750000Y72980000D01*
G37*
G36*
X3750000Y72580000D02*
G01*
X3100000Y72580000D01*
X3100000Y72780000D01*
X3750000Y72780000D01*
X3750000Y72580000D01*
G37*
G36*
X3750000Y72180000D02*
G01*
X3100000Y72180000D01*
X3100000Y72380000D01*
X3750000Y72380000D01*
X3750000Y72180000D01*
G37*
G36*
X56400000Y77780000D02*
G01*
X55750000Y77780000D01*
X55750000Y77980000D01*
X56400000Y77980000D01*
X56400000Y77780000D01*
G37*
G36*
X56400000Y77380000D02*
G01*
X55750000Y77380000D01*
X55750000Y77580000D01*
X56400000Y77580000D01*
X56400000Y77380000D01*
G37*
G36*
X56400000Y76980000D02*
G01*
X55750000Y76980000D01*
X55750000Y77180000D01*
X56400000Y77180000D01*
X56400000Y76980000D01*
G37*
G36*
X56400000Y76580000D02*
G01*
X55750000Y76580000D01*
X55750000Y76780000D01*
X56400000Y76780000D01*
X56400000Y76580000D01*
G37*
G36*
X56400000Y76180000D02*
G01*
X55750000Y76180000D01*
X55750000Y76380000D01*
X56400000Y76380000D01*
X56400000Y76180000D01*
G37*
G36*
X56400000Y75780000D02*
G01*
X55750000Y75780000D01*
X55750000Y75980000D01*
X56400000Y75980000D01*
X56400000Y75780000D01*
G37*
G36*
X56400000Y75380000D02*
G01*
X55750000Y75380000D01*
X55750000Y75580000D01*
X56400000Y75580000D01*
X56400000Y75380000D01*
G37*
G36*
X56400000Y74980000D02*
G01*
X55750000Y74980000D01*
X55750000Y75180000D01*
X56400000Y75180000D01*
X56400000Y74980000D01*
G37*
G36*
X56400000Y74580000D02*
G01*
X55750000Y74580000D01*
X55750000Y74780000D01*
X56400000Y74780000D01*
X56400000Y74580000D01*
G37*
G36*
X56400000Y74180000D02*
G01*
X55750000Y74180000D01*
X55750000Y74380000D01*
X56400000Y74380000D01*
X56400000Y74180000D01*
G37*
G36*
X56400000Y73780000D02*
G01*
X55750000Y73780000D01*
X55750000Y73980000D01*
X56400000Y73980000D01*
X56400000Y73780000D01*
G37*
G36*
X56400000Y73380000D02*
G01*
X55750000Y73380000D01*
X55750000Y73580000D01*
X56400000Y73580000D01*
X56400000Y73380000D01*
G37*
G36*
X56400000Y72980000D02*
G01*
X55750000Y72980000D01*
X55750000Y73180000D01*
X56400000Y73180000D01*
X56400000Y72980000D01*
G37*
G36*
X56400000Y72580000D02*
G01*
X55750000Y72580000D01*
X55750000Y72780000D01*
X56400000Y72780000D01*
X56400000Y72580000D01*
G37*
G36*
X56400000Y72180000D02*
G01*
X55750000Y72180000D01*
X55750000Y72380000D01*
X56400000Y72380000D01*
X56400000Y72180000D01*
G37*
G36*
X56800000Y78180000D02*
G01*
X56600000Y78180000D01*
X56600000Y78830000D01*
X56800000Y78830000D01*
X56800000Y78180000D01*
G37*
G36*
X56800000Y71330000D02*
G01*
X56600000Y71330000D01*
X56600000Y71980000D01*
X56800000Y71980000D01*
X56800000Y71330000D01*
G37*
G36*
X57200000Y78180000D02*
G01*
X57000000Y78180000D01*
X57000000Y78830000D01*
X57200000Y78830000D01*
X57200000Y78180000D01*
G37*
G36*
X57200000Y71330000D02*
G01*
X57000000Y71330000D01*
X57000000Y71980000D01*
X57200000Y71980000D01*
X57200000Y71330000D01*
G37*
G36*
X57600000Y78180000D02*
G01*
X57400000Y78180000D01*
X57400000Y78830000D01*
X57600000Y78830000D01*
X57600000Y78180000D01*
G37*
G36*
X57600000Y71330000D02*
G01*
X57400000Y71330000D01*
X57400000Y71980000D01*
X57600000Y71980000D01*
X57600000Y71330000D01*
G37*
G36*
X58000000Y78180000D02*
G01*
X57800000Y78180000D01*
X57800000Y78830000D01*
X58000000Y78830000D01*
X58000000Y78180000D01*
G37*
G36*
X58000000Y71330000D02*
G01*
X57800000Y71330000D01*
X57800000Y71980000D01*
X58000000Y71980000D01*
X58000000Y71330000D01*
G37*
G36*
X58400000Y78180000D02*
G01*
X58200000Y78180000D01*
X58200000Y78830000D01*
X58400000Y78830000D01*
X58400000Y78180000D01*
G37*
G36*
X58400000Y71330000D02*
G01*
X58200000Y71330000D01*
X58200000Y71980000D01*
X58400000Y71980000D01*
X58400000Y71330000D01*
G37*
G36*
X58800000Y78180000D02*
G01*
X58600000Y78180000D01*
X58600000Y78830000D01*
X58800000Y78830000D01*
X58800000Y78180000D01*
G37*
G36*
X58800000Y71330000D02*
G01*
X58600000Y71330000D01*
X58600000Y71980000D01*
X58800000Y71980000D01*
X58800000Y71330000D01*
G37*
G36*
X59200000Y78180000D02*
G01*
X59000000Y78180000D01*
X59000000Y78830000D01*
X59200000Y78830000D01*
X59200000Y78180000D01*
G37*
G36*
X59100000Y75480000D02*
G01*
X58500000Y75480000D01*
X58500000Y76080000D01*
X59100000Y76080000D01*
X59100000Y75480000D01*
G37*
G36*
X59100000Y74080000D02*
G01*
X58500000Y74080000D01*
X58500000Y74680000D01*
X59100000Y74680000D01*
X59100000Y74080000D01*
G37*
G36*
X59200000Y71330000D02*
G01*
X59000000Y71330000D01*
X59000000Y71980000D01*
X59200000Y71980000D01*
X59200000Y71330000D01*
G37*
G36*
X59600000Y78180000D02*
G01*
X59400000Y78180000D01*
X59400000Y78830000D01*
X59600000Y78830000D01*
X59600000Y78180000D01*
G37*
G36*
X59600000Y71330000D02*
G01*
X59400000Y71330000D01*
X59400000Y71980000D01*
X59600000Y71980000D01*
X59600000Y71330000D01*
G37*
G36*
X60000000Y78180000D02*
G01*
X59800000Y78180000D01*
X59800000Y78830000D01*
X60000000Y78830000D01*
X60000000Y78180000D01*
G37*
G36*
X60000000Y71330000D02*
G01*
X59800000Y71330000D01*
X59800000Y71980000D01*
X60000000Y71980000D01*
X60000000Y71330000D01*
G37*
G36*
X60400000Y78180000D02*
G01*
X60200000Y78180000D01*
X60200000Y78830000D01*
X60400000Y78830000D01*
X60400000Y78180000D01*
G37*
G36*
X60400000Y71330000D02*
G01*
X60200000Y71330000D01*
X60200000Y71980000D01*
X60400000Y71980000D01*
X60400000Y71330000D01*
G37*
G36*
X60500000Y75480000D02*
G01*
X59900000Y75480000D01*
X59900000Y76080000D01*
X60500000Y76080000D01*
X60500000Y75480000D01*
G37*
G36*
X60500000Y74080000D02*
G01*
X59900000Y74080000D01*
X59900000Y74680000D01*
X60500000Y74680000D01*
X60500000Y74080000D01*
G37*
G36*
X60800000Y78180000D02*
G01*
X60600000Y78180000D01*
X60600000Y78830000D01*
X60800000Y78830000D01*
X60800000Y78180000D01*
G37*
G36*
X60800000Y71330000D02*
G01*
X60600000Y71330000D01*
X60600000Y71980000D01*
X60800000Y71980000D01*
X60800000Y71330000D01*
G37*
G36*
X61200000Y78180000D02*
G01*
X61000000Y78180000D01*
X61000000Y78830000D01*
X61200000Y78830000D01*
X61200000Y78180000D01*
G37*
G36*
X61200000Y71330000D02*
G01*
X61000000Y71330000D01*
X61000000Y71980000D01*
X61200000Y71980000D01*
X61200000Y71330000D01*
G37*
G36*
X61600000Y78180000D02*
G01*
X61400000Y78180000D01*
X61400000Y78830000D01*
X61600000Y78830000D01*
X61600000Y78180000D01*
G37*
G36*
X61600000Y71330000D02*
G01*
X61400000Y71330000D01*
X61400000Y71980000D01*
X61600000Y71980000D01*
X61600000Y71330000D01*
G37*
G36*
X62000000Y78180000D02*
G01*
X61800000Y78180000D01*
X61800000Y78830000D01*
X62000000Y78830000D01*
X62000000Y78180000D01*
G37*
G36*
X62000000Y71330000D02*
G01*
X61800000Y71330000D01*
X61800000Y71980000D01*
X62000000Y71980000D01*
X62000000Y71330000D01*
G37*
G36*
X62400000Y78180000D02*
G01*
X62200000Y78180000D01*
X62200000Y78830000D01*
X62400000Y78830000D01*
X62400000Y78180000D01*
G37*
G36*
X62400000Y71330000D02*
G01*
X62200000Y71330000D01*
X62200000Y71980000D01*
X62400000Y71980000D01*
X62400000Y71330000D01*
G37*
G36*
X63250000Y77780000D02*
G01*
X62600000Y77780000D01*
X62600000Y77980000D01*
X63250000Y77980000D01*
X63250000Y77780000D01*
G37*
G36*
X63250000Y77380000D02*
G01*
X62600000Y77380000D01*
X62600000Y77580000D01*
X63250000Y77580000D01*
X63250000Y77380000D01*
G37*
G36*
X63250000Y76980000D02*
G01*
X62600000Y76980000D01*
X62600000Y77180000D01*
X63250000Y77180000D01*
X63250000Y76980000D01*
G37*
G36*
X63250000Y76580000D02*
G01*
X62600000Y76580000D01*
X62600000Y76780000D01*
X63250000Y76780000D01*
X63250000Y76580000D01*
G37*
G36*
X63250000Y76180000D02*
G01*
X62600000Y76180000D01*
X62600000Y76380000D01*
X63250000Y76380000D01*
X63250000Y76180000D01*
G37*
G36*
X63250000Y75780000D02*
G01*
X62600000Y75780000D01*
X62600000Y75980000D01*
X63250000Y75980000D01*
X63250000Y75780000D01*
G37*
G36*
X63250000Y75380000D02*
G01*
X62600000Y75380000D01*
X62600000Y75580000D01*
X63250000Y75580000D01*
X63250000Y75380000D01*
G37*
G36*
X63250000Y74980000D02*
G01*
X62600000Y74980000D01*
X62600000Y75180000D01*
X63250000Y75180000D01*
X63250000Y74980000D01*
G37*
G36*
X63250000Y74580000D02*
G01*
X62600000Y74580000D01*
X62600000Y74780000D01*
X63250000Y74780000D01*
X63250000Y74580000D01*
G37*
G36*
X63250000Y74180000D02*
G01*
X62600000Y74180000D01*
X62600000Y74380000D01*
X63250000Y74380000D01*
X63250000Y74180000D01*
G37*
G36*
X63250000Y73780000D02*
G01*
X62600000Y73780000D01*
X62600000Y73980000D01*
X63250000Y73980000D01*
X63250000Y73780000D01*
G37*
G36*
X63250000Y73380000D02*
G01*
X62600000Y73380000D01*
X62600000Y73580000D01*
X63250000Y73580000D01*
X63250000Y73380000D01*
G37*
G36*
X63250000Y72980000D02*
G01*
X62600000Y72980000D01*
X62600000Y73180000D01*
X63250000Y73180000D01*
X63250000Y72980000D01*
G37*
G36*
X63250000Y72580000D02*
G01*
X62600000Y72580000D01*
X62600000Y72780000D01*
X63250000Y72780000D01*
X63250000Y72580000D01*
G37*
G36*
X63250000Y72180000D02*
G01*
X62600000Y72180000D01*
X62600000Y72380000D01*
X63250000Y72380000D01*
X63250000Y72180000D01*
G37*
G36*
X-3100000Y-7300000D02*
G01*
X-3750000Y-7300000D01*
X-3750000Y-7100000D01*
X-3100000Y-7100000D01*
X-3100000Y-7300000D01*
G37*
G36*
X-3100000Y-7700000D02*
G01*
X-3750000Y-7700000D01*
X-3750000Y-7500000D01*
X-3100000Y-7500000D01*
X-3100000Y-7700000D01*
G37*
G36*
X-3100000Y-8100000D02*
G01*
X-3750000Y-8100000D01*
X-3750000Y-7900000D01*
X-3100000Y-7900000D01*
X-3100000Y-8100000D01*
G37*
G36*
X-3100000Y-8500000D02*
G01*
X-3750000Y-8500000D01*
X-3750000Y-8300000D01*
X-3100000Y-8300000D01*
X-3100000Y-8500000D01*
G37*
G36*
X-3100000Y-8900000D02*
G01*
X-3750000Y-8900000D01*
X-3750000Y-8700000D01*
X-3100000Y-8700000D01*
X-3100000Y-8900000D01*
G37*
G36*
X-3100000Y-9300000D02*
G01*
X-3750000Y-9300000D01*
X-3750000Y-9100000D01*
X-3100000Y-9100000D01*
X-3100000Y-9300000D01*
G37*
G36*
X-3100000Y-9700000D02*
G01*
X-3750000Y-9700000D01*
X-3750000Y-9500000D01*
X-3100000Y-9500000D01*
X-3100000Y-9700000D01*
G37*
G36*
X-3100000Y-10100000D02*
G01*
X-3750000Y-10100000D01*
X-3750000Y-9900000D01*
X-3100000Y-9900000D01*
X-3100000Y-10100000D01*
G37*
G36*
X-3100000Y-10500000D02*
G01*
X-3750000Y-10500000D01*
X-3750000Y-10300000D01*
X-3100000Y-10300000D01*
X-3100000Y-10500000D01*
G37*
G36*
X-3100000Y-10900000D02*
G01*
X-3750000Y-10900000D01*
X-3750000Y-10700000D01*
X-3100000Y-10700000D01*
X-3100000Y-10900000D01*
G37*
G36*
X-3100000Y-11300000D02*
G01*
X-3750000Y-11300000D01*
X-3750000Y-11100000D01*
X-3100000Y-11100000D01*
X-3100000Y-11300000D01*
G37*
G36*
X-3100000Y-11700000D02*
G01*
X-3750000Y-11700000D01*
X-3750000Y-11500000D01*
X-3100000Y-11500000D01*
X-3100000Y-11700000D01*
G37*
G36*
X-3100000Y-12100000D02*
G01*
X-3750000Y-12100000D01*
X-3750000Y-11900000D01*
X-3100000Y-11900000D01*
X-3100000Y-12100000D01*
G37*
G36*
X-3100000Y-12500000D02*
G01*
X-3750000Y-12500000D01*
X-3750000Y-12300000D01*
X-3100000Y-12300000D01*
X-3100000Y-12500000D01*
G37*
G36*
X-3100000Y-12900000D02*
G01*
X-3750000Y-12900000D01*
X-3750000Y-12700000D01*
X-3100000Y-12700000D01*
X-3100000Y-12900000D01*
G37*
G36*
X-2700000Y-6900000D02*
G01*
X-2900000Y-6900000D01*
X-2900000Y-6250000D01*
X-2700000Y-6250000D01*
X-2700000Y-6900000D01*
G37*
G36*
X-2700000Y-13750000D02*
G01*
X-2900000Y-13750000D01*
X-2900000Y-13100000D01*
X-2700000Y-13100000D01*
X-2700000Y-13750000D01*
G37*
G36*
X-2300000Y-6900000D02*
G01*
X-2500000Y-6900000D01*
X-2500000Y-6250000D01*
X-2300000Y-6250000D01*
X-2300000Y-6900000D01*
G37*
G36*
X-2300000Y-13750000D02*
G01*
X-2500000Y-13750000D01*
X-2500000Y-13100000D01*
X-2300000Y-13100000D01*
X-2300000Y-13750000D01*
G37*
G36*
X-1900000Y-6900000D02*
G01*
X-2100000Y-6900000D01*
X-2100000Y-6250000D01*
X-1900000Y-6250000D01*
X-1900000Y-6900000D01*
G37*
G36*
X-1900000Y-13750000D02*
G01*
X-2100000Y-13750000D01*
X-2100000Y-13100000D01*
X-1900000Y-13100000D01*
X-1900000Y-13750000D01*
G37*
G36*
X-1500000Y-6900000D02*
G01*
X-1700000Y-6900000D01*
X-1700000Y-6250000D01*
X-1500000Y-6250000D01*
X-1500000Y-6900000D01*
G37*
G36*
X-1500000Y-13750000D02*
G01*
X-1700000Y-13750000D01*
X-1700000Y-13100000D01*
X-1500000Y-13100000D01*
X-1500000Y-13750000D01*
G37*
G36*
X-1100000Y-6900000D02*
G01*
X-1300000Y-6900000D01*
X-1300000Y-6250000D01*
X-1100000Y-6250000D01*
X-1100000Y-6900000D01*
G37*
G36*
X-1100000Y-13750000D02*
G01*
X-1300000Y-13750000D01*
X-1300000Y-13100000D01*
X-1100000Y-13100000D01*
X-1100000Y-13750000D01*
G37*
G36*
X-700000Y-6900000D02*
G01*
X-900000Y-6900000D01*
X-900000Y-6250000D01*
X-700000Y-6250000D01*
X-700000Y-6900000D01*
G37*
G36*
X-700000Y-13750000D02*
G01*
X-900000Y-13750000D01*
X-900000Y-13100000D01*
X-700000Y-13100000D01*
X-700000Y-13750000D01*
G37*
G36*
X-300000Y-6900000D02*
G01*
X-500000Y-6900000D01*
X-500000Y-6250000D01*
X-300000Y-6250000D01*
X-300000Y-6900000D01*
G37*
G36*
X-400000Y-9600000D02*
G01*
X-1000000Y-9600000D01*
X-1000000Y-9000000D01*
X-400000Y-9000000D01*
X-400000Y-9600000D01*
G37*
G36*
X-400000Y-11000000D02*
G01*
X-1000000Y-11000000D01*
X-1000000Y-10400000D01*
X-400000Y-10400000D01*
X-400000Y-11000000D01*
G37*
G36*
X-300000Y-13750000D02*
G01*
X-500000Y-13750000D01*
X-500000Y-13100000D01*
X-300000Y-13100000D01*
X-300000Y-13750000D01*
G37*
G36*
X100000Y-6900000D02*
G01*
X-100000Y-6900000D01*
X-100000Y-6250000D01*
X100000Y-6250000D01*
X100000Y-6900000D01*
G37*
G36*
X100000Y-13750000D02*
G01*
X-100000Y-13750000D01*
X-100000Y-13100000D01*
X100000Y-13100000D01*
X100000Y-13750000D01*
G37*
G36*
X500000Y-6900000D02*
G01*
X300000Y-6900000D01*
X300000Y-6250000D01*
X500000Y-6250000D01*
X500000Y-6900000D01*
G37*
G36*
X500000Y-13750000D02*
G01*
X300000Y-13750000D01*
X300000Y-13100000D01*
X500000Y-13100000D01*
X500000Y-13750000D01*
G37*
G36*
X900000Y-6900000D02*
G01*
X700000Y-6900000D01*
X700000Y-6250000D01*
X900000Y-6250000D01*
X900000Y-6900000D01*
G37*
G36*
X900000Y-13750000D02*
G01*
X700000Y-13750000D01*
X700000Y-13100000D01*
X900000Y-13100000D01*
X900000Y-13750000D01*
G37*
G36*
X1000000Y-9600000D02*
G01*
X400000Y-9600000D01*
X400000Y-9000000D01*
X1000000Y-9000000D01*
X1000000Y-9600000D01*
G37*
G36*
X1000000Y-11000000D02*
G01*
X400000Y-11000000D01*
X400000Y-10400000D01*
X1000000Y-10400000D01*
X1000000Y-11000000D01*
G37*
G36*
X1300000Y-6900000D02*
G01*
X1100000Y-6900000D01*
X1100000Y-6250000D01*
X1300000Y-6250000D01*
X1300000Y-6900000D01*
G37*
G36*
X1300000Y-13750000D02*
G01*
X1100000Y-13750000D01*
X1100000Y-13100000D01*
X1300000Y-13100000D01*
X1300000Y-13750000D01*
G37*
G36*
X1700000Y-6900000D02*
G01*
X1500000Y-6900000D01*
X1500000Y-6250000D01*
X1700000Y-6250000D01*
X1700000Y-6900000D01*
G37*
G36*
X1700000Y-13750000D02*
G01*
X1500000Y-13750000D01*
X1500000Y-13100000D01*
X1700000Y-13100000D01*
X1700000Y-13750000D01*
G37*
G36*
X2100000Y-6900000D02*
G01*
X1900000Y-6900000D01*
X1900000Y-6250000D01*
X2100000Y-6250000D01*
X2100000Y-6900000D01*
G37*
G36*
X2100000Y-13750000D02*
G01*
X1900000Y-13750000D01*
X1900000Y-13100000D01*
X2100000Y-13100000D01*
X2100000Y-13750000D01*
G37*
G36*
X2500000Y-6900000D02*
G01*
X2300000Y-6900000D01*
X2300000Y-6250000D01*
X2500000Y-6250000D01*
X2500000Y-6900000D01*
G37*
G36*
X2500000Y-13750000D02*
G01*
X2300000Y-13750000D01*
X2300000Y-13100000D01*
X2500000Y-13100000D01*
X2500000Y-13750000D01*
G37*
G36*
X2900000Y-6900000D02*
G01*
X2700000Y-6900000D01*
X2700000Y-6250000D01*
X2900000Y-6250000D01*
X2900000Y-6900000D01*
G37*
G36*
X2900000Y-13750000D02*
G01*
X2700000Y-13750000D01*
X2700000Y-13100000D01*
X2900000Y-13100000D01*
X2900000Y-13750000D01*
G37*
G36*
X3750000Y-7300000D02*
G01*
X3100000Y-7300000D01*
X3100000Y-7100000D01*
X3750000Y-7100000D01*
X3750000Y-7300000D01*
G37*
G36*
X3750000Y-7700000D02*
G01*
X3100000Y-7700000D01*
X3100000Y-7500000D01*
X3750000Y-7500000D01*
X3750000Y-7700000D01*
G37*
G36*
X3750000Y-8100000D02*
G01*
X3100000Y-8100000D01*
X3100000Y-7900000D01*
X3750000Y-7900000D01*
X3750000Y-8100000D01*
G37*
G36*
X3750000Y-8500000D02*
G01*
X3100000Y-8500000D01*
X3100000Y-8300000D01*
X3750000Y-8300000D01*
X3750000Y-8500000D01*
G37*
G36*
X3750000Y-8900000D02*
G01*
X3100000Y-8900000D01*
X3100000Y-8700000D01*
X3750000Y-8700000D01*
X3750000Y-8900000D01*
G37*
G36*
X3750000Y-9300000D02*
G01*
X3100000Y-9300000D01*
X3100000Y-9100000D01*
X3750000Y-9100000D01*
X3750000Y-9300000D01*
G37*
G36*
X3750000Y-9700000D02*
G01*
X3100000Y-9700000D01*
X3100000Y-9500000D01*
X3750000Y-9500000D01*
X3750000Y-9700000D01*
G37*
G36*
X3750000Y-10100000D02*
G01*
X3100000Y-10100000D01*
X3100000Y-9900000D01*
X3750000Y-9900000D01*
X3750000Y-10100000D01*
G37*
G36*
X3750000Y-10500000D02*
G01*
X3100000Y-10500000D01*
X3100000Y-10300000D01*
X3750000Y-10300000D01*
X3750000Y-10500000D01*
G37*
G36*
X3750000Y-10900000D02*
G01*
X3100000Y-10900000D01*
X3100000Y-10700000D01*
X3750000Y-10700000D01*
X3750000Y-10900000D01*
G37*
G36*
X3750000Y-11300000D02*
G01*
X3100000Y-11300000D01*
X3100000Y-11100000D01*
X3750000Y-11100000D01*
X3750000Y-11300000D01*
G37*
G36*
X3750000Y-11700000D02*
G01*
X3100000Y-11700000D01*
X3100000Y-11500000D01*
X3750000Y-11500000D01*
X3750000Y-11700000D01*
G37*
G36*
X3750000Y-12100000D02*
G01*
X3100000Y-12100000D01*
X3100000Y-11900000D01*
X3750000Y-11900000D01*
X3750000Y-12100000D01*
G37*
G36*
X3750000Y-12500000D02*
G01*
X3100000Y-12500000D01*
X3100000Y-12300000D01*
X3750000Y-12300000D01*
X3750000Y-12500000D01*
G37*
G36*
X3750000Y-12900000D02*
G01*
X3100000Y-12900000D01*
X3100000Y-12700000D01*
X3750000Y-12700000D01*
X3750000Y-12900000D01*
G37*
%TO.C,U3*%
G36*
X65900000Y-21850000D02*
G01*
X65600000Y-21850000D01*
X65600000Y-21650000D01*
X65900000Y-21650000D01*
X65900000Y-21850000D01*
G37*
G36*
X65900000Y-22350000D02*
G01*
X65600000Y-22350000D01*
X65600000Y-22150000D01*
X65900000Y-22150000D01*
X65900000Y-22350000D01*
G37*
G36*
X65900000Y-22850000D02*
G01*
X65600000Y-22850000D01*
X65600000Y-22650000D01*
X65900000Y-22650000D01*
X65900000Y-22850000D01*
G37*
G36*
X65900000Y-23350000D02*
G01*
X65600000Y-23350000D01*
X65600000Y-23150000D01*
X65900000Y-23150000D01*
X65900000Y-23350000D01*
G37*
G36*
X67100000Y-23100000D02*
G01*
X66900000Y-23100000D01*
X66900000Y-21900000D01*
X67100000Y-21900000D01*
X67100000Y-23100000D01*
G37*
G36*
X68400000Y-21850000D02*
G01*
X68100000Y-21850000D01*
X68100000Y-21650000D01*
X68400000Y-21650000D01*
X68400000Y-21850000D01*
G37*
G36*
X68400000Y-22350000D02*
G01*
X68100000Y-22350000D01*
X68100000Y-22150000D01*
X68400000Y-22150000D01*
X68400000Y-22350000D01*
G37*
G36*
X68400000Y-22850000D02*
G01*
X68100000Y-22850000D01*
X68100000Y-22650000D01*
X68400000Y-22650000D01*
X68400000Y-22850000D01*
G37*
G36*
X68400000Y-23350000D02*
G01*
X68100000Y-23350000D01*
X68100000Y-23150000D01*
X68400000Y-23150000D01*
X68400000Y-23350000D01*
G37*
G36*
X6400000Y63230000D02*
G01*
X6100000Y63230000D01*
X6100000Y63430000D01*
X6400000Y63430000D01*
X6400000Y63230000D01*
G37*
G36*
X6400000Y62730000D02*
G01*
X6100000Y62730000D01*
X6100000Y62930000D01*
X6400000Y62930000D01*
X6400000Y62730000D01*
G37*
G36*
X6400000Y62230000D02*
G01*
X6100000Y62230000D01*
X6100000Y62430000D01*
X6400000Y62430000D01*
X6400000Y62230000D01*
G37*
G36*
X6400000Y61730000D02*
G01*
X6100000Y61730000D01*
X6100000Y61930000D01*
X6400000Y61930000D01*
X6400000Y61730000D01*
G37*
G36*
X7600000Y61980000D02*
G01*
X7400000Y61980000D01*
X7400000Y63180000D01*
X7600000Y63180000D01*
X7600000Y61980000D01*
G37*
G36*
X8900000Y63230000D02*
G01*
X8600000Y63230000D01*
X8600000Y63430000D01*
X8900000Y63430000D01*
X8900000Y63230000D01*
G37*
G36*
X8900000Y62730000D02*
G01*
X8600000Y62730000D01*
X8600000Y62930000D01*
X8900000Y62930000D01*
X8900000Y62730000D01*
G37*
G36*
X8900000Y62230000D02*
G01*
X8600000Y62230000D01*
X8600000Y62430000D01*
X8900000Y62430000D01*
X8900000Y62230000D01*
G37*
G36*
X8900000Y61730000D02*
G01*
X8600000Y61730000D01*
X8600000Y61930000D01*
X8900000Y61930000D01*
X8900000Y61730000D01*
G37*
G36*
X65900000Y63230000D02*
G01*
X65600000Y63230000D01*
X65600000Y63430000D01*
X65900000Y63430000D01*
X65900000Y63230000D01*
G37*
G36*
X65900000Y62730000D02*
G01*
X65600000Y62730000D01*
X65600000Y62930000D01*
X65900000Y62930000D01*
X65900000Y62730000D01*
G37*
G36*
X65900000Y62230000D02*
G01*
X65600000Y62230000D01*
X65600000Y62430000D01*
X65900000Y62430000D01*
X65900000Y62230000D01*
G37*
G36*
X65900000Y61730000D02*
G01*
X65600000Y61730000D01*
X65600000Y61930000D01*
X65900000Y61930000D01*
X65900000Y61730000D01*
G37*
G36*
X67100000Y61980000D02*
G01*
X66900000Y61980000D01*
X66900000Y63180000D01*
X67100000Y63180000D01*
X67100000Y61980000D01*
G37*
G36*
X68400000Y63230000D02*
G01*
X68100000Y63230000D01*
X68100000Y63430000D01*
X68400000Y63430000D01*
X68400000Y63230000D01*
G37*
G36*
X68400000Y62730000D02*
G01*
X68100000Y62730000D01*
X68100000Y62930000D01*
X68400000Y62930000D01*
X68400000Y62730000D01*
G37*
G36*
X68400000Y62230000D02*
G01*
X68100000Y62230000D01*
X68100000Y62430000D01*
X68400000Y62430000D01*
X68400000Y62230000D01*
G37*
G36*
X68400000Y61730000D02*
G01*
X68100000Y61730000D01*
X68100000Y61930000D01*
X68400000Y61930000D01*
X68400000Y61730000D01*
G37*
G36*
X6400000Y-21850000D02*
G01*
X6100000Y-21850000D01*
X6100000Y-21650000D01*
X6400000Y-21650000D01*
X6400000Y-21850000D01*
G37*
G36*
X6400000Y-22350000D02*
G01*
X6100000Y-22350000D01*
X6100000Y-22150000D01*
X6400000Y-22150000D01*
X6400000Y-22350000D01*
G37*
G36*
X6400000Y-22850000D02*
G01*
X6100000Y-22850000D01*
X6100000Y-22650000D01*
X6400000Y-22650000D01*
X6400000Y-22850000D01*
G37*
G36*
X6400000Y-23350000D02*
G01*
X6100000Y-23350000D01*
X6100000Y-23150000D01*
X6400000Y-23150000D01*
X6400000Y-23350000D01*
G37*
G36*
X7600000Y-23100000D02*
G01*
X7400000Y-23100000D01*
X7400000Y-21900000D01*
X7600000Y-21900000D01*
X7600000Y-23100000D01*
G37*
G36*
X8900000Y-21850000D02*
G01*
X8600000Y-21850000D01*
X8600000Y-21650000D01*
X8900000Y-21650000D01*
X8900000Y-21850000D01*
G37*
G36*
X8900000Y-22350000D02*
G01*
X8600000Y-22350000D01*
X8600000Y-22150000D01*
X8900000Y-22150000D01*
X8900000Y-22350000D01*
G37*
G36*
X8900000Y-22850000D02*
G01*
X8600000Y-22850000D01*
X8600000Y-22650000D01*
X8900000Y-22650000D01*
X8900000Y-22850000D01*
G37*
G36*
X8900000Y-23350000D02*
G01*
X8600000Y-23350000D01*
X8600000Y-23150000D01*
X8900000Y-23150000D01*
X8900000Y-23350000D01*
G37*
%TO.C,U2*%
G36*
X67400000Y-17900000D02*
G01*
X66600000Y-17900000D01*
X66600000Y-17100000D01*
X67400000Y-17100000D01*
X67400000Y-17900000D01*
G37*
G36*
X7900000Y67180000D02*
G01*
X7100000Y67180000D01*
X7100000Y67980000D01*
X7900000Y67980000D01*
X7900000Y67180000D01*
G37*
G36*
X67400000Y67180000D02*
G01*
X66600000Y67180000D01*
X66600000Y67980000D01*
X67400000Y67980000D01*
X67400000Y67180000D01*
G37*
G36*
X7900000Y-17900000D02*
G01*
X7100000Y-17900000D01*
X7100000Y-17100000D01*
X7900000Y-17100000D01*
X7900000Y-17900000D01*
G37*
%TO.C,U9*%
G36*
X-15625000Y63780000D02*
G01*
X-15875000Y63780000D01*
X-15875000Y64417500D01*
X-15625000Y64417500D01*
X-15625000Y63780000D01*
G37*
G36*
X-15625000Y61742500D02*
G01*
X-15875000Y61742500D01*
X-15875000Y62380000D01*
X-15625000Y62380000D01*
X-15625000Y61742500D01*
G37*
G36*
X-15125000Y63780000D02*
G01*
X-15375000Y63780000D01*
X-15375000Y64417500D01*
X-15125000Y64417500D01*
X-15125000Y63780000D01*
G37*
G36*
X-15125000Y61742500D02*
G01*
X-15375000Y61742500D01*
X-15375000Y62380000D01*
X-15125000Y62380000D01*
X-15125000Y61742500D01*
G37*
G36*
X-15090000Y62760000D02*
G01*
X-15590000Y62760000D01*
X-15590000Y63400000D01*
X-15090000Y63400000D01*
X-15090000Y62760000D01*
G37*
G36*
X-14625000Y63780000D02*
G01*
X-14875000Y63780000D01*
X-14875000Y64417500D01*
X-14625000Y64417500D01*
X-14625000Y63780000D01*
G37*
G36*
X-14625000Y61742500D02*
G01*
X-14875000Y61742500D01*
X-14875000Y62380000D01*
X-14625000Y62380000D01*
X-14625000Y61742500D01*
G37*
G36*
X-14410000Y62760000D02*
G01*
X-14910000Y62760000D01*
X-14910000Y63400000D01*
X-14410000Y63400000D01*
X-14410000Y62760000D01*
G37*
G36*
X-14125000Y63780000D02*
G01*
X-14375000Y63780000D01*
X-14375000Y64417500D01*
X-14125000Y64417500D01*
X-14125000Y63780000D01*
G37*
G36*
X-14125000Y61742500D02*
G01*
X-14375000Y61742500D01*
X-14375000Y62380000D01*
X-14125000Y62380000D01*
X-14125000Y61742500D01*
G37*
G36*
X43875000Y63780000D02*
G01*
X43625000Y63780000D01*
X43625000Y64417500D01*
X43875000Y64417500D01*
X43875000Y63780000D01*
G37*
G36*
X43875000Y61742500D02*
G01*
X43625000Y61742500D01*
X43625000Y62380000D01*
X43875000Y62380000D01*
X43875000Y61742500D01*
G37*
G36*
X44375000Y63780000D02*
G01*
X44125000Y63780000D01*
X44125000Y64417500D01*
X44375000Y64417500D01*
X44375000Y63780000D01*
G37*
G36*
X44375000Y61742500D02*
G01*
X44125000Y61742500D01*
X44125000Y62380000D01*
X44375000Y62380000D01*
X44375000Y61742500D01*
G37*
G36*
X44410000Y62760000D02*
G01*
X43910000Y62760000D01*
X43910000Y63400000D01*
X44410000Y63400000D01*
X44410000Y62760000D01*
G37*
G36*
X44875000Y63780000D02*
G01*
X44625000Y63780000D01*
X44625000Y64417500D01*
X44875000Y64417500D01*
X44875000Y63780000D01*
G37*
G36*
X44875000Y61742500D02*
G01*
X44625000Y61742500D01*
X44625000Y62380000D01*
X44875000Y62380000D01*
X44875000Y61742500D01*
G37*
G36*
X45090000Y62760000D02*
G01*
X44590000Y62760000D01*
X44590000Y63400000D01*
X45090000Y63400000D01*
X45090000Y62760000D01*
G37*
G36*
X45375000Y63780000D02*
G01*
X45125000Y63780000D01*
X45125000Y64417500D01*
X45375000Y64417500D01*
X45375000Y63780000D01*
G37*
G36*
X45375000Y61742500D02*
G01*
X45125000Y61742500D01*
X45125000Y62380000D01*
X45375000Y62380000D01*
X45375000Y61742500D01*
G37*
G36*
X43875000Y-21300000D02*
G01*
X43625000Y-21300000D01*
X43625000Y-20662500D01*
X43875000Y-20662500D01*
X43875000Y-21300000D01*
G37*
G36*
X43875000Y-23337500D02*
G01*
X43625000Y-23337500D01*
X43625000Y-22700000D01*
X43875000Y-22700000D01*
X43875000Y-23337500D01*
G37*
G36*
X44375000Y-21300000D02*
G01*
X44125000Y-21300000D01*
X44125000Y-20662500D01*
X44375000Y-20662500D01*
X44375000Y-21300000D01*
G37*
G36*
X44375000Y-23337500D02*
G01*
X44125000Y-23337500D01*
X44125000Y-22700000D01*
X44375000Y-22700000D01*
X44375000Y-23337500D01*
G37*
G36*
X44410000Y-22320000D02*
G01*
X43910000Y-22320000D01*
X43910000Y-21680000D01*
X44410000Y-21680000D01*
X44410000Y-22320000D01*
G37*
G36*
X44875000Y-21300000D02*
G01*
X44625000Y-21300000D01*
X44625000Y-20662500D01*
X44875000Y-20662500D01*
X44875000Y-21300000D01*
G37*
G36*
X44875000Y-23337500D02*
G01*
X44625000Y-23337500D01*
X44625000Y-22700000D01*
X44875000Y-22700000D01*
X44875000Y-23337500D01*
G37*
G36*
X45090000Y-22320000D02*
G01*
X44590000Y-22320000D01*
X44590000Y-21680000D01*
X45090000Y-21680000D01*
X45090000Y-22320000D01*
G37*
G36*
X45375000Y-21300000D02*
G01*
X45125000Y-21300000D01*
X45125000Y-20662500D01*
X45375000Y-20662500D01*
X45375000Y-21300000D01*
G37*
G36*
X45375000Y-23337500D02*
G01*
X45125000Y-23337500D01*
X45125000Y-22700000D01*
X45375000Y-22700000D01*
X45375000Y-23337500D01*
G37*
G36*
X-15625000Y-21300000D02*
G01*
X-15875000Y-21300000D01*
X-15875000Y-20662500D01*
X-15625000Y-20662500D01*
X-15625000Y-21300000D01*
G37*
G36*
X-15625000Y-23337500D02*
G01*
X-15875000Y-23337500D01*
X-15875000Y-22700000D01*
X-15625000Y-22700000D01*
X-15625000Y-23337500D01*
G37*
G36*
X-15125000Y-21300000D02*
G01*
X-15375000Y-21300000D01*
X-15375000Y-20662500D01*
X-15125000Y-20662500D01*
X-15125000Y-21300000D01*
G37*
G36*
X-15125000Y-23337500D02*
G01*
X-15375000Y-23337500D01*
X-15375000Y-22700000D01*
X-15125000Y-22700000D01*
X-15125000Y-23337500D01*
G37*
G36*
X-15090000Y-22320000D02*
G01*
X-15590000Y-22320000D01*
X-15590000Y-21680000D01*
X-15090000Y-21680000D01*
X-15090000Y-22320000D01*
G37*
G36*
X-14625000Y-21300000D02*
G01*
X-14875000Y-21300000D01*
X-14875000Y-20662500D01*
X-14625000Y-20662500D01*
X-14625000Y-21300000D01*
G37*
G36*
X-14625000Y-23337500D02*
G01*
X-14875000Y-23337500D01*
X-14875000Y-22700000D01*
X-14625000Y-22700000D01*
X-14625000Y-23337500D01*
G37*
G36*
X-14410000Y-22320000D02*
G01*
X-14910000Y-22320000D01*
X-14910000Y-21680000D01*
X-14410000Y-21680000D01*
X-14410000Y-22320000D01*
G37*
G36*
X-14125000Y-21300000D02*
G01*
X-14375000Y-21300000D01*
X-14375000Y-20662500D01*
X-14125000Y-20662500D01*
X-14125000Y-21300000D01*
G37*
G36*
X-14125000Y-23337500D02*
G01*
X-14375000Y-23337500D01*
X-14375000Y-22700000D01*
X-14125000Y-22700000D01*
X-14125000Y-23337500D01*
G37*
%TD*%
D11*
%TO.C,C2*%
X65775000Y80580000D03*
X64225000Y80580000D03*
%TD*%
%TO.C,C2*%
X65775000Y-4500000D03*
X64225000Y-4500000D03*
%TD*%
%TO.C,C2*%
X6275000Y80580000D03*
X4725000Y80580000D03*
%TD*%
%TO.C,C2*%
X6275000Y-4500000D03*
X4725000Y-4500000D03*
%TD*%
D12*
%TO.C,R24*%
X13000000Y88405000D03*
X13000000Y86755000D03*
%TD*%
%TO.C,R24*%
X72500000Y3325000D03*
X72500000Y1675000D03*
%TD*%
%TO.C,R24*%
X72500000Y88405000D03*
X72500000Y86755000D03*
%TD*%
%TO.C,R24*%
X13000000Y3325000D03*
X13000000Y1675000D03*
%TD*%
D13*
%TO.C,C29*%
X41500000Y68805000D03*
X41500000Y70355000D03*
%TD*%
%TO.C,C29*%
X-18000000Y68805000D03*
X-18000000Y70355000D03*
%TD*%
%TO.C,C29*%
X41500000Y-16275000D03*
X41500000Y-14725000D03*
%TD*%
%TO.C,C29*%
X-18000000Y-16275000D03*
X-18000000Y-14725000D03*
%TD*%
D14*
%TO.C,C21*%
X19225000Y111330000D03*
X20775000Y111330000D03*
%TD*%
%TO.C,C21*%
X78725000Y26250000D03*
X80275000Y26250000D03*
%TD*%
%TO.C,C21*%
X78725000Y111330000D03*
X80275000Y111330000D03*
%TD*%
%TO.C,C21*%
X19225000Y26250000D03*
X20775000Y26250000D03*
%TD*%
D15*
%TO.C,U8*%
X43199900Y-14550000D03*
X43199900Y-15500000D03*
X43199900Y-16450000D03*
X45800100Y-16450000D03*
X45800100Y-14550000D03*
%TD*%
%TO.C,U8*%
X43199900Y70530000D03*
X43199900Y69580000D03*
X43199900Y68630000D03*
X45800100Y68630000D03*
X45800100Y70530000D03*
%TD*%
%TO.C,U8*%
X-16300100Y70530000D03*
X-16300100Y69580000D03*
X-16300100Y68630000D03*
X-13699900Y68630000D03*
X-13699900Y70530000D03*
%TD*%
%TO.C,U8*%
X-16300100Y-14550000D03*
X-16300100Y-15500000D03*
X-16300100Y-16450000D03*
X-13699900Y-16450000D03*
X-13699900Y-14550000D03*
%TD*%
D16*
%TO.C,U6*%
X-15750000Y73840000D03*
X-15250000Y73840000D03*
X-14750000Y73840000D03*
X-14250000Y73840000D03*
X-14250000Y75320000D03*
X-14750000Y75320000D03*
X-15250000Y75320000D03*
X-15750000Y75320000D03*
%TD*%
%TO.C,U6*%
X43750000Y73840000D03*
X44250000Y73840000D03*
X44750000Y73840000D03*
X45250000Y73840000D03*
X45250000Y75320000D03*
X44750000Y75320000D03*
X44250000Y75320000D03*
X43750000Y75320000D03*
%TD*%
%TO.C,U6*%
X43750000Y-11240000D03*
X44250000Y-11240000D03*
X44750000Y-11240000D03*
X45250000Y-11240000D03*
X45250000Y-9760000D03*
X44750000Y-9760000D03*
X44250000Y-9760000D03*
X43750000Y-9760000D03*
%TD*%
%TO.C,U6*%
X-15750000Y-11240000D03*
X-15250000Y-11240000D03*
X-14750000Y-11240000D03*
X-14250000Y-11240000D03*
X-14250000Y-9760000D03*
X-14750000Y-9760000D03*
X-15250000Y-9760000D03*
X-15750000Y-9760000D03*
%TD*%
D17*
%TO.C,R7*%
X68175000Y-12500000D03*
X69825000Y-12500000D03*
%TD*%
%TO.C,R7*%
X8675000Y72580000D03*
X10325000Y72580000D03*
%TD*%
%TO.C,R7*%
X68175000Y72580000D03*
X69825000Y72580000D03*
%TD*%
%TO.C,R7*%
X8675000Y-12500000D03*
X10325000Y-12500000D03*
%TD*%
D11*
%TO.C,C13*%
X-5225000Y74080000D03*
X-6775000Y74080000D03*
%TD*%
%TO.C,C13*%
X54275000Y-11000000D03*
X52725000Y-11000000D03*
%TD*%
%TO.C,C13*%
X54275000Y74080000D03*
X52725000Y74080000D03*
%TD*%
%TO.C,C13*%
X-5225000Y-11000000D03*
X-6775000Y-11000000D03*
%TD*%
%TO.C,C5*%
X6275000Y85580000D03*
X4725000Y85580000D03*
%TD*%
%TO.C,C5*%
X65775000Y85580000D03*
X64225000Y85580000D03*
%TD*%
%TO.C,C5*%
X65775000Y500000D03*
X64225000Y500000D03*
%TD*%
%TO.C,C5*%
X6275000Y500000D03*
X4725000Y500000D03*
%TD*%
D18*
%TO.C,D3*%
X75450000Y29550100D03*
X74500000Y29550100D03*
X73550000Y29550100D03*
X73550000Y26949900D03*
X74500000Y26950000D03*
X75450000Y26949900D03*
%TD*%
%TO.C,D3*%
X15950000Y114630100D03*
X15000000Y114630100D03*
X14050000Y114630100D03*
X14050000Y112029900D03*
X15000000Y112030000D03*
X15950000Y112029900D03*
%TD*%
%TO.C,D3*%
X75450000Y114630100D03*
X74500000Y114630100D03*
X73550000Y114630100D03*
X73550000Y112029900D03*
X74500000Y112030000D03*
X75450000Y112029900D03*
%TD*%
%TO.C,D3*%
X15950000Y29550100D03*
X15000000Y29550100D03*
X14050000Y29550100D03*
X14050000Y26949900D03*
X15000000Y26950000D03*
X15950000Y26949900D03*
%TD*%
D13*
%TO.C,C8*%
X-3500000Y80305000D03*
X-3500000Y81855000D03*
%TD*%
%TO.C,C8*%
X56000000Y-4775000D03*
X56000000Y-3225000D03*
%TD*%
%TO.C,C8*%
X56000000Y80305000D03*
X56000000Y81855000D03*
%TD*%
%TO.C,C8*%
X-3500000Y-4775000D03*
X-3500000Y-3225000D03*
%TD*%
D19*
%TO.C,C17*%
X63750000Y-21725000D03*
X63750000Y-23275000D03*
%TD*%
%TO.C,C17*%
X63750000Y63355000D03*
X63750000Y61805000D03*
%TD*%
%TO.C,C17*%
X4250000Y63355000D03*
X4250000Y61805000D03*
%TD*%
%TO.C,C17*%
X4250000Y-21725000D03*
X4250000Y-23275000D03*
%TD*%
D20*
%TO.C,J11*%
X-24500000Y90580000D03*
X-24500000Y89580000D03*
X-24500000Y88580000D03*
X-24500000Y87580000D03*
D21*
X-28175000Y86280000D03*
X-28175000Y91880000D03*
%TD*%
D20*
%TO.C,J11*%
X35000000Y90580000D03*
X35000000Y89580000D03*
X35000000Y88580000D03*
X35000000Y87580000D03*
D21*
X31325000Y86280000D03*
X31325000Y91880000D03*
%TD*%
D20*
%TO.C,J11*%
X35000000Y5500000D03*
X35000000Y4500000D03*
X35000000Y3500000D03*
X35000000Y2500000D03*
D21*
X31325000Y1200000D03*
X31325000Y6800000D03*
%TD*%
D20*
%TO.C,J11*%
X-24500000Y5500000D03*
X-24500000Y4500000D03*
X-24500000Y3500000D03*
X-24500000Y2500000D03*
D21*
X-28175000Y1200000D03*
X-28175000Y6800000D03*
%TD*%
D22*
%TO.C,R18*%
X20000000Y76755000D03*
X20000000Y78405000D03*
%TD*%
%TO.C,R18*%
X79500000Y-8325000D03*
X79500000Y-6675000D03*
%TD*%
%TO.C,R18*%
X79500000Y76755000D03*
X79500000Y78405000D03*
%TD*%
%TO.C,R18*%
X20000000Y-8325000D03*
X20000000Y-6675000D03*
%TD*%
D12*
%TO.C,R6*%
X750000Y63405000D03*
X750000Y61755000D03*
%TD*%
%TO.C,R6*%
X60250000Y63405000D03*
X60250000Y61755000D03*
%TD*%
%TO.C,R6*%
X60250000Y-21675000D03*
X60250000Y-23325000D03*
%TD*%
%TO.C,R6*%
X750000Y-21675000D03*
X750000Y-23325000D03*
%TD*%
D23*
%TO.C,SW2*%
X51050000Y56530000D03*
X46950000Y56530000D03*
X51050000Y58130000D03*
X46950000Y58130000D03*
%TD*%
%TO.C,SW2*%
X51050000Y-28550000D03*
X46950000Y-28550000D03*
X51050000Y-26950000D03*
X46950000Y-26950000D03*
%TD*%
%TO.C,SW2*%
X-8450000Y56530000D03*
X-12550000Y56530000D03*
X-8450000Y58130000D03*
X-12550000Y58130000D03*
%TD*%
%TO.C,SW2*%
X-8450000Y-28550000D03*
X-12550000Y-28550000D03*
X-8450000Y-26950000D03*
X-12550000Y-26950000D03*
%TD*%
D13*
%TO.C,C23*%
X51000000Y33975000D03*
X51000000Y35525000D03*
%TD*%
%TO.C,C23*%
X-8500000Y119055000D03*
X-8500000Y120605000D03*
%TD*%
%TO.C,C23*%
X51000000Y119055000D03*
X51000000Y120605000D03*
%TD*%
%TO.C,C23*%
X-8500000Y33975000D03*
X-8500000Y35525000D03*
%TD*%
D24*
%TO.C,R1*%
X54325000Y-15500000D03*
X52675000Y-15500000D03*
%TD*%
%TO.C,R1*%
X54325000Y69580000D03*
X52675000Y69580000D03*
%TD*%
%TO.C,R1*%
X-5175000Y69580000D03*
X-6825000Y69580000D03*
%TD*%
%TO.C,R1*%
X-5175000Y-15500000D03*
X-6825000Y-15500000D03*
%TD*%
D25*
%TO.C,U5*%
X78945000Y24550000D03*
X77675000Y24550000D03*
X76405000Y24550000D03*
X75135000Y24550000D03*
X73865000Y24550000D03*
X72595000Y24550000D03*
X71325000Y24550000D03*
X70055000Y24550000D03*
X70055000Y18950000D03*
X71325000Y18950000D03*
X72595000Y18950000D03*
X73865000Y18950000D03*
X75135000Y18950000D03*
X76405000Y18950000D03*
X77675000Y18950000D03*
X78945000Y18950000D03*
%TD*%
%TO.C,U5*%
X19445000Y109630000D03*
X18175000Y109630000D03*
X16905000Y109630000D03*
X15635000Y109630000D03*
X14365000Y109630000D03*
X13095000Y109630000D03*
X11825000Y109630000D03*
X10555000Y109630000D03*
X10555000Y104030000D03*
X11825000Y104030000D03*
X13095000Y104030000D03*
X14365000Y104030000D03*
X15635000Y104030000D03*
X16905000Y104030000D03*
X18175000Y104030000D03*
X19445000Y104030000D03*
%TD*%
%TO.C,U5*%
X78945000Y109630000D03*
X77675000Y109630000D03*
X76405000Y109630000D03*
X75135000Y109630000D03*
X73865000Y109630000D03*
X72595000Y109630000D03*
X71325000Y109630000D03*
X70055000Y109630000D03*
X70055000Y104030000D03*
X71325000Y104030000D03*
X72595000Y104030000D03*
X73865000Y104030000D03*
X75135000Y104030000D03*
X76405000Y104030000D03*
X77675000Y104030000D03*
X78945000Y104030000D03*
%TD*%
%TO.C,U5*%
X19445000Y24550000D03*
X18175000Y24550000D03*
X16905000Y24550000D03*
X15635000Y24550000D03*
X14365000Y24550000D03*
X13095000Y24550000D03*
X11825000Y24550000D03*
X10555000Y24550000D03*
X10555000Y18950000D03*
X11825000Y18950000D03*
X13095000Y18950000D03*
X14365000Y18950000D03*
X15635000Y18950000D03*
X16905000Y18950000D03*
X18175000Y18950000D03*
X19445000Y18950000D03*
%TD*%
D26*
%TO.C,J10*%
X80475000Y3850000D03*
X80475000Y2750000D03*
X80475000Y1650000D03*
X80475000Y900000D03*
X80475000Y-550000D03*
X80475000Y-1650000D03*
X80475000Y-2750000D03*
X80475000Y-3850000D03*
X80475000Y200000D03*
D27*
X74275000Y-5100000D03*
X78725000Y-5100000D03*
X74275000Y5100000D03*
X78725000Y5100000D03*
%TD*%
D26*
%TO.C,J10*%
X80475000Y88930000D03*
X80475000Y87830000D03*
X80475000Y86730000D03*
X80475000Y85980000D03*
X80475000Y84530000D03*
X80475000Y83430000D03*
X80475000Y82330000D03*
X80475000Y81230000D03*
X80475000Y85280000D03*
D27*
X74275000Y79980000D03*
X78725000Y79980000D03*
X74275000Y90180000D03*
X78725000Y90180000D03*
%TD*%
D26*
%TO.C,J10*%
X20975000Y88930000D03*
X20975000Y87830000D03*
X20975000Y86730000D03*
X20975000Y85980000D03*
X20975000Y84530000D03*
X20975000Y83430000D03*
X20975000Y82330000D03*
X20975000Y81230000D03*
X20975000Y85280000D03*
D27*
X14775000Y79980000D03*
X19225000Y79980000D03*
X14775000Y90180000D03*
X19225000Y90180000D03*
%TD*%
D26*
%TO.C,J10*%
X20975000Y3850000D03*
X20975000Y2750000D03*
X20975000Y1650000D03*
X20975000Y900000D03*
X20975000Y-550000D03*
X20975000Y-1650000D03*
X20975000Y-2750000D03*
X20975000Y-3850000D03*
X20975000Y200000D03*
D27*
X14775000Y-5100000D03*
X19225000Y-5100000D03*
X14775000Y5100000D03*
X19225000Y5100000D03*
%TD*%
D12*
%TO.C,R16*%
X42000000Y80405000D03*
X42000000Y78755000D03*
%TD*%
%TO.C,R16*%
X42000000Y-4675000D03*
X42000000Y-6325000D03*
%TD*%
%TO.C,R16*%
X-17500000Y80405000D03*
X-17500000Y78755000D03*
%TD*%
%TO.C,R16*%
X-17500000Y-4675000D03*
X-17500000Y-6325000D03*
%TD*%
D13*
%TO.C,C20*%
X48000000Y33975000D03*
X48000000Y35525000D03*
%TD*%
%TO.C,C20*%
X48000000Y119055000D03*
X48000000Y120605000D03*
%TD*%
%TO.C,C20*%
X-11500000Y119055000D03*
X-11500000Y120605000D03*
%TD*%
%TO.C,C20*%
X-11500000Y33975000D03*
X-11500000Y35525000D03*
%TD*%
D22*
%TO.C,R8*%
X10750000Y61755000D03*
X10750000Y63405000D03*
%TD*%
%TO.C,R8*%
X70250000Y61755000D03*
X70250000Y63405000D03*
%TD*%
%TO.C,R8*%
X70250000Y-23325000D03*
X70250000Y-21675000D03*
%TD*%
%TO.C,R8*%
X10750000Y-23325000D03*
X10750000Y-21675000D03*
%TD*%
D24*
%TO.C,R9*%
X72825000Y-12500000D03*
X71175000Y-12500000D03*
%TD*%
%TO.C,R9*%
X13325000Y72580000D03*
X11675000Y72580000D03*
%TD*%
%TO.C,R9*%
X72825000Y72580000D03*
X71175000Y72580000D03*
%TD*%
%TO.C,R9*%
X13325000Y-12500000D03*
X11675000Y-12500000D03*
%TD*%
D11*
%TO.C,C1*%
X-5225000Y72580000D03*
X-6775000Y72580000D03*
%TD*%
%TO.C,C1*%
X54275000Y-12500000D03*
X52725000Y-12500000D03*
%TD*%
%TO.C,C1*%
X54275000Y72580000D03*
X52725000Y72580000D03*
%TD*%
%TO.C,C1*%
X-5225000Y-12500000D03*
X-6775000Y-12500000D03*
%TD*%
D28*
%TO.C,D5*%
X45287500Y49830000D03*
X43712500Y49830000D03*
%TD*%
%TO.C,D5*%
X-14212500Y49830000D03*
X-15787500Y49830000D03*
%TD*%
%TO.C,D5*%
X45287500Y-35250000D03*
X43712500Y-35250000D03*
%TD*%
%TO.C,D5*%
X-14212500Y-35250000D03*
X-15787500Y-35250000D03*
%TD*%
D12*
%TO.C,R28*%
X-17500000Y63905000D03*
X-17500000Y62255000D03*
%TD*%
%TO.C,R28*%
X42000000Y-21175000D03*
X42000000Y-22825000D03*
%TD*%
%TO.C,R28*%
X42000000Y63905000D03*
X42000000Y62255000D03*
%TD*%
%TO.C,R28*%
X-17500000Y-21175000D03*
X-17500000Y-22825000D03*
%TD*%
D23*
%TO.C,SW4*%
X8950000Y75880000D03*
X13050000Y75880000D03*
X8950000Y74280000D03*
X13050000Y74280000D03*
%TD*%
%TO.C,SW4*%
X68450000Y-9200000D03*
X72550000Y-9200000D03*
X68450000Y-10800000D03*
X72550000Y-10800000D03*
%TD*%
%TO.C,SW4*%
X68450000Y75880000D03*
X72550000Y75880000D03*
X68450000Y74280000D03*
X72550000Y74280000D03*
%TD*%
%TO.C,SW4*%
X8950000Y-9200000D03*
X13050000Y-9200000D03*
X8950000Y-10800000D03*
X13050000Y-10800000D03*
%TD*%
D29*
%TO.C,D2*%
X75650000Y102330000D03*
X73350000Y102330000D03*
%TD*%
%TO.C,D2*%
X16150000Y102330000D03*
X13850000Y102330000D03*
%TD*%
%TO.C,D2*%
X75650000Y17250000D03*
X73350000Y17250000D03*
%TD*%
%TO.C,D2*%
X16150000Y17250000D03*
X13850000Y17250000D03*
%TD*%
D12*
%TO.C,R11*%
X12500000Y114155000D03*
X12500000Y112505000D03*
%TD*%
%TO.C,R11*%
X72000000Y29075000D03*
X72000000Y27425000D03*
%TD*%
%TO.C,R11*%
X72000000Y114155000D03*
X72000000Y112505000D03*
%TD*%
%TO.C,R11*%
X12500000Y29075000D03*
X12500000Y27425000D03*
%TD*%
D19*
%TO.C,C3*%
X2500000Y67355000D03*
X2500000Y65805000D03*
%TD*%
%TO.C,C3*%
X62000000Y-17725000D03*
X62000000Y-19275000D03*
%TD*%
%TO.C,C3*%
X62000000Y67355000D03*
X62000000Y65805000D03*
%TD*%
%TO.C,C3*%
X2500000Y-17725000D03*
X2500000Y-19275000D03*
%TD*%
D17*
%TO.C,R14*%
X66675000Y100830000D03*
X68325000Y100830000D03*
%TD*%
%TO.C,R14*%
X7175000Y100830000D03*
X8825000Y100830000D03*
%TD*%
%TO.C,R14*%
X66675000Y15750000D03*
X68325000Y15750000D03*
%TD*%
%TO.C,R14*%
X7175000Y15750000D03*
X8825000Y15750000D03*
%TD*%
D18*
%TO.C,U7*%
X43550000Y-6800100D03*
X44500000Y-6800100D03*
X45450000Y-6800100D03*
X45450000Y-4199900D03*
X43550000Y-4199900D03*
%TD*%
%TO.C,U7*%
X43550000Y78279900D03*
X44500000Y78279900D03*
X45450000Y78279900D03*
X45450000Y80880100D03*
X43550000Y80880100D03*
%TD*%
%TO.C,U7*%
X-15950000Y78279900D03*
X-15000000Y78279900D03*
X-14050000Y78279900D03*
X-14050000Y80880100D03*
X-15950000Y80880100D03*
%TD*%
%TO.C,U7*%
X-15950000Y-6800100D03*
X-15000000Y-6800100D03*
X-14050000Y-6800100D03*
X-14050000Y-4199900D03*
X-15950000Y-4199900D03*
%TD*%
%TO.C,D1*%
X58550000Y55529900D03*
X59500000Y55529900D03*
X60450000Y55529900D03*
X60450000Y58130100D03*
X59500000Y58130000D03*
X58550000Y58130100D03*
%TD*%
%TO.C,D1*%
X-950000Y55529900D03*
X0Y55529900D03*
X950000Y55529900D03*
X950000Y58130100D03*
X0Y58130000D03*
X-950000Y58130100D03*
%TD*%
%TO.C,D1*%
X58550000Y-29550100D03*
X59500000Y-29550100D03*
X60450000Y-29550100D03*
X60450000Y-26949900D03*
X59500000Y-26950000D03*
X58550000Y-26949900D03*
%TD*%
%TO.C,D1*%
X-950000Y-29550100D03*
X0Y-29550100D03*
X950000Y-29550100D03*
X950000Y-26949900D03*
X0Y-26950000D03*
X-950000Y-26949900D03*
%TD*%
D30*
%TO.C,Y1*%
X4850000Y83930000D03*
X4850000Y82230000D03*
X6150000Y82230000D03*
X6150000Y83930000D03*
%TD*%
%TO.C,Y1*%
X64350000Y-1150000D03*
X64350000Y-2850000D03*
X65650000Y-2850000D03*
X65650000Y-1150000D03*
%TD*%
%TO.C,Y1*%
X64350000Y83930000D03*
X64350000Y82230000D03*
X65650000Y82230000D03*
X65650000Y83930000D03*
%TD*%
%TO.C,Y1*%
X4850000Y-1150000D03*
X4850000Y-2850000D03*
X6150000Y-2850000D03*
X6150000Y-1150000D03*
%TD*%
D31*
%TO.C,J1*%
X58250000Y-32090000D03*
X59250000Y-32090000D03*
X59750000Y-32090000D03*
X60750000Y-32090000D03*
X61250000Y-32090000D03*
X60250000Y-32090000D03*
X58750000Y-32090000D03*
X57750000Y-32090000D03*
D32*
X56275000Y-32090000D03*
X62725000Y-32090000D03*
D33*
X55182000Y-36845000D03*
D34*
X55182000Y-32665000D03*
X63818000Y-32665000D03*
D33*
X63818000Y-36845000D03*
D32*
X57050000Y-32090000D03*
X61950000Y-32090000D03*
%TD*%
D31*
%TO.C,J1*%
X-1250000Y52990000D03*
X-250000Y52990000D03*
X250000Y52990000D03*
X1250000Y52990000D03*
X1750000Y52990000D03*
X750000Y52990000D03*
X-750000Y52990000D03*
X-1750000Y52990000D03*
D32*
X-3225000Y52990000D03*
X3225000Y52990000D03*
D33*
X-4318000Y48235000D03*
D34*
X-4318000Y52415000D03*
X4318000Y52415000D03*
D33*
X4318000Y48235000D03*
D32*
X-2450000Y52990000D03*
X2450000Y52990000D03*
%TD*%
D31*
%TO.C,J1*%
X58250000Y52990000D03*
X59250000Y52990000D03*
X59750000Y52990000D03*
X60750000Y52990000D03*
X61250000Y52990000D03*
X60250000Y52990000D03*
X58750000Y52990000D03*
X57750000Y52990000D03*
D32*
X56275000Y52990000D03*
X62725000Y52990000D03*
D33*
X55182000Y48235000D03*
D34*
X55182000Y52415000D03*
X63818000Y52415000D03*
D33*
X63818000Y48235000D03*
D32*
X57050000Y52990000D03*
X61950000Y52990000D03*
%TD*%
D31*
%TO.C,J1*%
X-1250000Y-32090000D03*
X-250000Y-32090000D03*
X250000Y-32090000D03*
X1250000Y-32090000D03*
X1750000Y-32090000D03*
X750000Y-32090000D03*
X-750000Y-32090000D03*
X-1750000Y-32090000D03*
D32*
X-3225000Y-32090000D03*
X3225000Y-32090000D03*
D33*
X-4318000Y-36845000D03*
D34*
X-4318000Y-32665000D03*
X4318000Y-32665000D03*
D33*
X4318000Y-36845000D03*
D32*
X-2450000Y-32090000D03*
X2450000Y-32090000D03*
%TD*%
D11*
%TO.C,C4*%
X54275000Y-14000000D03*
X52725000Y-14000000D03*
%TD*%
%TO.C,C4*%
X-5225000Y71080000D03*
X-6775000Y71080000D03*
%TD*%
%TO.C,C4*%
X54275000Y71080000D03*
X52725000Y71080000D03*
%TD*%
%TO.C,C4*%
X-5225000Y-14000000D03*
X-6775000Y-14000000D03*
%TD*%
%TO.C,C30*%
X77275000Y92080000D03*
X75725000Y92080000D03*
%TD*%
%TO.C,C30*%
X17775000Y92080000D03*
X16225000Y92080000D03*
%TD*%
%TO.C,C30*%
X77275000Y7000000D03*
X75725000Y7000000D03*
%TD*%
%TO.C,C30*%
X17775000Y7000000D03*
X16225000Y7000000D03*
%TD*%
D14*
%TO.C,C24*%
X43725000Y76580000D03*
X45275000Y76580000D03*
%TD*%
%TO.C,C24*%
X-15775000Y76580000D03*
X-14225000Y76580000D03*
%TD*%
%TO.C,C24*%
X43725000Y-8500000D03*
X45275000Y-8500000D03*
%TD*%
%TO.C,C24*%
X-15775000Y-8500000D03*
X-14225000Y-8500000D03*
%TD*%
%TO.C,C16*%
X66225000Y-26500000D03*
X67775000Y-26500000D03*
%TD*%
%TO.C,C16*%
X66225000Y58580000D03*
X67775000Y58580000D03*
%TD*%
%TO.C,C16*%
X6725000Y58580000D03*
X8275000Y58580000D03*
%TD*%
%TO.C,C16*%
X6725000Y-26500000D03*
X8275000Y-26500000D03*
%TD*%
D22*
%TO.C,R17*%
X81000000Y-8325000D03*
X81000000Y-6675000D03*
%TD*%
%TO.C,R17*%
X21500000Y76755000D03*
X21500000Y78405000D03*
%TD*%
%TO.C,R17*%
X81000000Y76755000D03*
X81000000Y78405000D03*
%TD*%
%TO.C,R17*%
X21500000Y-8325000D03*
X21500000Y-6675000D03*
%TD*%
D35*
%TO.C,D4*%
X14450000Y48915000D03*
X15550000Y48915000D03*
X15550000Y50745000D03*
X14450000Y50745000D03*
%TD*%
%TO.C,D4*%
X73950000Y48915000D03*
X75050000Y48915000D03*
X75050000Y50745000D03*
X73950000Y50745000D03*
%TD*%
%TO.C,D4*%
X73950000Y-36165000D03*
X75050000Y-36165000D03*
X75050000Y-34335000D03*
X73950000Y-34335000D03*
%TD*%
%TO.C,D4*%
X14450000Y-36165000D03*
X15550000Y-36165000D03*
X15550000Y-34335000D03*
X14450000Y-34335000D03*
%TD*%
D14*
%TO.C,C11*%
X64725000Y74080000D03*
X66275000Y74080000D03*
%TD*%
%TO.C,C11*%
X5225000Y74080000D03*
X6775000Y74080000D03*
%TD*%
%TO.C,C11*%
X64725000Y-11000000D03*
X66275000Y-11000000D03*
%TD*%
%TO.C,C11*%
X5225000Y-11000000D03*
X6775000Y-11000000D03*
%TD*%
D13*
%TO.C,C28*%
X-12000000Y68805000D03*
X-12000000Y70355000D03*
%TD*%
%TO.C,C28*%
X47500000Y68805000D03*
X47500000Y70355000D03*
%TD*%
%TO.C,C28*%
X47500000Y-16275000D03*
X47500000Y-14725000D03*
%TD*%
%TO.C,C28*%
X-12000000Y-16275000D03*
X-12000000Y-14725000D03*
%TD*%
D12*
%TO.C,R12*%
X77000000Y29075000D03*
X77000000Y27425000D03*
%TD*%
%TO.C,R12*%
X77000000Y114155000D03*
X77000000Y112505000D03*
%TD*%
%TO.C,R12*%
X17500000Y114155000D03*
X17500000Y112505000D03*
%TD*%
%TO.C,R12*%
X17500000Y29075000D03*
X17500000Y27425000D03*
%TD*%
D28*
%TO.C,D6*%
X43037500Y-13000000D03*
X41462500Y-13000000D03*
%TD*%
%TO.C,D6*%
X43037500Y72080000D03*
X41462500Y72080000D03*
%TD*%
%TO.C,D6*%
X-16462500Y72080000D03*
X-18037500Y72080000D03*
%TD*%
%TO.C,D6*%
X-16462500Y-13000000D03*
X-18037500Y-13000000D03*
%TD*%
D22*
%TO.C,R22*%
X45500000Y-28575000D03*
X45500000Y-26925000D03*
%TD*%
%TO.C,R22*%
X-14000000Y56505000D03*
X-14000000Y58155000D03*
%TD*%
%TO.C,R22*%
X45500000Y56505000D03*
X45500000Y58155000D03*
%TD*%
%TO.C,R22*%
X-14000000Y-28575000D03*
X-14000000Y-26925000D03*
%TD*%
%TO.C,R10*%
X5000000Y97505000D03*
X5000000Y99155000D03*
%TD*%
%TO.C,R10*%
X64500000Y12425000D03*
X64500000Y14075000D03*
%TD*%
%TO.C,R10*%
X64500000Y97505000D03*
X64500000Y99155000D03*
%TD*%
%TO.C,R10*%
X5000000Y12425000D03*
X5000000Y14075000D03*
%TD*%
D23*
%TO.C,SW3*%
X42050000Y-28550000D03*
X37950000Y-28550000D03*
X42050000Y-26950000D03*
X37950000Y-26950000D03*
%TD*%
%TO.C,SW3*%
X-17450000Y56530000D03*
X-21550000Y56530000D03*
X-17450000Y58130000D03*
X-21550000Y58130000D03*
%TD*%
%TO.C,SW3*%
X42050000Y56530000D03*
X37950000Y56530000D03*
X42050000Y58130000D03*
X37950000Y58130000D03*
%TD*%
%TO.C,SW3*%
X-17450000Y-28550000D03*
X-21550000Y-28550000D03*
X-17450000Y-26950000D03*
X-21550000Y-26950000D03*
%TD*%
D24*
%TO.C,R13*%
X68325000Y102330000D03*
X66675000Y102330000D03*
%TD*%
%TO.C,R13*%
X8825000Y102330000D03*
X7175000Y102330000D03*
%TD*%
%TO.C,R13*%
X68325000Y17250000D03*
X66675000Y17250000D03*
%TD*%
%TO.C,R13*%
X8825000Y17250000D03*
X7175000Y17250000D03*
%TD*%
D17*
%TO.C,R21*%
X45925000Y-13000000D03*
X47575000Y-13000000D03*
%TD*%
%TO.C,R21*%
X-13575000Y72080000D03*
X-11925000Y72080000D03*
%TD*%
%TO.C,R21*%
X45925000Y72080000D03*
X47575000Y72080000D03*
%TD*%
%TO.C,R21*%
X-13575000Y-13000000D03*
X-11925000Y-13000000D03*
%TD*%
D36*
%TO.C,J9*%
X37200000Y-5500000D03*
X37200000Y-3500000D03*
D37*
X32000000Y-7900000D03*
X32000000Y-1100000D03*
%TD*%
D36*
%TO.C,J9*%
X-22300000Y79580000D03*
X-22300000Y81580000D03*
D37*
X-27500000Y77180000D03*
X-27500000Y83980000D03*
%TD*%
D36*
%TO.C,J9*%
X37200000Y79580000D03*
X37200000Y81580000D03*
D37*
X32000000Y77180000D03*
X32000000Y83980000D03*
%TD*%
D36*
%TO.C,J9*%
X-22300000Y-5500000D03*
X-22300000Y-3500000D03*
D37*
X-27500000Y-7900000D03*
X-27500000Y-1100000D03*
%TD*%
D22*
%TO.C,R3*%
X2500000Y56005000D03*
X2500000Y57655000D03*
%TD*%
%TO.C,R3*%
X62000000Y-29075000D03*
X62000000Y-27425000D03*
%TD*%
%TO.C,R3*%
X62000000Y56005000D03*
X62000000Y57655000D03*
%TD*%
%TO.C,R3*%
X2500000Y-29075000D03*
X2500000Y-27425000D03*
%TD*%
D14*
%TO.C,C18*%
X66225000Y-25000000D03*
X67775000Y-25000000D03*
%TD*%
%TO.C,C18*%
X6725000Y60080000D03*
X8275000Y60080000D03*
%TD*%
%TO.C,C18*%
X66225000Y60080000D03*
X67775000Y60080000D03*
%TD*%
%TO.C,C18*%
X6725000Y-25000000D03*
X8275000Y-25000000D03*
%TD*%
%TO.C,C27*%
X14225000Y54330000D03*
X15775000Y54330000D03*
%TD*%
%TO.C,C27*%
X73725000Y-30750000D03*
X75275000Y-30750000D03*
%TD*%
%TO.C,C27*%
X73725000Y54330000D03*
X75275000Y54330000D03*
%TD*%
%TO.C,C27*%
X14225000Y-30750000D03*
X15775000Y-30750000D03*
%TD*%
D13*
%TO.C,C15*%
X55500000Y-19775000D03*
X55500000Y-18225000D03*
%TD*%
%TO.C,C15*%
X55500000Y65305000D03*
X55500000Y66855000D03*
%TD*%
%TO.C,C15*%
X-4000000Y65305000D03*
X-4000000Y66855000D03*
%TD*%
%TO.C,C15*%
X-4000000Y-19775000D03*
X-4000000Y-18225000D03*
%TD*%
D38*
%TO.C,U4*%
X52950000Y35100000D03*
X52950000Y33850000D03*
X52950000Y32600000D03*
X52950000Y31350000D03*
X52950000Y30100000D03*
X52950000Y28850000D03*
X52950000Y27600000D03*
X52950000Y26350000D03*
X52950000Y25100000D03*
X52950000Y23850000D03*
X52950000Y22600000D03*
X52950000Y21350000D03*
D39*
X55120000Y19820000D03*
X56370000Y19820000D03*
X57620000Y19820000D03*
X58870000Y19820000D03*
X60120000Y19820000D03*
X61370000Y19820000D03*
X62620000Y19820000D03*
X63870000Y19820000D03*
D40*
X66050000Y21350000D03*
X66050000Y22600000D03*
X66050000Y23850000D03*
X66050000Y25100000D03*
X66050000Y26350000D03*
X66050000Y27600000D03*
X66050000Y28850000D03*
X66050000Y30100000D03*
X66050000Y31350000D03*
X66050000Y32600000D03*
X66050000Y33850000D03*
X66050000Y35100000D03*
X66050000Y36350000D03*
X66050000Y37600000D03*
%TD*%
D38*
%TO.C,U4*%
X-6550000Y120180000D03*
X-6550000Y118930000D03*
X-6550000Y117680000D03*
X-6550000Y116430000D03*
X-6550000Y115180000D03*
X-6550000Y113930000D03*
X-6550000Y112680000D03*
X-6550000Y111430000D03*
X-6550000Y110180000D03*
X-6550000Y108930000D03*
X-6550000Y107680000D03*
X-6550000Y106430000D03*
D39*
X-4380000Y104900000D03*
X-3130000Y104900000D03*
X-1880000Y104900000D03*
X-630000Y104900000D03*
X620000Y104900000D03*
X1870000Y104900000D03*
X3120000Y104900000D03*
X4370000Y104900000D03*
D40*
X6550000Y106430000D03*
X6550000Y107680000D03*
X6550000Y108930000D03*
X6550000Y110180000D03*
X6550000Y111430000D03*
X6550000Y112680000D03*
X6550000Y113930000D03*
X6550000Y115180000D03*
X6550000Y116430000D03*
X6550000Y117680000D03*
X6550000Y118930000D03*
X6550000Y120180000D03*
X6550000Y121430000D03*
X6550000Y122680000D03*
%TD*%
D38*
%TO.C,U4*%
X52950000Y120180000D03*
X52950000Y118930000D03*
X52950000Y117680000D03*
X52950000Y116430000D03*
X52950000Y115180000D03*
X52950000Y113930000D03*
X52950000Y112680000D03*
X52950000Y111430000D03*
X52950000Y110180000D03*
X52950000Y108930000D03*
X52950000Y107680000D03*
X52950000Y106430000D03*
D39*
X55120000Y104900000D03*
X56370000Y104900000D03*
X57620000Y104900000D03*
X58870000Y104900000D03*
X60120000Y104900000D03*
X61370000Y104900000D03*
X62620000Y104900000D03*
X63870000Y104900000D03*
D40*
X66050000Y106430000D03*
X66050000Y107680000D03*
X66050000Y108930000D03*
X66050000Y110180000D03*
X66050000Y111430000D03*
X66050000Y112680000D03*
X66050000Y113930000D03*
X66050000Y115180000D03*
X66050000Y116430000D03*
X66050000Y117680000D03*
X66050000Y118930000D03*
X66050000Y120180000D03*
X66050000Y121430000D03*
X66050000Y122680000D03*
%TD*%
D38*
%TO.C,U4*%
X-6550000Y35100000D03*
X-6550000Y33850000D03*
X-6550000Y32600000D03*
X-6550000Y31350000D03*
X-6550000Y30100000D03*
X-6550000Y28850000D03*
X-6550000Y27600000D03*
X-6550000Y26350000D03*
X-6550000Y25100000D03*
X-6550000Y23850000D03*
X-6550000Y22600000D03*
X-6550000Y21350000D03*
D39*
X-4380000Y19820000D03*
X-3130000Y19820000D03*
X-1880000Y19820000D03*
X-630000Y19820000D03*
X620000Y19820000D03*
X1870000Y19820000D03*
X3120000Y19820000D03*
X4370000Y19820000D03*
D40*
X6550000Y21350000D03*
X6550000Y22600000D03*
X6550000Y23850000D03*
X6550000Y25100000D03*
X6550000Y26350000D03*
X6550000Y27600000D03*
X6550000Y28850000D03*
X6550000Y30100000D03*
X6550000Y31350000D03*
X6550000Y32600000D03*
X6550000Y33850000D03*
X6550000Y35100000D03*
X6550000Y36350000D03*
X6550000Y37600000D03*
%TD*%
D22*
%TO.C,R27*%
X37000000Y1675000D03*
X37000000Y3325000D03*
%TD*%
%TO.C,R27*%
X-22500000Y86755000D03*
X-22500000Y88405000D03*
%TD*%
%TO.C,R27*%
X37000000Y86755000D03*
X37000000Y88405000D03*
%TD*%
%TO.C,R27*%
X-22500000Y1675000D03*
X-22500000Y3325000D03*
%TD*%
D41*
%TO.C,U2*%
X69775000Y-19405000D03*
X69775000Y-18135000D03*
X69775000Y-16865000D03*
X69775000Y-15595000D03*
X64225000Y-15595000D03*
X64225000Y-16865000D03*
X64225000Y-18135000D03*
X64225000Y-19405000D03*
%TD*%
%TO.C,U2*%
X10275000Y65675000D03*
X10275000Y66945000D03*
X10275000Y68215000D03*
X10275000Y69485000D03*
X4725000Y69485000D03*
X4725000Y68215000D03*
X4725000Y66945000D03*
X4725000Y65675000D03*
%TD*%
%TO.C,U2*%
X69775000Y65675000D03*
X69775000Y66945000D03*
X69775000Y68215000D03*
X69775000Y69485000D03*
X64225000Y69485000D03*
X64225000Y68215000D03*
X64225000Y66945000D03*
X64225000Y65675000D03*
%TD*%
%TO.C,U2*%
X10275000Y-19405000D03*
X10275000Y-18135000D03*
X10275000Y-16865000D03*
X10275000Y-15595000D03*
X4725000Y-15595000D03*
X4725000Y-16865000D03*
X4725000Y-18135000D03*
X4725000Y-19405000D03*
%TD*%
D42*
%TO.C,SW1*%
X44175000Y25750000D03*
X44175000Y28250000D03*
X44175000Y30750000D03*
X49825000Y25750000D03*
X49825000Y28250000D03*
X49825000Y30750000D03*
%TD*%
%TO.C,SW1*%
X44175000Y110830000D03*
X44175000Y113330000D03*
X44175000Y115830000D03*
X49825000Y110830000D03*
X49825000Y113330000D03*
X49825000Y115830000D03*
%TD*%
%TO.C,SW1*%
X-15325000Y110830000D03*
X-15325000Y113330000D03*
X-15325000Y115830000D03*
X-9675000Y110830000D03*
X-9675000Y113330000D03*
X-9675000Y115830000D03*
%TD*%
%TO.C,SW1*%
X-15325000Y25750000D03*
X-15325000Y28250000D03*
X-15325000Y30750000D03*
X-9675000Y25750000D03*
X-9675000Y28250000D03*
X-9675000Y30750000D03*
%TD*%
D14*
%TO.C,C26*%
X43725000Y84080000D03*
X45275000Y84080000D03*
%TD*%
%TO.C,C26*%
X-15775000Y84080000D03*
X-14225000Y84080000D03*
%TD*%
%TO.C,C26*%
X43725000Y-1000000D03*
X45275000Y-1000000D03*
%TD*%
%TO.C,C26*%
X-15775000Y-1000000D03*
X-14225000Y-1000000D03*
%TD*%
D43*
%TO.C,Q1*%
X82500000Y-6550000D03*
X82500000Y-8450000D03*
X84600000Y-7500000D03*
%TD*%
%TO.C,Q1*%
X82500000Y78530000D03*
X82500000Y76630000D03*
X84600000Y77580000D03*
%TD*%
%TO.C,Q1*%
X23000000Y78530000D03*
X23000000Y76630000D03*
X25100000Y77580000D03*
%TD*%
%TO.C,Q1*%
X23000000Y-6550000D03*
X23000000Y-8450000D03*
X25100000Y-7500000D03*
%TD*%
D12*
%TO.C,R26*%
X37000000Y6325000D03*
X37000000Y4675000D03*
%TD*%
%TO.C,R26*%
X37000000Y91405000D03*
X37000000Y89755000D03*
%TD*%
%TO.C,R26*%
X-22500000Y91405000D03*
X-22500000Y89755000D03*
%TD*%
%TO.C,R26*%
X-22500000Y6325000D03*
X-22500000Y4675000D03*
%TD*%
D13*
%TO.C,C9*%
X59000000Y-4775000D03*
X59000000Y-3225000D03*
%TD*%
%TO.C,C9*%
X59000000Y80305000D03*
X59000000Y81855000D03*
%TD*%
%TO.C,C9*%
X-500000Y80305000D03*
X-500000Y81855000D03*
%TD*%
%TO.C,C9*%
X-500000Y-4775000D03*
X-500000Y-3225000D03*
%TD*%
D17*
%TO.C,R2*%
X1675000Y82580000D03*
X3325000Y82580000D03*
%TD*%
%TO.C,R2*%
X61175000Y-2500000D03*
X62825000Y-2500000D03*
%TD*%
%TO.C,R2*%
X61175000Y82580000D03*
X62825000Y82580000D03*
%TD*%
%TO.C,R2*%
X1675000Y-2500000D03*
X3325000Y-2500000D03*
%TD*%
D31*
%TO.C,J3*%
X75750000Y32090000D03*
X74750000Y32090000D03*
X74250000Y32090000D03*
X73250000Y32090000D03*
X72750000Y32090000D03*
X73750000Y32090000D03*
X75250000Y32090000D03*
X76250000Y32090000D03*
D32*
X77725000Y32090000D03*
X71275000Y32090000D03*
D33*
X78818000Y36845000D03*
D34*
X78818000Y32665000D03*
X70182000Y32665000D03*
D33*
X70182000Y36845000D03*
D32*
X76950000Y32090000D03*
X72050000Y32090000D03*
%TD*%
D31*
%TO.C,J3*%
X16250000Y117170000D03*
X15250000Y117170000D03*
X14750000Y117170000D03*
X13750000Y117170000D03*
X13250000Y117170000D03*
X14250000Y117170000D03*
X15750000Y117170000D03*
X16750000Y117170000D03*
D32*
X18225000Y117170000D03*
X11775000Y117170000D03*
D33*
X19318000Y121925000D03*
D34*
X19318000Y117745000D03*
X10682000Y117745000D03*
D33*
X10682000Y121925000D03*
D32*
X17450000Y117170000D03*
X12550000Y117170000D03*
%TD*%
D31*
%TO.C,J3*%
X75750000Y117170000D03*
X74750000Y117170000D03*
X74250000Y117170000D03*
X73250000Y117170000D03*
X72750000Y117170000D03*
X73750000Y117170000D03*
X75250000Y117170000D03*
X76250000Y117170000D03*
D32*
X77725000Y117170000D03*
X71275000Y117170000D03*
D33*
X78818000Y121925000D03*
D34*
X78818000Y117745000D03*
X70182000Y117745000D03*
D33*
X70182000Y121925000D03*
D32*
X76950000Y117170000D03*
X72050000Y117170000D03*
%TD*%
D31*
%TO.C,J3*%
X16250000Y32090000D03*
X15250000Y32090000D03*
X14750000Y32090000D03*
X13750000Y32090000D03*
X13250000Y32090000D03*
X14250000Y32090000D03*
X15750000Y32090000D03*
X16750000Y32090000D03*
D32*
X18225000Y32090000D03*
X11775000Y32090000D03*
D33*
X19318000Y36845000D03*
D34*
X19318000Y32665000D03*
X10682000Y32665000D03*
D33*
X10682000Y36845000D03*
D32*
X17450000Y32090000D03*
X12550000Y32090000D03*
%TD*%
D11*
%TO.C,C14*%
X58275000Y-16000000D03*
X56725000Y-16000000D03*
%TD*%
%TO.C,C14*%
X-1225000Y69080000D03*
X-2775000Y69080000D03*
%TD*%
%TO.C,C14*%
X58275000Y69080000D03*
X56725000Y69080000D03*
%TD*%
%TO.C,C14*%
X-1225000Y-16000000D03*
X-2775000Y-16000000D03*
%TD*%
%TO.C,C6*%
X54275000Y75580000D03*
X52725000Y75580000D03*
%TD*%
%TO.C,C6*%
X-5225000Y75580000D03*
X-6775000Y75580000D03*
%TD*%
%TO.C,C6*%
X54275000Y-9500000D03*
X52725000Y-9500000D03*
%TD*%
%TO.C,C6*%
X-5225000Y-9500000D03*
X-6775000Y-9500000D03*
%TD*%
D14*
%TO.C,C19*%
X19225000Y102330000D03*
X20775000Y102330000D03*
%TD*%
%TO.C,C19*%
X78725000Y17250000D03*
X80275000Y17250000D03*
%TD*%
%TO.C,C19*%
X78725000Y102330000D03*
X80275000Y102330000D03*
%TD*%
%TO.C,C19*%
X19225000Y17250000D03*
X20775000Y17250000D03*
%TD*%
D24*
%TO.C,R19*%
X45325000Y67080000D03*
X43675000Y67080000D03*
%TD*%
%TO.C,R19*%
X-14175000Y67080000D03*
X-15825000Y67080000D03*
%TD*%
%TO.C,R19*%
X45325000Y-18000000D03*
X43675000Y-18000000D03*
%TD*%
%TO.C,R19*%
X-14175000Y-18000000D03*
X-15825000Y-18000000D03*
%TD*%
%TO.C,R20*%
X45325000Y-30750000D03*
X43675000Y-30750000D03*
%TD*%
%TO.C,R20*%
X45325000Y54330000D03*
X43675000Y54330000D03*
%TD*%
%TO.C,R20*%
X-14175000Y54330000D03*
X-15825000Y54330000D03*
%TD*%
%TO.C,R20*%
X-14175000Y-30750000D03*
X-15825000Y-30750000D03*
%TD*%
D14*
%TO.C,C25*%
X-15775000Y82580000D03*
X-14225000Y82580000D03*
%TD*%
%TO.C,C25*%
X43725000Y82580000D03*
X45275000Y82580000D03*
%TD*%
%TO.C,C25*%
X43725000Y-2500000D03*
X45275000Y-2500000D03*
%TD*%
%TO.C,C25*%
X-15775000Y-2500000D03*
X-14225000Y-2500000D03*
%TD*%
D12*
%TO.C,R5*%
X2250000Y63405000D03*
X2250000Y61755000D03*
%TD*%
%TO.C,R5*%
X61750000Y-21675000D03*
X61750000Y-23325000D03*
%TD*%
%TO.C,R5*%
X61750000Y63405000D03*
X61750000Y61755000D03*
%TD*%
%TO.C,R5*%
X2250000Y-21675000D03*
X2250000Y-23325000D03*
%TD*%
D44*
%TO.C,J4*%
X56960000Y96450000D03*
X56960000Y100210000D03*
X58230000Y96450000D03*
X58230000Y100210000D03*
X59500000Y96450000D03*
X59500000Y100210000D03*
X60770000Y96450000D03*
X60770000Y100210000D03*
X62040000Y96450000D03*
X62040000Y100210000D03*
%TD*%
%TO.C,J4*%
X-2540000Y96450000D03*
X-2540000Y100210000D03*
X-1270000Y96450000D03*
X-1270000Y100210000D03*
X0Y96450000D03*
X0Y100210000D03*
X1270000Y96450000D03*
X1270000Y100210000D03*
X2540000Y96450000D03*
X2540000Y100210000D03*
%TD*%
%TO.C,J4*%
X56960000Y11370000D03*
X56960000Y15130000D03*
X58230000Y11370000D03*
X58230000Y15130000D03*
X59500000Y11370000D03*
X59500000Y15130000D03*
X60770000Y11370000D03*
X60770000Y15130000D03*
X62040000Y11370000D03*
X62040000Y15130000D03*
%TD*%
%TO.C,J4*%
X-2540000Y11370000D03*
X-2540000Y15130000D03*
X-1270000Y11370000D03*
X-1270000Y15130000D03*
X0Y11370000D03*
X0Y15130000D03*
X1270000Y11370000D03*
X1270000Y15130000D03*
X2540000Y11370000D03*
X2540000Y15130000D03*
%TD*%
D13*
%TO.C,C22*%
X49500000Y119055000D03*
X49500000Y120605000D03*
%TD*%
%TO.C,C22*%
X-10000000Y119055000D03*
X-10000000Y120605000D03*
%TD*%
%TO.C,C22*%
X49500000Y33975000D03*
X49500000Y35525000D03*
%TD*%
%TO.C,C22*%
X-10000000Y33975000D03*
X-10000000Y35525000D03*
%TD*%
D45*
%TO.C,L1*%
X57500000Y65005000D03*
X57500000Y67155000D03*
%TD*%
%TO.C,L1*%
X57500000Y-20075000D03*
X57500000Y-17925000D03*
%TD*%
%TO.C,L1*%
X-2000000Y65005000D03*
X-2000000Y67155000D03*
%TD*%
%TO.C,L1*%
X-2000000Y-20075000D03*
X-2000000Y-17925000D03*
%TD*%
D22*
%TO.C,R4*%
X-2500000Y56005000D03*
X-2500000Y57655000D03*
%TD*%
%TO.C,R4*%
X57000000Y-29075000D03*
X57000000Y-27425000D03*
%TD*%
%TO.C,R4*%
X57000000Y56005000D03*
X57000000Y57655000D03*
%TD*%
%TO.C,R4*%
X-2500000Y-29075000D03*
X-2500000Y-27425000D03*
%TD*%
%TO.C,R15*%
X47000000Y-11325000D03*
X47000000Y-9675000D03*
%TD*%
%TO.C,R15*%
X-12500000Y73755000D03*
X-12500000Y75405000D03*
%TD*%
%TO.C,R15*%
X47000000Y73755000D03*
X47000000Y75405000D03*
%TD*%
%TO.C,R15*%
X-12500000Y-11325000D03*
X-12500000Y-9675000D03*
%TD*%
D14*
%TO.C,C12*%
X1725000Y80580000D03*
X3275000Y80580000D03*
%TD*%
%TO.C,C12*%
X61225000Y-4500000D03*
X62775000Y-4500000D03*
%TD*%
%TO.C,C12*%
X61225000Y80580000D03*
X62775000Y80580000D03*
%TD*%
%TO.C,C12*%
X1725000Y-4500000D03*
X3275000Y-4500000D03*
%TD*%
%TO.C,C7*%
X5225000Y75580000D03*
X6775000Y75580000D03*
%TD*%
%TO.C,C7*%
X64725000Y-9500000D03*
X66275000Y-9500000D03*
%TD*%
%TO.C,C7*%
X64725000Y75580000D03*
X66275000Y75580000D03*
%TD*%
%TO.C,C7*%
X5225000Y-9500000D03*
X6775000Y-9500000D03*
%TD*%
%TO.C,C10*%
X64725000Y-12500000D03*
X66275000Y-12500000D03*
%TD*%
%TO.C,C10*%
X64725000Y72580000D03*
X66275000Y72580000D03*
%TD*%
%TO.C,C10*%
X5225000Y72580000D03*
X6775000Y72580000D03*
%TD*%
%TO.C,C10*%
X5225000Y-12500000D03*
X6775000Y-12500000D03*
%TD*%
D12*
%TO.C,R23*%
X13000000Y83405000D03*
X13000000Y81755000D03*
%TD*%
%TO.C,R23*%
X72500000Y-1675000D03*
X72500000Y-3325000D03*
%TD*%
%TO.C,R23*%
X72500000Y83405000D03*
X72500000Y81755000D03*
%TD*%
%TO.C,R23*%
X13000000Y-1675000D03*
X13000000Y-3325000D03*
%TD*%
D14*
%TO.C,C31*%
X43725000Y-19500000D03*
X45275000Y-19500000D03*
%TD*%
%TO.C,C31*%
X-15775000Y65580000D03*
X-14225000Y65580000D03*
%TD*%
%TO.C,C31*%
X43725000Y65580000D03*
X45275000Y65580000D03*
%TD*%
%TO.C,C31*%
X-15775000Y-19500000D03*
X-14225000Y-19500000D03*
%TD*%
D22*
%TO.C,R25*%
X-16000000Y56505000D03*
X-16000000Y58155000D03*
%TD*%
%TO.C,R25*%
X43500000Y56505000D03*
X43500000Y58155000D03*
%TD*%
%TO.C,R25*%
X43500000Y-28575000D03*
X43500000Y-26925000D03*
%TD*%
%TO.C,R25*%
X-16000000Y-28575000D03*
X-16000000Y-26925000D03*
%TD*%
M02*
