%TF.GenerationSoftware,KiCad,Pcbnew,8.0.5*%
%TF.CreationDate,2024-11-04T11:07:50-07:00*%
%TF.ProjectId,SparkFun_IoT_Node_LoRaWAN_panelized,53706172-6b46-4756-9e5f-496f545f4e6f,v10*%
%TF.SameCoordinates,Original*%
%TF.FileFunction,Soldermask,Bot*%
%TF.FilePolarity,Negative*%
%FSLAX46Y46*%
G04 Gerber Fmt 4.6, Leading zero omitted, Abs format (unit mm)*
G04 Created by KiCad (PCBNEW 8.0.5) date 2024-11-04 11:07:50*
%MOMM*%
%LPD*%
G01*
G04 APERTURE LIST*
G04 Aperture macros list*
%AMRoundRect*
0 Rectangle with rounded corners*
0 $1 Rounding radius*
0 $2 $3 $4 $5 $6 $7 $8 $9 X,Y pos of 4 corners*
0 Add a 4 corners polygon primitive as box body*
4,1,4,$2,$3,$4,$5,$6,$7,$8,$9,$2,$3,0*
0 Add four circle primitives for the rounded corners*
1,1,$1+$1,$2,$3*
1,1,$1+$1,$4,$5*
1,1,$1+$1,$6,$7*
1,1,$1+$1,$8,$9*
0 Add four rect primitives between the rounded corners*
20,1,$1+$1,$2,$3,$4,$5,0*
20,1,$1+$1,$4,$5,$6,$7,0*
20,1,$1+$1,$6,$7,$8,$9,0*
20,1,$1+$1,$8,$9,$2,$3,0*%
G04 Aperture macros list end*
%ADD10C,0.000000*%
%ADD11C,3.200000*%
%ADD12C,2.082800*%
%ADD13C,0.750000*%
%ADD14O,1.100000X1.700000*%
%ADD15O,1.100000X2.200000*%
%ADD16C,1.979600*%
%ADD17C,0.950000*%
%ADD18RoundRect,0.609600X0.000010X0.000010X-0.000010X0.000010X-0.000010X-0.000010X0.000010X-0.000010X0*%
%ADD19RoundRect,0.101600X0.635000X-0.330200X0.635000X0.330200X-0.635000X0.330200X-0.635000X-0.330200X0*%
%ADD20RoundRect,0.101600X-0.635000X0.330200X-0.635000X-0.330200X0.635000X-0.330200X0.635000X0.330200X0*%
%ADD21C,1.000000*%
%ADD22RoundRect,0.101600X0.330200X0.635000X-0.330200X0.635000X-0.330200X-0.635000X0.330200X-0.635000X0*%
%ADD23RoundRect,0.101600X-0.317500X-0.635000X0.317500X-0.635000X0.317500X0.635000X-0.317500X0.635000X0*%
%ADD24C,3.000000*%
%ADD25RoundRect,0.101600X-0.330200X-0.635000X0.330200X-0.635000X0.330200X0.635000X-0.330200X0.635000X0*%
G04 APERTURE END LIST*
D10*
%TO.C,JP7*%
G36*
X31740500Y3225300D02*
G01*
X31259500Y3225300D01*
X31259500Y3733300D01*
X31740500Y3733300D01*
X31740500Y3225300D01*
G37*
G36*
X31763500Y4258000D02*
G01*
X31282500Y4258000D01*
X31282500Y4766000D01*
X31763500Y4766000D01*
X31763500Y4258000D01*
G37*
G36*
X31740500Y88305300D02*
G01*
X31259500Y88305300D01*
X31259500Y88813300D01*
X31740500Y88813300D01*
X31740500Y88305300D01*
G37*
G36*
X31763500Y89338000D02*
G01*
X31282500Y89338000D01*
X31282500Y89846000D01*
X31763500Y89846000D01*
X31763500Y89338000D01*
G37*
G36*
X-27759500Y88305300D02*
G01*
X-28240500Y88305300D01*
X-28240500Y88813300D01*
X-27759500Y88813300D01*
X-27759500Y88305300D01*
G37*
G36*
X-27736500Y89338000D02*
G01*
X-28217500Y89338000D01*
X-28217500Y89846000D01*
X-27736500Y89846000D01*
X-27736500Y89338000D01*
G37*
G36*
X-27759500Y3225300D02*
G01*
X-28240500Y3225300D01*
X-28240500Y3733300D01*
X-27759500Y3733300D01*
X-27759500Y3225300D01*
G37*
G36*
X-27736500Y4258000D02*
G01*
X-28217500Y4258000D01*
X-28217500Y4766000D01*
X-27736500Y4766000D01*
X-27736500Y4258000D01*
G37*
%TO.C,JP1*%
G36*
X254000Y48589500D02*
G01*
X-254000Y48589500D01*
X-254000Y49070500D01*
X254000Y49070500D01*
X254000Y48589500D01*
G37*
G36*
X59754000Y-36490500D02*
G01*
X59246000Y-36490500D01*
X59246000Y-36009500D01*
X59754000Y-36009500D01*
X59754000Y-36490500D01*
G37*
G36*
X59754000Y48589500D02*
G01*
X59246000Y48589500D01*
X59246000Y49070500D01*
X59754000Y49070500D01*
X59754000Y48589500D01*
G37*
G36*
X254000Y-36490500D02*
G01*
X-254000Y-36490500D01*
X-254000Y-36009500D01*
X254000Y-36009500D01*
X254000Y-36490500D01*
G37*
%TO.C,JP2*%
G36*
X-16256000Y118356100D02*
G01*
X-16764000Y118356100D01*
X-16764000Y119803900D01*
X-16256000Y119803900D01*
X-16256000Y118356100D01*
G37*
G36*
X43244000Y118356100D02*
G01*
X42736000Y118356100D01*
X42736000Y119803900D01*
X43244000Y119803900D01*
X43244000Y118356100D01*
G37*
G36*
X43244000Y33276100D02*
G01*
X42736000Y33276100D01*
X42736000Y34723900D01*
X43244000Y34723900D01*
X43244000Y33276100D01*
G37*
G36*
X-16256000Y33276100D02*
G01*
X-16764000Y33276100D01*
X-16764000Y34723900D01*
X-16256000Y34723900D01*
X-16256000Y33276100D01*
G37*
%TO.C,JP4*%
G36*
X81240500Y-7754000D02*
G01*
X80759500Y-7754000D01*
X80759500Y-7246000D01*
X81240500Y-7246000D01*
X81240500Y-7754000D01*
G37*
G36*
X21740500Y77326000D02*
G01*
X21259500Y77326000D01*
X21259500Y77834000D01*
X21740500Y77834000D01*
X21740500Y77326000D01*
G37*
G36*
X81240500Y77326000D02*
G01*
X80759500Y77326000D01*
X80759500Y77834000D01*
X81240500Y77834000D01*
X81240500Y77326000D01*
G37*
G36*
X21740500Y-7754000D02*
G01*
X21259500Y-7754000D01*
X21259500Y-7246000D01*
X21740500Y-7246000D01*
X21740500Y-7754000D01*
G37*
%TO.C,JP3*%
G36*
X15254000Y121839500D02*
G01*
X14746000Y121839500D01*
X14746000Y122320500D01*
X15254000Y122320500D01*
X15254000Y121839500D01*
G37*
G36*
X74754000Y36759500D02*
G01*
X74246000Y36759500D01*
X74246000Y37240500D01*
X74754000Y37240500D01*
X74754000Y36759500D01*
G37*
G36*
X74754000Y121839500D02*
G01*
X74246000Y121839500D01*
X74246000Y122320500D01*
X74754000Y122320500D01*
X74754000Y121839500D01*
G37*
G36*
X15254000Y36759500D02*
G01*
X14746000Y36759500D01*
X14746000Y37240500D01*
X15254000Y37240500D01*
X15254000Y36759500D01*
G37*
%TO.C,JP6*%
G36*
X44754000Y-38490500D02*
G01*
X44246000Y-38490500D01*
X44246000Y-38009500D01*
X44754000Y-38009500D01*
X44754000Y-38490500D01*
G37*
G36*
X44754000Y46589500D02*
G01*
X44246000Y46589500D01*
X44246000Y47070500D01*
X44754000Y47070500D01*
X44754000Y46589500D01*
G37*
G36*
X-14746000Y46589500D02*
G01*
X-15254000Y46589500D01*
X-15254000Y47070500D01*
X-14746000Y47070500D01*
X-14746000Y46589500D01*
G37*
G36*
X-14746000Y-38490500D02*
G01*
X-15254000Y-38490500D01*
X-15254000Y-38009500D01*
X-14746000Y-38009500D01*
X-14746000Y-38490500D01*
G37*
%TO.C,JP5*%
G36*
X-14759500Y69326000D02*
G01*
X-15240500Y69326000D01*
X-15240500Y69834000D01*
X-14759500Y69834000D01*
X-14759500Y69326000D01*
G37*
G36*
X44740500Y-15754000D02*
G01*
X44259500Y-15754000D01*
X44259500Y-15246000D01*
X44740500Y-15246000D01*
X44740500Y-15754000D01*
G37*
G36*
X44740500Y69326000D02*
G01*
X44259500Y69326000D01*
X44259500Y69834000D01*
X44740500Y69834000D01*
X44740500Y69326000D01*
G37*
G36*
X-14759500Y-15754000D02*
G01*
X-15240500Y-15754000D01*
X-15240500Y-15246000D01*
X-14759500Y-15246000D01*
X-14759500Y-15754000D01*
G37*
%TD*%
D11*
%TO.C,ST2*%
X23500000Y51080000D03*
%TD*%
%TO.C,ST2*%
X83000000Y51080000D03*
%TD*%
%TO.C,ST2*%
X83000000Y-34000000D03*
%TD*%
%TO.C,ST2*%
X23500000Y-34000000D03*
%TD*%
D12*
%TO.C,J7*%
X87440000Y-10160000D03*
X87440000Y-12700000D03*
X87440000Y-15240000D03*
X87440000Y-17780000D03*
X87440000Y-20320000D03*
X87440000Y-22860000D03*
X87440000Y-25400000D03*
X87440000Y-27940000D03*
X87440000Y-30480000D03*
X87440000Y-33020000D03*
X87440000Y-35560000D03*
X87440000Y-38100000D03*
%TD*%
%TO.C,J7*%
X87440000Y74920000D03*
X87440000Y72380000D03*
X87440000Y69840000D03*
X87440000Y67300000D03*
X87440000Y64760000D03*
X87440000Y62220000D03*
X87440000Y59680000D03*
X87440000Y57140000D03*
X87440000Y54600000D03*
X87440000Y52060000D03*
X87440000Y49520000D03*
X87440000Y46980000D03*
%TD*%
%TO.C,J7*%
X27940000Y74920000D03*
X27940000Y72380000D03*
X27940000Y69840000D03*
X27940000Y67300000D03*
X27940000Y64760000D03*
X27940000Y62220000D03*
X27940000Y59680000D03*
X27940000Y57140000D03*
X27940000Y54600000D03*
X27940000Y52060000D03*
X27940000Y49520000D03*
X27940000Y46980000D03*
%TD*%
%TO.C,J7*%
X27940000Y-10160000D03*
X27940000Y-12700000D03*
X27940000Y-15240000D03*
X27940000Y-17780000D03*
X27940000Y-20320000D03*
X27940000Y-22860000D03*
X27940000Y-25400000D03*
X27940000Y-27940000D03*
X27940000Y-30480000D03*
X27940000Y-33020000D03*
X27940000Y-35560000D03*
X27940000Y-38100000D03*
%TD*%
D13*
%TO.C,J1*%
X56610000Y-33195000D03*
X62390000Y-33195000D03*
D14*
X55182000Y-36845000D03*
D15*
X55182000Y-32665000D03*
X63818000Y-32665000D03*
D14*
X63818000Y-36845000D03*
%TD*%
D13*
%TO.C,J1*%
X-2890000Y51885000D03*
X2890000Y51885000D03*
D14*
X-4318000Y48235000D03*
D15*
X-4318000Y52415000D03*
X4318000Y52415000D03*
D14*
X4318000Y48235000D03*
%TD*%
D13*
%TO.C,J1*%
X56610000Y51885000D03*
X62390000Y51885000D03*
D14*
X55182000Y48235000D03*
D15*
X55182000Y52415000D03*
X63818000Y52415000D03*
D14*
X63818000Y48235000D03*
%TD*%
D13*
%TO.C,J1*%
X-2890000Y-33195000D03*
X2890000Y-33195000D03*
D14*
X-4318000Y-36845000D03*
D15*
X-4318000Y-32665000D03*
X4318000Y-32665000D03*
D14*
X4318000Y-36845000D03*
%TD*%
D11*
%TO.C,ST4*%
X36000000Y119080000D03*
%TD*%
%TO.C,ST4*%
X-23500000Y119080000D03*
%TD*%
%TO.C,ST4*%
X36000000Y34000000D03*
%TD*%
%TO.C,ST4*%
X-23500000Y34000000D03*
%TD*%
D12*
%TO.C,J8*%
X27940000Y123180000D03*
X27940000Y120640000D03*
X27940000Y118100000D03*
X27940000Y115560000D03*
X27940000Y113020000D03*
X27940000Y110480000D03*
X27940000Y107940000D03*
X27940000Y105400000D03*
X27940000Y102860000D03*
X27940000Y100320000D03*
X27940000Y97780000D03*
X27940000Y95240000D03*
%TD*%
%TO.C,J8*%
X87440000Y38100000D03*
X87440000Y35560000D03*
X87440000Y33020000D03*
X87440000Y30480000D03*
X87440000Y27940000D03*
X87440000Y25400000D03*
X87440000Y22860000D03*
X87440000Y20320000D03*
X87440000Y17780000D03*
X87440000Y15240000D03*
X87440000Y12700000D03*
X87440000Y10160000D03*
%TD*%
%TO.C,J8*%
X87440000Y123180000D03*
X87440000Y120640000D03*
X87440000Y118100000D03*
X87440000Y115560000D03*
X87440000Y113020000D03*
X87440000Y110480000D03*
X87440000Y107940000D03*
X87440000Y105400000D03*
X87440000Y102860000D03*
X87440000Y100320000D03*
X87440000Y97780000D03*
X87440000Y95240000D03*
%TD*%
%TO.C,J8*%
X27940000Y38100000D03*
X27940000Y35560000D03*
X27940000Y33020000D03*
X27940000Y30480000D03*
X27940000Y27940000D03*
X27940000Y25400000D03*
X27940000Y22860000D03*
X27940000Y20320000D03*
X27940000Y17780000D03*
X27940000Y15240000D03*
X27940000Y12700000D03*
X27940000Y10160000D03*
%TD*%
D16*
%TO.C,J2*%
X62040000Y0D03*
X59500000Y0D03*
X56960000Y0D03*
%TD*%
%TO.C,J2*%
X62040000Y85080000D03*
X59500000Y85080000D03*
X56960000Y85080000D03*
%TD*%
%TO.C,J2*%
X2540000Y85080000D03*
X0Y85080000D03*
X-2540000Y85080000D03*
%TD*%
%TO.C,J2*%
X2540000Y0D03*
X0Y0D03*
X-2540000Y0D03*
%TD*%
D17*
%TO.C,SW1*%
X47000000Y29750000D03*
X47000000Y26750000D03*
%TD*%
%TO.C,SW1*%
X47000000Y114830000D03*
X47000000Y111830000D03*
%TD*%
%TO.C,SW1*%
X-12500000Y114830000D03*
X-12500000Y111830000D03*
%TD*%
%TO.C,SW1*%
X-12500000Y29750000D03*
X-12500000Y26750000D03*
%TD*%
D13*
%TO.C,J3*%
X77390000Y33195000D03*
X71610000Y33195000D03*
D14*
X78818000Y36845000D03*
D15*
X78818000Y32665000D03*
X70182000Y32665000D03*
D14*
X70182000Y36845000D03*
%TD*%
D13*
%TO.C,J3*%
X17890000Y118275000D03*
X12110000Y118275000D03*
D14*
X19318000Y121925000D03*
D15*
X19318000Y117745000D03*
X10682000Y117745000D03*
D14*
X10682000Y121925000D03*
%TD*%
D13*
%TO.C,J3*%
X77390000Y118275000D03*
X71610000Y118275000D03*
D14*
X78818000Y121925000D03*
D15*
X78818000Y117745000D03*
X70182000Y117745000D03*
D14*
X70182000Y121925000D03*
%TD*%
D13*
%TO.C,J3*%
X17890000Y33195000D03*
X12110000Y33195000D03*
D14*
X19318000Y36845000D03*
D15*
X19318000Y32665000D03*
X10682000Y32665000D03*
D14*
X10682000Y36845000D03*
%TD*%
D11*
%TO.C,ST1*%
X36000000Y-34000000D03*
%TD*%
%TO.C,ST1*%
X-23500000Y51080000D03*
%TD*%
%TO.C,ST1*%
X36000000Y51080000D03*
%TD*%
%TO.C,ST1*%
X-23500000Y-34000000D03*
%TD*%
D12*
%TO.C,J6*%
X31560000Y123180000D03*
X31560000Y120640000D03*
X31560000Y118100000D03*
X31560000Y115560000D03*
X31560000Y113020000D03*
X31560000Y110480000D03*
X31560000Y107940000D03*
X31560000Y105400000D03*
X31560000Y102860000D03*
X31560000Y100320000D03*
X31560000Y97780000D03*
X31560000Y95240000D03*
%TD*%
%TO.C,J6*%
X-27940000Y123180000D03*
X-27940000Y120640000D03*
X-27940000Y118100000D03*
X-27940000Y115560000D03*
X-27940000Y113020000D03*
X-27940000Y110480000D03*
X-27940000Y107940000D03*
X-27940000Y105400000D03*
X-27940000Y102860000D03*
X-27940000Y100320000D03*
X-27940000Y97780000D03*
X-27940000Y95240000D03*
%TD*%
%TO.C,J6*%
X31560000Y38100000D03*
X31560000Y35560000D03*
X31560000Y33020000D03*
X31560000Y30480000D03*
X31560000Y27940000D03*
X31560000Y25400000D03*
X31560000Y22860000D03*
X31560000Y20320000D03*
X31560000Y17780000D03*
X31560000Y15240000D03*
X31560000Y12700000D03*
X31560000Y10160000D03*
%TD*%
%TO.C,J6*%
X-27940000Y38100000D03*
X-27940000Y35560000D03*
X-27940000Y33020000D03*
X-27940000Y30480000D03*
X-27940000Y27940000D03*
X-27940000Y25400000D03*
X-27940000Y22860000D03*
X-27940000Y20320000D03*
X-27940000Y17780000D03*
X-27940000Y15240000D03*
X-27940000Y12700000D03*
X-27940000Y10160000D03*
%TD*%
D11*
%TO.C,ST3*%
X23500000Y119080000D03*
%TD*%
%TO.C,ST3*%
X83000000Y119080000D03*
%TD*%
%TO.C,ST3*%
X83000000Y34000000D03*
%TD*%
%TO.C,ST3*%
X23500000Y34000000D03*
%TD*%
D12*
%TO.C,J5*%
X-27940000Y74920000D03*
X-27940000Y72380000D03*
X-27940000Y69840000D03*
X-27940000Y67300000D03*
X-27940000Y64760000D03*
X-27940000Y62220000D03*
X-27940000Y59680000D03*
X-27940000Y57140000D03*
X-27940000Y54600000D03*
X-27940000Y52060000D03*
X-27940000Y49520000D03*
X-27940000Y46980000D03*
%TD*%
%TO.C,J5*%
X31560000Y-10160000D03*
X31560000Y-12700000D03*
X31560000Y-15240000D03*
X31560000Y-17780000D03*
X31560000Y-20320000D03*
X31560000Y-22860000D03*
X31560000Y-25400000D03*
X31560000Y-27940000D03*
X31560000Y-30480000D03*
X31560000Y-33020000D03*
X31560000Y-35560000D03*
X31560000Y-38100000D03*
%TD*%
%TO.C,J5*%
X31560000Y74920000D03*
X31560000Y72380000D03*
X31560000Y69840000D03*
X31560000Y67300000D03*
X31560000Y64760000D03*
X31560000Y62220000D03*
X31560000Y59680000D03*
X31560000Y57140000D03*
X31560000Y54600000D03*
X31560000Y52060000D03*
X31560000Y49520000D03*
X31560000Y46980000D03*
%TD*%
%TO.C,J5*%
X-27940000Y-10160000D03*
X-27940000Y-12700000D03*
X-27940000Y-15240000D03*
X-27940000Y-17780000D03*
X-27940000Y-20320000D03*
X-27940000Y-22860000D03*
X-27940000Y-25400000D03*
X-27940000Y-27940000D03*
X-27940000Y-30480000D03*
X-27940000Y-33020000D03*
X-27940000Y-35560000D03*
X-27940000Y-38100000D03*
%TD*%
D18*
%TO.C,TP4*%
X61000000Y-32500000D03*
%TD*%
%TO.C,TP4*%
X1500000Y52580000D03*
%TD*%
%TO.C,TP4*%
X61000000Y52580000D03*
%TD*%
%TO.C,TP4*%
X1500000Y-32500000D03*
%TD*%
D19*
%TO.C,JP7*%
X31500000Y2958600D03*
X31500000Y4000000D03*
D20*
X31500000Y5041400D03*
%TD*%
D19*
%TO.C,JP7*%
X31500000Y88038600D03*
X31500000Y89080000D03*
D20*
X31500000Y90121400D03*
%TD*%
D19*
%TO.C,JP7*%
X-28000000Y88038600D03*
X-28000000Y89080000D03*
D20*
X-28000000Y90121400D03*
%TD*%
D19*
%TO.C,JP7*%
X-28000000Y2958600D03*
X-28000000Y4000000D03*
D20*
X-28000000Y5041400D03*
%TD*%
D18*
%TO.C,TP5*%
X61000000Y9500000D03*
%TD*%
%TO.C,TP5*%
X1500000Y94580000D03*
%TD*%
%TO.C,TP5*%
X61000000Y94580000D03*
%TD*%
%TO.C,TP5*%
X1500000Y9500000D03*
%TD*%
D21*
%TO.C,FID3*%
X36500000Y124080000D03*
%TD*%
%TO.C,FID3*%
X36500000Y39000000D03*
%TD*%
%TO.C,FID3*%
X-23000000Y124080000D03*
%TD*%
%TO.C,FID3*%
X-23000000Y39000000D03*
%TD*%
D22*
%TO.C,JP1*%
X520700Y48830000D03*
X-520700Y48830000D03*
%TD*%
%TO.C,JP1*%
X60020700Y-36250000D03*
X58979300Y-36250000D03*
%TD*%
%TO.C,JP1*%
X60020700Y48830000D03*
X58979300Y48830000D03*
%TD*%
%TO.C,JP1*%
X520700Y-36250000D03*
X-520700Y-36250000D03*
%TD*%
D12*
%TO.C,JP2*%
X-17780000Y119080000D03*
D23*
X-17018000Y119080000D03*
X-16002000Y119080000D03*
D12*
X-15240000Y119080000D03*
%TD*%
%TO.C,JP2*%
X41720000Y119080000D03*
D23*
X42482000Y119080000D03*
X43498000Y119080000D03*
D12*
X44260000Y119080000D03*
%TD*%
%TO.C,JP2*%
X41720000Y34000000D03*
D23*
X42482000Y34000000D03*
X43498000Y34000000D03*
D12*
X44260000Y34000000D03*
%TD*%
%TO.C,JP2*%
X-17780000Y34000000D03*
D23*
X-17018000Y34000000D03*
X-16002000Y34000000D03*
D12*
X-15240000Y34000000D03*
%TD*%
D18*
%TO.C,TP2*%
X70500000Y75080000D03*
%TD*%
%TO.C,TP2*%
X11000000Y75080000D03*
%TD*%
%TO.C,TP2*%
X70500000Y-10000000D03*
%TD*%
%TO.C,TP2*%
X11000000Y-10000000D03*
%TD*%
%TO.C,TP9*%
X76000000Y32500000D03*
%TD*%
%TO.C,TP9*%
X16500000Y117580000D03*
%TD*%
%TO.C,TP9*%
X76000000Y117580000D03*
%TD*%
%TO.C,TP9*%
X16500000Y32500000D03*
%TD*%
D21*
%TO.C,FID2*%
X23000000Y46080000D03*
%TD*%
%TO.C,FID2*%
X82500000Y-39000000D03*
%TD*%
%TO.C,FID2*%
X82500000Y46080000D03*
%TD*%
%TO.C,FID2*%
X23000000Y-39000000D03*
%TD*%
D24*
%TO.C,*%
X92675000Y127910000D03*
%TD*%
D18*
%TO.C,TP8*%
X61000000Y97580000D03*
%TD*%
%TO.C,TP8*%
X61000000Y12500000D03*
%TD*%
%TO.C,TP8*%
X1500000Y97580000D03*
%TD*%
%TO.C,TP8*%
X1500000Y12500000D03*
%TD*%
%TO.C,TP6*%
X-1500000Y94580000D03*
%TD*%
%TO.C,TP6*%
X58000000Y9500000D03*
%TD*%
%TO.C,TP6*%
X58000000Y94580000D03*
%TD*%
%TO.C,TP6*%
X-1500000Y9500000D03*
%TD*%
%TO.C,TP7*%
X58000000Y97580000D03*
%TD*%
%TO.C,TP7*%
X58000000Y12500000D03*
%TD*%
%TO.C,TP7*%
X-1500000Y97580000D03*
%TD*%
%TO.C,TP7*%
X-1500000Y12500000D03*
%TD*%
D19*
%TO.C,JP4*%
X81000000Y-8020700D03*
X81000000Y-6979300D03*
%TD*%
%TO.C,JP4*%
X21500000Y77059300D03*
X21500000Y78100700D03*
%TD*%
%TO.C,JP4*%
X81000000Y77059300D03*
X81000000Y78100700D03*
%TD*%
%TO.C,JP4*%
X21500000Y-8020700D03*
X21500000Y-6979300D03*
%TD*%
D18*
%TO.C,TP10*%
X73000000Y32500000D03*
%TD*%
%TO.C,TP10*%
X73000000Y117580000D03*
%TD*%
%TO.C,TP10*%
X13500000Y117580000D03*
%TD*%
%TO.C,TP10*%
X13500000Y32500000D03*
%TD*%
%TO.C,TP1*%
X15000000Y49830000D03*
%TD*%
%TO.C,TP1*%
X74500000Y-35250000D03*
%TD*%
%TO.C,TP1*%
X74500000Y49830000D03*
%TD*%
%TO.C,TP1*%
X15000000Y-35250000D03*
%TD*%
D25*
%TO.C,JP3*%
X14479300Y122080000D03*
X15520700Y122080000D03*
%TD*%
%TO.C,JP3*%
X73979300Y37000000D03*
X75020700Y37000000D03*
%TD*%
%TO.C,JP3*%
X73979300Y122080000D03*
X75020700Y122080000D03*
%TD*%
%TO.C,JP3*%
X14479300Y37000000D03*
X15520700Y37000000D03*
%TD*%
D24*
%TO.C,*%
X-33175000Y127910000D03*
%TD*%
D25*
%TO.C,JP6*%
X43979300Y-38250000D03*
X45020700Y-38250000D03*
%TD*%
%TO.C,JP6*%
X43979300Y46830000D03*
X45020700Y46830000D03*
%TD*%
%TO.C,JP6*%
X-15520700Y46830000D03*
X-14479300Y46830000D03*
%TD*%
%TO.C,JP6*%
X-15520700Y-38250000D03*
X-14479300Y-38250000D03*
%TD*%
D24*
%TO.C,*%
X-33175000Y-42830000D03*
%TD*%
D19*
%TO.C,JP5*%
X-15000000Y69059300D03*
X-15000000Y70100700D03*
%TD*%
%TO.C,JP5*%
X44500000Y-16020700D03*
X44500000Y-14979300D03*
%TD*%
%TO.C,JP5*%
X44500000Y69059300D03*
X44500000Y70100700D03*
%TD*%
%TO.C,JP5*%
X-15000000Y-16020700D03*
X-15000000Y-14979300D03*
%TD*%
D18*
%TO.C,TP3*%
X-1500000Y52580000D03*
%TD*%
%TO.C,TP3*%
X58000000Y-32500000D03*
%TD*%
%TO.C,TP3*%
X58000000Y52580000D03*
%TD*%
%TO.C,TP3*%
X-1500000Y-32500000D03*
%TD*%
M02*
