M48
; DRILL file {KiCad 8.0.5} date 2024-11-04T11:07:50-0700
; FORMAT={-:-/ absolute / metric / decimal}
; #@! TF.CreationDate,2024-11-04T11:07:50-07:00
; #@! TF.GenerationSoftware,Kicad,Pcbnew,8.0.5
; #@! TF.FileFunction,MixedPlating,1,4
FMAT,2
METRIC
; #@! TA.AperFunction,Plated,PTH,ViaDrill
T1C0.300
; #@! TA.AperFunction,Plated,PTH,ComponentDrill
T2C0.600
; #@! TA.AperFunction,Plated,PTH,ComponentDrill
T3C1.016
; #@! TA.AperFunction,NonPlated,NPTH,ComponentDrill
T4C0.650
; #@! TA.AperFunction,NonPlated,NPTH,ComponentDrill
T5C0.850
; #@! TA.AperFunction,NonPlated,NPTH,ComponentDrill
T6C3.100
%
G90
G05
T1
X-28.75Y80.58
X-28.75Y-4.5
X-26.5Y91.08
X-26.5Y89.08
X-26.5Y87.08
X-26.5Y6.0
X-26.5Y4.0
X-26.5Y2.0
X-25.25Y56.08
X-25.25Y-29.0
X-24.5Y91.58
X-24.5Y86.58
X-24.5Y6.5
X-24.5Y1.5
X-22.25Y80.58
X-22.25Y78.58
X-22.25Y-4.5
X-22.25Y-6.5
X-21.5Y91.38
X-21.5Y86.78
X-21.5Y6.3
X-21.5Y1.7
X-21.0Y115.83
X-21.0Y101.83
X-21.0Y90.58
X-21.0Y87.58
X-21.0Y30.75
X-21.0Y16.75
X-21.0Y5.5
X-21.0Y2.5
X-20.75Y75.58
X-20.75Y73.58
X-20.75Y-9.5
X-20.75Y-11.5
X-20.0Y75.58
X-20.0Y73.58
X-20.0Y-9.5
X-20.0Y-11.5
X-19.75Y111.83
X-19.75Y26.75
X-19.5Y103.08
X-19.5Y55.823
X-19.5Y18.0
X-19.5Y-29.257
X-19.25Y75.58
X-19.25Y73.58
X-19.25Y-9.5
X-19.25Y-11.5
X-19.075Y68.805
X-19.075Y-16.275
X-19.0Y70.08
X-19.0Y-15.0
X-18.9Y71.08
X-18.9Y-14.0
X-18.75Y114.073
X-18.75Y77.33
X-18.75Y28.993
X-18.75Y-7.75
X-18.0Y81.58
X-18.0Y-3.5
X-17.5Y103.58
X-17.5Y84.08
X-17.5Y77.18
X-17.5Y64.83
X-17.5Y18.5
X-17.5Y-1.0
X-17.5Y-7.9
X-17.5Y-20.25
X-17.25Y109.83
X-17.25Y84.83
X-17.25Y83.33
X-17.25Y67.83
X-17.25Y24.75
X-17.25Y-0.25
X-17.25Y-1.75
X-17.25Y-17.25
X-16.75Y111.33
X-16.75Y84.08
X-16.75Y77.83
X-16.75Y46.83
X-16.75Y26.25
X-16.75Y-1.0
X-16.75Y-7.25
X-16.75Y-38.25
X-16.7Y67.08
X-16.7Y-18.0
X-16.5Y120.58
X-16.5Y115.33
X-16.5Y114.58
X-16.5Y63.08
X-16.5Y35.5
X-16.5Y30.25
X-16.5Y29.5
X-16.5Y-22.0
X-16.0Y55.58
X-16.0Y-29.5
X-15.5Y104.08
X-15.5Y19.0
X-15.1Y60.88
X-15.1Y-24.2
X-15.0Y85.08
X-15.0Y81.58
X-15.0Y71.08
X-15.0Y66.33
X-15.0Y55.58
X-15.0Y0.0
X-15.0Y-3.5
X-15.0Y-14.0
X-15.0Y-18.75
X-15.0Y-29.5
X-14.8Y73.08
X-14.8Y-12.0
X-14.6Y74.582
X-14.6Y-10.498
X-14.25Y115.83
X-14.25Y30.75
X-13.75Y115.08
X-13.75Y108.33
X-13.75Y105.83
X-13.75Y59.58
X-13.75Y30.0
X-13.75Y23.25
X-13.75Y20.75
X-13.75Y-25.5
X-13.5Y73.83
X-13.5Y63.08
X-13.5Y-11.25
X-13.5Y-22.0
X-13.25Y76.33
X-13.25Y69.58
X-13.25Y46.83
X-13.25Y-8.75
X-13.25Y-15.5
X-13.25Y-38.25
X-13.0Y109.08
X-13.0Y66.58
X-13.0Y24.0
X-13.0Y-18.5
X-12.9Y59.58
X-12.9Y-25.5
X-12.75Y72.83
X-12.75Y-12.25
X-12.5Y77.18
X-12.5Y-7.9
X-12.0Y109.08
X-12.0Y67.78
X-12.0Y67.08
X-12.0Y24.0
X-12.0Y-17.3
X-12.0Y-18.0
X-11.9Y113.93
X-11.9Y28.85
X-11.5Y121.58
X-11.5Y74.58
X-11.5Y36.5
X-11.5Y-10.5
X-11.25Y113.33
X-11.25Y108.33
X-11.25Y28.25
X-11.25Y23.25
X-11.0Y111.58
X-11.0Y104.83
X-11.0Y63.83
X-11.0Y62.83
X-11.0Y26.5
X-11.0Y19.75
X-11.0Y-21.25
X-11.0Y-22.25
X-10.75Y118.08
X-10.75Y85.58
X-10.75Y33.0
X-10.75Y0.5
X-10.5Y55.83
X-10.5Y-29.25
X-10.0Y121.58
X-10.0Y85.08
X-10.0Y36.5
X-10.0Y0.0
X-9.5Y117.08
X-9.5Y84.33
X-9.5Y32.0
X-9.5Y-0.75
X-8.5Y121.58
X-8.5Y36.5
X-8.0Y114.58
X-8.0Y113.58
X-8.0Y112.73
X-8.0Y111.43
X-8.0Y109.08
X-8.0Y29.5
X-8.0Y28.5
X-8.0Y27.65
X-8.0Y26.35
X-8.0Y24.0
X-7.75Y107.08
X-7.75Y75.58
X-7.75Y74.08
X-7.75Y72.58
X-7.75Y71.08
X-7.75Y69.58
X-7.75Y22.0
X-7.75Y-9.5
X-7.75Y-11.0
X-7.75Y-12.5
X-7.75Y-14.0
X-7.75Y-15.5
X-6.5Y121.33
X-6.5Y105.33
X-6.5Y36.25
X-6.5Y20.25
X-6.25Y79.58
X-6.25Y78.83
X-6.25Y77.83
X-6.25Y-5.5
X-6.25Y-6.25
X-6.25Y-7.25
X-6.0Y80.33
X-6.0Y71.83
X-6.0Y-4.75
X-6.0Y-13.25
X-5.507Y81.08
X-5.507Y-4.0
X-5.25Y119.58
X-5.25Y115.08
X-5.25Y113.08
X-5.25Y34.5
X-5.25Y30.0
X-5.25Y28.0
X-5.0Y113.93
X-5.0Y110.23
X-5.0Y80.33
X-5.0Y28.85
X-5.0Y25.15
X-5.0Y-4.75
X-4.9Y66.88
X-4.9Y-18.2
X-4.3Y75.187
X-4.3Y74.173
X-4.3Y72.98
X-4.3Y-9.893
X-4.3Y-10.907
X-4.3Y-12.1
X-4.25Y109.58
X-4.25Y106.83
X-4.25Y24.5
X-4.25Y21.75
X-4.0Y67.78
X-4.0Y-17.3
X-3.75Y98.33
X-3.75Y69.08
X-3.75Y57.83
X-3.75Y13.25
X-3.75Y-16.0
X-3.75Y-27.25
X-3.5Y82.78
X-3.5Y50.83
X-3.5Y-2.3
X-3.5Y-34.25
X-3.4Y79.38
X-3.4Y71.08
X-3.4Y-5.7
X-3.4Y-14.0
X-3.25Y54.08
X-3.25Y-31.0
X-2.6Y69.98
X-2.6Y-15.1
X-2.507Y75.187
X-2.507Y73.88
X-2.507Y73.08
X-2.507Y-9.893
X-2.507Y-11.2
X-2.507Y-12.0
X-2.5Y98.58
X-2.5Y94.53
X-2.5Y13.5
X-2.5Y9.45
X-2.4Y53.93
X-2.4Y-31.15
X-2.0Y79.38
X-2.0Y-5.7
X-1.75Y77.587
X-1.75Y-7.493
X-1.4Y69.98
X-1.4Y-15.1
X-1.25Y98.587
X-1.25Y76.33
X-1.25Y75.08
X-1.25Y73.83
X-1.25Y13.507
X-1.25Y-8.75
X-1.25Y-10.0
X-1.25Y-11.25
X-0.9Y77.587
X-0.9Y-7.493
X-0.75Y103.58
X-0.75Y51.83
X-0.75Y18.5
X-0.75Y-33.25
X-0.5Y82.78
X-0.5Y-2.3
X0.0Y98.587
X0.0Y94.58
X0.0Y76.33
X0.0Y75.08
X0.0Y73.83
X0.0Y56.83
X0.0Y54.353
X0.0Y13.507
X0.0Y9.5
X0.0Y-8.75
X0.0Y-10.0
X0.0Y-11.25
X0.0Y-28.25
X0.0Y-30.727
X0.5Y68.68
X0.5Y52.08
X0.5Y-16.4
X0.5Y-33.0
X1.25Y76.33
X1.25Y75.08
X1.25Y73.83
X1.25Y-8.75
X1.25Y-10.0
X1.25Y-11.25
X1.307Y79.68
X1.307Y-5.4
X2.4Y53.93
X2.4Y-31.15
X2.4Y72.488
X2.4Y-12.592
X2.5Y102.33
X2.5Y98.587
X2.5Y94.83
X2.5Y83.33
X2.5Y64.88
X2.5Y17.25
X2.5Y13.507
X2.5Y9.75
X2.5Y-1.75
X2.5Y-20.2
X2.507Y76.33
X2.507Y75.474
X2.507Y74.787
X2.507Y73.38
X2.507Y-8.75
X2.507Y-9.606
X2.507Y-10.293
X2.507Y-11.7
X3.25Y54.08
X3.25Y-31.0
X3.5Y50.83
X3.5Y-34.25
X3.6Y66.58
X3.6Y-18.5
X3.75Y57.83
X3.75Y-27.25
X4.0Y96.58
X4.0Y79.83
X4.0Y11.5
X4.0Y-5.25
X4.281Y73.468
X4.281Y-11.612
X4.359Y75.729
X4.359Y-9.351
X4.368Y72.787
X4.368Y-12.293
X5.0Y113.93
X5.0Y112.83
X5.0Y111.53
X5.0Y103.33
X5.0Y96.58
X5.0Y28.85
X5.0Y27.75
X5.0Y26.45
X5.0Y18.25
X5.0Y11.5
X5.25Y123.08
X5.25Y119.83
X5.25Y107.08
X5.25Y38.0
X5.25Y34.75
X5.25Y22.0
X6.0Y76.173
X6.0Y71.78
X6.0Y-8.907
X6.0Y-13.3
X6.5Y105.33
X6.5Y20.25
X6.75Y57.58
X6.75Y-27.5
X7.0Y64.08
X7.0Y-21.0
X7.2Y103.23
X7.2Y18.15
X7.25Y85.58
X7.25Y80.58
X7.25Y0.5
X7.25Y-4.5
X7.5Y99.83
X7.5Y14.75
X7.75Y75.58
X7.75Y-9.5
X7.8Y74.58
X7.8Y-10.5
X8.0Y123.08
X8.0Y119.83
X8.0Y118.93
X8.0Y117.73
X8.0Y116.43
X8.0Y115.23
X8.0Y113.83
X8.0Y112.73
X8.0Y110.23
X8.0Y107.83
X8.0Y103.58
X8.0Y38.0
X8.0Y34.75
X8.0Y33.85
X8.0Y32.65
X8.0Y31.35
X8.0Y30.15
X8.0Y28.75
X8.0Y27.65
X8.0Y25.15
X8.0Y22.75
X8.0Y18.5
X8.6Y110.83
X8.6Y25.75
X8.75Y117.08
X8.75Y68.83
X8.75Y32.0
X8.75Y-16.25
X8.8Y103.23
X8.8Y18.15
X9.25Y83.83
X9.25Y80.58
X9.25Y-1.25
X9.25Y-4.5
X10.0Y61.08
X10.0Y-24.0
X10.5Y112.83
X10.5Y27.75
X10.75Y80.08
X10.75Y64.33
X10.75Y-5.0
X10.75Y-20.75
X11.0Y78.58
X11.0Y75.08
X11.0Y-6.5
X11.0Y-10.0
X11.5Y119.33
X11.5Y113.58
X11.5Y34.25
X11.5Y28.5
X11.75Y116.08
X11.75Y31.0
X12.0Y87.58
X12.0Y81.58
X12.0Y2.5
X12.0Y-3.5
X12.6Y116.23
X12.6Y31.15
X13.5Y48.83
X13.5Y-36.25
X14.25Y72.58
X14.25Y-12.5
X14.491Y118.062
X14.491Y32.982
X14.5Y75.83
X14.5Y-9.25
X15.0Y115.807
X15.0Y113.33
X15.0Y30.727
X15.0Y28.25
X15.75Y118.33
X15.75Y33.25
X16.0Y90.08
X16.0Y80.33
X16.0Y5.0
X16.0Y-4.75
X16.5Y107.58
X16.5Y50.83
X16.5Y49.83
X16.5Y22.5
X16.5Y-34.25
X16.5Y-35.25
X16.75Y106.83
X16.75Y63.49
X16.75Y21.75
X16.75Y-21.59
X17.0Y102.33
X17.0Y17.25
X17.25Y121.58
X17.25Y36.5
X17.4Y116.23
X17.4Y31.15
X17.5Y106.58
X17.5Y100.83
X17.5Y21.5
X17.5Y15.75
X17.75Y54.08
X17.75Y-31.0
X18.0Y102.33
X18.0Y17.25
X18.25Y116.08
X18.25Y31.0
X18.5Y119.33
X18.5Y113.58
X18.5Y34.25
X18.5Y28.5
X18.75Y78.58
X18.75Y-6.5
X19.0Y57.83
X19.0Y-27.25
X19.75Y108.33
X19.75Y23.25
X20.0Y83.48
X20.0Y75.83
X20.0Y-1.6
X20.0Y-9.25
X20.25Y53.58
X20.25Y-31.5
X20.5Y90.08
X20.5Y80.33
X20.5Y5.0
X20.5Y-4.75
X21.59Y73.65
X21.59Y-11.43
X21.75Y110.33
X21.75Y102.33
X21.75Y25.25
X21.75Y17.25
X22.0Y83.48
X22.0Y-1.6
X22.5Y101.58
X22.5Y16.5
X23.0Y79.33
X23.0Y75.58
X23.0Y-5.75
X23.0Y-9.5
X23.1Y111.43
X23.1Y26.35
X23.25Y71.11
X23.25Y-13.97
X23.5Y86.58
X23.5Y83.83
X23.5Y1.5
X23.5Y-1.25
X24.0Y66.03
X24.0Y-19.05
X25.0Y112.08
X25.0Y75.58
X25.0Y66.08
X25.0Y27.0
X25.0Y-9.5
X25.0Y-19.0
X25.507Y68.57
X25.507Y-16.51
X28.75Y76.58
X28.75Y-8.5
X30.75Y80.58
X30.75Y-4.5
X33.0Y91.08
X33.0Y89.08
X33.0Y87.08
X33.0Y6.0
X33.0Y4.0
X33.0Y2.0
X34.25Y56.08
X34.25Y-29.0
X35.0Y91.58
X35.0Y86.58
X35.0Y6.5
X35.0Y1.5
X37.25Y80.58
X37.25Y78.58
X37.25Y-4.5
X37.25Y-6.5
X38.0Y91.38
X38.0Y86.78
X38.0Y6.3
X38.0Y1.7
X38.5Y115.83
X38.5Y101.83
X38.5Y90.58
X38.5Y87.58
X38.5Y30.75
X38.5Y16.75
X38.5Y5.5
X38.5Y2.5
X38.75Y75.58
X38.75Y73.58
X38.75Y-9.5
X38.75Y-11.5
X39.5Y75.58
X39.5Y73.58
X39.5Y-9.5
X39.5Y-11.5
X39.75Y111.83
X39.75Y26.75
X40.0Y103.08
X40.0Y55.823
X40.0Y18.0
X40.0Y-29.257
X40.25Y75.58
X40.25Y73.58
X40.25Y-9.5
X40.25Y-11.5
X40.425Y68.805
X40.425Y-16.275
X40.5Y70.08
X40.5Y-15.0
X40.6Y71.08
X40.6Y-14.0
X40.75Y114.073
X40.75Y77.33
X40.75Y28.993
X40.75Y-7.75
X41.5Y81.58
X41.5Y-3.5
X42.0Y103.58
X42.0Y84.08
X42.0Y77.18
X42.0Y64.83
X42.0Y18.5
X42.0Y-1.0
X42.0Y-7.9
X42.0Y-20.25
X42.25Y109.83
X42.25Y84.83
X42.25Y83.33
X42.25Y67.83
X42.25Y24.75
X42.25Y-0.25
X42.25Y-1.75
X42.25Y-17.25
X42.75Y111.33
X42.75Y84.08
X42.75Y77.83
X42.75Y46.83
X42.75Y26.25
X42.75Y-1.0
X42.75Y-7.25
X42.75Y-38.25
X42.8Y67.08
X42.8Y-18.0
X43.0Y120.58
X43.0Y115.33
X43.0Y114.58
X43.0Y63.08
X43.0Y35.5
X43.0Y30.25
X43.0Y29.5
X43.0Y-22.0
X43.5Y55.58
X43.5Y-29.5
X44.0Y104.08
X44.0Y19.0
X44.4Y60.88
X44.4Y-24.2
X44.5Y85.08
X44.5Y81.58
X44.5Y71.08
X44.5Y66.33
X44.5Y55.58
X44.5Y0.0
X44.5Y-3.5
X44.5Y-14.0
X44.5Y-18.75
X44.5Y-29.5
X44.7Y73.08
X44.7Y-12.0
X44.9Y74.582
X44.9Y-10.498
X45.25Y115.83
X45.25Y30.75
X45.75Y115.08
X45.75Y108.33
X45.75Y105.83
X45.75Y59.58
X45.75Y30.0
X45.75Y23.25
X45.75Y20.75
X45.75Y-25.5
X46.0Y73.83
X46.0Y63.08
X46.0Y-11.25
X46.0Y-22.0
X46.25Y76.33
X46.25Y69.58
X46.25Y46.83
X46.25Y-8.75
X46.25Y-15.5
X46.25Y-38.25
X46.5Y109.08
X46.5Y66.58
X46.5Y24.0
X46.5Y-18.5
X46.6Y59.58
X46.6Y-25.5
X46.75Y72.83
X46.75Y-12.25
X47.0Y77.18
X47.0Y-7.9
X47.5Y109.08
X47.5Y67.78
X47.5Y67.08
X47.5Y24.0
X47.5Y-17.3
X47.5Y-18.0
X47.6Y113.93
X47.6Y28.85
X48.0Y121.58
X48.0Y74.58
X48.0Y36.5
X48.0Y-10.5
X48.25Y113.33
X48.25Y108.33
X48.25Y28.25
X48.25Y23.25
X48.5Y111.58
X48.5Y104.83
X48.5Y63.83
X48.5Y62.83
X48.5Y26.5
X48.5Y19.75
X48.5Y-21.25
X48.5Y-22.25
X48.75Y118.08
X48.75Y85.58
X48.75Y33.0
X48.75Y0.5
X49.0Y55.83
X49.0Y-29.25
X49.5Y121.58
X49.5Y85.08
X49.5Y36.5
X49.5Y0.0
X50.0Y117.08
X50.0Y84.33
X50.0Y32.0
X50.0Y-0.75
X51.0Y121.58
X51.0Y36.5
X51.5Y114.58
X51.5Y113.58
X51.5Y112.73
X51.5Y111.43
X51.5Y109.08
X51.5Y29.5
X51.5Y28.5
X51.5Y27.65
X51.5Y26.35
X51.5Y24.0
X51.75Y107.08
X51.75Y75.58
X51.75Y74.08
X51.75Y72.58
X51.75Y71.08
X51.75Y69.58
X51.75Y22.0
X51.75Y-9.5
X51.75Y-11.0
X51.75Y-12.5
X51.75Y-14.0
X51.75Y-15.5
X53.0Y121.33
X53.0Y105.33
X53.0Y36.25
X53.0Y20.25
X53.25Y79.58
X53.25Y78.83
X53.25Y77.83
X53.25Y-5.5
X53.25Y-6.25
X53.25Y-7.25
X53.5Y80.33
X53.5Y71.83
X53.5Y-4.75
X53.5Y-13.25
X53.993Y81.08
X53.993Y-4.0
X54.25Y119.58
X54.25Y115.08
X54.25Y113.08
X54.25Y34.5
X54.25Y30.0
X54.25Y28.0
X54.5Y113.93
X54.5Y110.23
X54.5Y80.33
X54.5Y28.85
X54.5Y25.15
X54.5Y-4.75
X54.6Y66.88
X54.6Y-18.2
X55.2Y75.187
X55.2Y74.173
X55.2Y72.98
X55.2Y-9.893
X55.2Y-10.907
X55.2Y-12.1
X55.25Y109.58
X55.25Y106.83
X55.25Y24.5
X55.25Y21.75
X55.5Y67.78
X55.5Y-17.3
X55.75Y98.33
X55.75Y69.08
X55.75Y57.83
X55.75Y13.25
X55.75Y-16.0
X55.75Y-27.25
X56.0Y82.78
X56.0Y50.83
X56.0Y-2.3
X56.0Y-34.25
X56.1Y79.38
X56.1Y71.08
X56.1Y-5.7
X56.1Y-14.0
X56.25Y54.08
X56.25Y-31.0
X56.9Y69.98
X56.9Y-15.1
X56.993Y75.187
X56.993Y73.88
X56.993Y73.08
X56.993Y-9.893
X56.993Y-11.2
X56.993Y-12.0
X57.0Y98.58
X57.0Y94.53
X57.0Y13.5
X57.0Y9.45
X57.1Y53.93
X57.1Y-31.15
X57.5Y79.38
X57.5Y-5.7
X57.75Y77.587
X57.75Y-7.493
X58.1Y69.98
X58.1Y-15.1
X58.25Y98.587
X58.25Y76.33
X58.25Y75.08
X58.25Y73.83
X58.25Y13.507
X58.25Y-8.75
X58.25Y-10.0
X58.25Y-11.25
X58.6Y77.587
X58.6Y-7.493
X58.75Y103.58
X58.75Y51.83
X58.75Y18.5
X58.75Y-33.25
X59.0Y82.78
X59.0Y-2.3
X59.5Y98.587
X59.5Y94.58
X59.5Y76.33
X59.5Y75.08
X59.5Y73.83
X59.5Y56.83
X59.5Y54.353
X59.5Y13.507
X59.5Y9.5
X59.5Y-8.75
X59.5Y-10.0
X59.5Y-11.25
X59.5Y-28.25
X59.5Y-30.727
X60.0Y68.68
X60.0Y52.08
X60.0Y-16.4
X60.0Y-33.0
X60.75Y76.33
X60.75Y75.08
X60.75Y73.83
X60.75Y-8.75
X60.75Y-10.0
X60.75Y-11.25
X60.807Y79.68
X60.807Y-5.4
X61.9Y53.93
X61.9Y-31.15
X61.9Y72.488
X61.9Y-12.592
X62.0Y102.33
X62.0Y98.587
X62.0Y94.83
X62.0Y83.33
X62.0Y64.88
X62.0Y17.25
X62.0Y13.507
X62.0Y9.75
X62.0Y-1.75
X62.0Y-20.2
X62.007Y76.33
X62.007Y75.474
X62.007Y74.787
X62.007Y73.38
X62.007Y-8.75
X62.007Y-9.606
X62.007Y-10.293
X62.007Y-11.7
X62.75Y54.08
X62.75Y-31.0
X63.0Y50.83
X63.0Y-34.25
X63.1Y66.58
X63.1Y-18.5
X63.25Y57.83
X63.25Y-27.25
X63.5Y96.58
X63.5Y79.83
X63.5Y11.5
X63.5Y-5.25
X63.781Y73.468
X63.781Y-11.612
X63.859Y75.729
X63.859Y-9.351
X63.868Y72.787
X63.868Y-12.293
X64.5Y113.93
X64.5Y112.83
X64.5Y111.53
X64.5Y103.33
X64.5Y96.58
X64.5Y28.85
X64.5Y27.75
X64.5Y26.45
X64.5Y18.25
X64.5Y11.5
X64.75Y123.08
X64.75Y119.83
X64.75Y107.08
X64.75Y38.0
X64.75Y34.75
X64.75Y22.0
X65.5Y76.173
X65.5Y71.78
X65.5Y-8.907
X65.5Y-13.3
X66.0Y105.33
X66.0Y20.25
X66.25Y57.58
X66.25Y-27.5
X66.5Y64.08
X66.5Y-21.0
X66.7Y103.23
X66.7Y18.15
X66.75Y85.58
X66.75Y80.58
X66.75Y0.5
X66.75Y-4.5
X67.0Y99.83
X67.0Y14.75
X67.25Y75.58
X67.25Y-9.5
X67.3Y74.58
X67.3Y-10.5
X67.5Y123.08
X67.5Y119.83
X67.5Y118.93
X67.5Y117.73
X67.5Y116.43
X67.5Y115.23
X67.5Y113.83
X67.5Y112.73
X67.5Y110.23
X67.5Y107.83
X67.5Y103.58
X67.5Y38.0
X67.5Y34.75
X67.5Y33.85
X67.5Y32.65
X67.5Y31.35
X67.5Y30.15
X67.5Y28.75
X67.5Y27.65
X67.5Y25.15
X67.5Y22.75
X67.5Y18.5
X68.1Y110.83
X68.1Y25.75
X68.25Y117.08
X68.25Y68.83
X68.25Y32.0
X68.25Y-16.25
X68.3Y103.23
X68.3Y18.15
X68.75Y83.83
X68.75Y80.58
X68.75Y-1.25
X68.75Y-4.5
X69.5Y61.08
X69.5Y-24.0
X70.0Y112.83
X70.0Y27.75
X70.25Y80.08
X70.25Y64.33
X70.25Y-5.0
X70.25Y-20.75
X70.5Y78.58
X70.5Y75.08
X70.5Y-6.5
X70.5Y-10.0
X71.0Y119.33
X71.0Y113.58
X71.0Y34.25
X71.0Y28.5
X71.25Y116.08
X71.25Y31.0
X71.5Y87.58
X71.5Y81.58
X71.5Y2.5
X71.5Y-3.5
X72.1Y116.23
X72.1Y31.15
X73.0Y48.83
X73.0Y-36.25
X73.75Y72.58
X73.75Y-12.5
X73.991Y118.062
X73.991Y32.982
X74.0Y75.83
X74.0Y-9.25
X74.5Y115.807
X74.5Y113.33
X74.5Y30.727
X74.5Y28.25
X75.25Y118.33
X75.25Y33.25
X75.5Y90.08
X75.5Y80.33
X75.5Y5.0
X75.5Y-4.75
X76.0Y107.58
X76.0Y50.83
X76.0Y49.83
X76.0Y22.5
X76.0Y-34.25
X76.0Y-35.25
X76.25Y106.83
X76.25Y63.49
X76.25Y21.75
X76.25Y-21.59
X76.5Y102.33
X76.5Y17.25
X76.75Y121.58
X76.75Y36.5
X76.9Y116.23
X76.9Y31.15
X77.0Y106.58
X77.0Y100.83
X77.0Y21.5
X77.0Y15.75
X77.25Y54.08
X77.25Y-31.0
X77.5Y102.33
X77.5Y17.25
X77.75Y116.08
X77.75Y31.0
X78.0Y119.33
X78.0Y113.58
X78.0Y34.25
X78.0Y28.5
X78.25Y78.58
X78.25Y-6.5
X78.5Y57.83
X78.5Y-27.25
X79.25Y108.33
X79.25Y23.25
X79.5Y83.48
X79.5Y75.83
X79.5Y-1.6
X79.5Y-9.25
X79.75Y53.58
X79.75Y-31.5
X80.0Y90.08
X80.0Y80.33
X80.0Y5.0
X80.0Y-4.75
X81.09Y73.65
X81.09Y-11.43
X81.25Y110.33
X81.25Y102.33
X81.25Y25.25
X81.25Y17.25
X81.5Y83.48
X81.5Y-1.6
X82.0Y101.58
X82.0Y16.5
X82.5Y79.33
X82.5Y75.58
X82.5Y-5.75
X82.5Y-9.5
X82.6Y111.43
X82.6Y26.35
X82.75Y71.11
X82.75Y-13.97
X83.0Y86.58
X83.0Y83.83
X83.0Y1.5
X83.0Y-1.25
X83.5Y66.03
X83.5Y-19.05
X84.5Y112.08
X84.5Y75.58
X84.5Y66.08
X84.5Y27.0
X84.5Y-9.5
X84.5Y-19.0
X85.007Y68.57
X85.007Y-16.51
X88.25Y76.58
X88.25Y-8.5
T3
X-27.94Y123.18
X-27.94Y120.64
X-27.94Y118.1
X-27.94Y115.56
X-27.94Y113.02
X-27.94Y110.48
X-27.94Y107.94
X-27.94Y105.4
X-27.94Y102.86
X-27.94Y100.32
X-27.94Y97.78
X-27.94Y95.24
X-27.94Y74.92
X-27.94Y72.38
X-27.94Y69.84
X-27.94Y67.3
X-27.94Y64.76
X-27.94Y62.22
X-27.94Y59.68
X-27.94Y57.14
X-27.94Y54.6
X-27.94Y52.06
X-27.94Y49.52
X-27.94Y46.98
X-27.94Y38.1
X-27.94Y35.56
X-27.94Y33.02
X-27.94Y30.48
X-27.94Y27.94
X-27.94Y25.4
X-27.94Y22.86
X-27.94Y20.32
X-27.94Y17.78
X-27.94Y15.24
X-27.94Y12.7
X-27.94Y10.16
X-27.94Y-10.16
X-27.94Y-12.7
X-27.94Y-15.24
X-27.94Y-17.78
X-27.94Y-20.32
X-27.94Y-22.86
X-27.94Y-25.4
X-27.94Y-27.94
X-27.94Y-30.48
X-27.94Y-33.02
X-27.94Y-35.56
X-27.94Y-38.1
X-17.78Y119.08
X-17.78Y34.0
X-15.24Y119.08
X-15.24Y34.0
X-2.54Y85.08
X-2.54Y0.0
X0.0Y85.08
X0.0Y0.0
X2.54Y85.08
X2.54Y0.0
X27.94Y123.18
X27.94Y120.64
X27.94Y118.1
X27.94Y115.56
X27.94Y113.02
X27.94Y110.48
X27.94Y107.94
X27.94Y105.4
X27.94Y102.86
X27.94Y100.32
X27.94Y97.78
X27.94Y95.24
X27.94Y74.92
X27.94Y72.38
X27.94Y69.84
X27.94Y67.3
X27.94Y64.76
X27.94Y62.22
X27.94Y59.68
X27.94Y57.14
X27.94Y54.6
X27.94Y52.06
X27.94Y49.52
X27.94Y46.98
X27.94Y38.1
X27.94Y35.56
X27.94Y33.02
X27.94Y30.48
X27.94Y27.94
X27.94Y25.4
X27.94Y22.86
X27.94Y20.32
X27.94Y17.78
X27.94Y15.24
X27.94Y12.7
X27.94Y10.16
X27.94Y-10.16
X27.94Y-12.7
X27.94Y-15.24
X27.94Y-17.78
X27.94Y-20.32
X27.94Y-22.86
X27.94Y-25.4
X27.94Y-27.94
X27.94Y-30.48
X27.94Y-33.02
X27.94Y-35.56
X27.94Y-38.1
X31.56Y123.18
X31.56Y120.64
X31.56Y118.1
X31.56Y115.56
X31.56Y113.02
X31.56Y110.48
X31.56Y107.94
X31.56Y105.4
X31.56Y102.86
X31.56Y100.32
X31.56Y97.78
X31.56Y95.24
X31.56Y74.92
X31.56Y72.38
X31.56Y69.84
X31.56Y67.3
X31.56Y64.76
X31.56Y62.22
X31.56Y59.68
X31.56Y57.14
X31.56Y54.6
X31.56Y52.06
X31.56Y49.52
X31.56Y46.98
X31.56Y38.1
X31.56Y35.56
X31.56Y33.02
X31.56Y30.48
X31.56Y27.94
X31.56Y25.4
X31.56Y22.86
X31.56Y20.32
X31.56Y17.78
X31.56Y15.24
X31.56Y12.7
X31.56Y10.16
X31.56Y-10.16
X31.56Y-12.7
X31.56Y-15.24
X31.56Y-17.78
X31.56Y-20.32
X31.56Y-22.86
X31.56Y-25.4
X31.56Y-27.94
X31.56Y-30.48
X31.56Y-33.02
X31.56Y-35.56
X31.56Y-38.1
X41.72Y119.08
X41.72Y34.0
X44.26Y119.08
X44.26Y34.0
X56.96Y85.08
X56.96Y0.0
X59.5Y85.08
X59.5Y0.0
X62.04Y85.08
X62.04Y0.0
X87.44Y123.18
X87.44Y120.64
X87.44Y118.1
X87.44Y115.56
X87.44Y113.02
X87.44Y110.48
X87.44Y107.94
X87.44Y105.4
X87.44Y102.86
X87.44Y100.32
X87.44Y97.78
X87.44Y95.24
X87.44Y74.92
X87.44Y72.38
X87.44Y69.84
X87.44Y67.3
X87.44Y64.76
X87.44Y62.22
X87.44Y59.68
X87.44Y57.14
X87.44Y54.6
X87.44Y52.06
X87.44Y49.52
X87.44Y46.98
X87.44Y38.1
X87.44Y35.56
X87.44Y33.02
X87.44Y30.48
X87.44Y27.94
X87.44Y25.4
X87.44Y22.86
X87.44Y20.32
X87.44Y17.78
X87.44Y15.24
X87.44Y12.7
X87.44Y10.16
X87.44Y-10.16
X87.44Y-12.7
X87.44Y-15.24
X87.44Y-17.78
X87.44Y-20.32
X87.44Y-22.86
X87.44Y-25.4
X87.44Y-27.94
X87.44Y-30.48
X87.44Y-33.02
X87.44Y-35.56
X87.44Y-38.1
T4
X-2.89Y51.885
X-2.89Y-33.195
X2.89Y51.885
X2.89Y-33.195
X12.11Y118.275
X12.11Y33.195
X17.89Y118.275
X17.89Y33.195
X56.61Y51.885
X56.61Y-33.195
X62.39Y51.885
X62.39Y-33.195
X71.61Y118.275
X71.61Y33.195
X77.39Y118.275
X77.39Y33.195
T5
X-12.5Y114.83
X-12.5Y111.83
X-12.5Y29.75
X-12.5Y26.75
X47.0Y114.83
X47.0Y111.83
X47.0Y29.75
X47.0Y26.75
T6
X-23.5Y119.08
X-23.5Y51.08
X-23.5Y34.0
X-23.5Y-34.0
X23.5Y119.08
X23.5Y51.08
X23.5Y34.0
X23.5Y-34.0
X36.0Y119.08
X36.0Y51.08
X36.0Y34.0
X36.0Y-34.0
X83.0Y119.08
X83.0Y51.08
X83.0Y34.0
X83.0Y-34.0
T2
G00X-4.318Y52.965
M15
G01X-4.318Y51.865
M16
G05
G00X-4.318Y48.535
M15
G01X-4.318Y47.935
M16
G05
G00X-4.318Y-32.115
M15
G01X-4.318Y-33.215
M16
G05
G00X-4.318Y-36.545
M15
G01X-4.318Y-37.145
M16
G05
G00X4.318Y52.965
M15
G01X4.318Y51.865
M16
G05
G00X4.318Y48.535
M15
G01X4.318Y47.935
M16
G05
G00X4.318Y-32.115
M15
G01X4.318Y-33.215
M16
G05
G00X4.318Y-36.545
M15
G01X4.318Y-37.145
M16
G05
G00X10.682Y121.625
M15
G01X10.682Y122.225
M16
G05
G00X10.682Y117.195
M15
G01X10.682Y118.295
M16
G05
G00X10.682Y36.545
M15
G01X10.682Y37.145
M16
G05
G00X10.682Y32.115
M15
G01X10.682Y33.215
M16
G05
G00X19.318Y121.625
M15
G01X19.318Y122.225
M16
G05
G00X19.318Y117.195
M15
G01X19.318Y118.295
M16
G05
G00X19.318Y36.545
M15
G01X19.318Y37.145
M16
G05
G00X19.318Y32.115
M15
G01X19.318Y33.215
M16
G05
G00X55.182Y52.965
M15
G01X55.182Y51.865
M16
G05
G00X55.182Y48.535
M15
G01X55.182Y47.935
M16
G05
G00X55.182Y-32.115
M15
G01X55.182Y-33.215
M16
G05
G00X55.182Y-36.545
M15
G01X55.182Y-37.145
M16
G05
G00X63.818Y52.965
M15
G01X63.818Y51.865
M16
G05
G00X63.818Y48.535
M15
G01X63.818Y47.935
M16
G05
G00X63.818Y-32.115
M15
G01X63.818Y-33.215
M16
G05
G00X63.818Y-36.545
M15
G01X63.818Y-37.145
M16
G05
G00X70.182Y121.625
M15
G01X70.182Y122.225
M16
G05
G00X70.182Y117.195
M15
G01X70.182Y118.295
M16
G05
G00X70.182Y36.545
M15
G01X70.182Y37.145
M16
G05
G00X70.182Y32.115
M15
G01X70.182Y33.215
M16
G05
G00X78.818Y121.625
M15
G01X78.818Y122.225
M16
G05
G00X78.818Y117.195
M15
G01X78.818Y118.295
M16
G05
G00X78.818Y36.545
M15
G01X78.818Y37.145
M16
G05
G00X78.818Y32.115
M15
G01X78.818Y33.215
M16
G05
M30
