%TF.GenerationSoftware,KiCad,Pcbnew,8.0.5*%
%TF.CreationDate,2024-11-04T11:07:50-07:00*%
%TF.ProjectId,SparkFun_IoT_Node_LoRaWAN_panelized,53706172-6b46-4756-9e5f-496f545f4e6f,v10*%
%TF.SameCoordinates,Original*%
%TF.FileFunction,Soldermask,Bot*%
%TF.FilePolarity,Negative*%
%FSLAX46Y46*%
G04 Gerber Fmt 4.6, Leading zero omitted, Abs format (unit mm)*
G04 Created by KiCad (PCBNEW 8.0.5) date 2024-11-04 11:07:50*
%MOMM*%
%LPD*%
G01*
G04 APERTURE LIST*
%TA.AperFunction,Profile*%
%ADD10C,0.100000*%
%TD*%
%TA.AperFunction,Profile*%
%ADD11C,0.050000*%
%TD*%
%ADD12C,0.500000*%
%ADD13C,0.250000*%
G04 APERTURE END LIST*
D10*
X95850000Y136760000D02*
X95850000Y-51680000D01*
X-6500000Y39000000D02*
X6500000Y39000000D01*
X53000000Y39750000D02*
X53000000Y39000000D01*
X-29500000Y-39750000D02*
X-29500000Y39750000D01*
X29500000Y124830000D02*
X29500000Y45330000D01*
X-29500000Y124830000D02*
X-6500000Y124830000D01*
X6500000Y39000000D02*
X6500000Y39750000D01*
X89000000Y124830000D02*
X89000000Y45330000D01*
X95850000Y-51680000D02*
X-36350000Y-51680000D01*
X-6500000Y39750000D02*
X-6500000Y39000000D01*
X66000000Y124080000D02*
X66000000Y124830000D01*
X-30000000Y130410000D02*
X89500000Y130410000D01*
X53000000Y39000000D02*
X66000000Y39000000D01*
X29500000Y-39750000D02*
X-29500000Y-39750000D01*
X89000000Y45330000D02*
X30000000Y45330000D01*
X-6500000Y124080000D02*
X6500000Y124080000D01*
X29500000Y45330000D02*
X-29500000Y45330000D01*
X6500000Y124080000D02*
X6500000Y124830000D01*
X89500000Y130410000D02*
X89500000Y-45330000D01*
X29500000Y39750000D02*
X29500000Y-39750000D01*
X6500000Y39750000D02*
X29500000Y39750000D01*
X-29500000Y39750000D02*
X-6500000Y39750000D01*
X30000000Y39750000D02*
X53000000Y39750000D01*
X-36350000Y136760000D02*
X95850000Y136760000D01*
X-29500000Y45330000D02*
X-29500000Y124830000D01*
X-30000000Y-45330000D02*
X-30000000Y130410000D01*
X-36350000Y-51680000D02*
X-36350000Y136760000D01*
X30000000Y124830000D02*
X53000000Y124830000D01*
X66000000Y39000000D02*
X66000000Y39750000D01*
X89500000Y-45330000D02*
X-30000000Y-45330000D01*
X30000000Y-39750000D02*
X30000000Y39750000D01*
X89000000Y-39750000D02*
X30000000Y-39750000D01*
X89000000Y39750000D02*
X89000000Y-39750000D01*
X30000000Y45330000D02*
X30000000Y124830000D01*
X66000000Y39750000D02*
X89000000Y39750000D01*
X53000000Y124830000D02*
X53000000Y124080000D01*
X6500000Y124830000D02*
X29500000Y124830000D01*
X53000000Y124080000D02*
X66000000Y124080000D01*
X66000000Y124830000D02*
X89000000Y124830000D01*
X-6500000Y124830000D02*
X-6500000Y124080000D01*
D11*
%TO.C,REF\u002A\u002A*%
X40750000Y-36350000D02*
X40750000Y-35150000D01*
X41950000Y-35150000D02*
X41950000Y-36350000D01*
X47050000Y-36350000D02*
X47050000Y-35150000D01*
X48250000Y-35150000D02*
X48250000Y-36350000D01*
X40750000Y-35150000D02*
G75*
G02*
X41950000Y-35150000I600000J0D01*
G01*
X41950000Y-36350000D02*
G75*
G02*
X40750000Y-36350000I-600000J0D01*
G01*
X47050000Y-35150000D02*
G75*
G02*
X48250000Y-35150000I600000J0D01*
G01*
X48250000Y-36350000D02*
G75*
G02*
X47050000Y-36350000I-600000J0D01*
G01*
X45250000Y-32600000D02*
G75*
G02*
X43750000Y-32600000I-750000J0D01*
G01*
X43750000Y-32600000D02*
G75*
G02*
X45250000Y-32600000I750000J0D01*
G01*
X-18750000Y48730000D02*
X-18750000Y49930000D01*
X-17550000Y49930000D02*
X-17550000Y48730000D01*
X-12450000Y48730000D02*
X-12450000Y49930000D01*
X-11250000Y49930000D02*
X-11250000Y48730000D01*
X-18750000Y49930000D02*
G75*
G02*
X-17550000Y49930000I600000J0D01*
G01*
X-17550000Y48730000D02*
G75*
G02*
X-18750000Y48730000I-600000J0D01*
G01*
X-12450000Y49930000D02*
G75*
G02*
X-11250000Y49930000I600000J0D01*
G01*
X-11250000Y48730000D02*
G75*
G02*
X-12450000Y48730000I-600000J0D01*
G01*
X-14250000Y52480000D02*
G75*
G02*
X-15750000Y52480000I-750000J0D01*
G01*
X-15750000Y52480000D02*
G75*
G02*
X-14250000Y52480000I750000J0D01*
G01*
X40750000Y48730000D02*
X40750000Y49930000D01*
X41950000Y49930000D02*
X41950000Y48730000D01*
X47050000Y48730000D02*
X47050000Y49930000D01*
X48250000Y49930000D02*
X48250000Y48730000D01*
X40750000Y49930000D02*
G75*
G02*
X41950000Y49930000I600000J0D01*
G01*
X41950000Y48730000D02*
G75*
G02*
X40750000Y48730000I-600000J0D01*
G01*
X47050000Y49930000D02*
G75*
G02*
X48250000Y49930000I600000J0D01*
G01*
X48250000Y48730000D02*
G75*
G02*
X47050000Y48730000I-600000J0D01*
G01*
X45250000Y52480000D02*
G75*
G02*
X43750000Y52480000I-750000J0D01*
G01*
X43750000Y52480000D02*
G75*
G02*
X45250000Y52480000I750000J0D01*
G01*
X-18750000Y-36350000D02*
X-18750000Y-35150000D01*
X-17550000Y-35150000D02*
X-17550000Y-36350000D01*
X-12450000Y-36350000D02*
X-12450000Y-35150000D01*
X-11250000Y-35150000D02*
X-11250000Y-36350000D01*
X-18750000Y-35150000D02*
G75*
G02*
X-17550000Y-35150000I600000J0D01*
G01*
X-17550000Y-36350000D02*
G75*
G02*
X-18750000Y-36350000I-600000J0D01*
G01*
X-12450000Y-35150000D02*
G75*
G02*
X-11250000Y-35150000I600000J0D01*
G01*
X-11250000Y-36350000D02*
G75*
G02*
X-12450000Y-36350000I-600000J0D01*
G01*
X-14250000Y-32600000D02*
G75*
G02*
X-15750000Y-32600000I-750000J0D01*
G01*
X-15750000Y-32600000D02*
G75*
G02*
X-14250000Y-32600000I750000J0D01*
G01*
X70750000Y-36350000D02*
X70750000Y-35150000D01*
X71950000Y-35150000D02*
X71950000Y-36350000D01*
X77050000Y-36350000D02*
X77050000Y-35150000D01*
X78250000Y-35150000D02*
X78250000Y-36350000D01*
X70750000Y-35150000D02*
G75*
G02*
X71950000Y-35150000I600000J0D01*
G01*
X71950000Y-36350000D02*
G75*
G02*
X70750000Y-36350000I-600000J0D01*
G01*
X77050000Y-35150000D02*
G75*
G02*
X78250000Y-35150000I600000J0D01*
G01*
X78250000Y-36350000D02*
G75*
G02*
X77050000Y-36350000I-600000J0D01*
G01*
X75250000Y-32600000D02*
G75*
G02*
X73750000Y-32600000I-750000J0D01*
G01*
X73750000Y-32600000D02*
G75*
G02*
X75250000Y-32600000I750000J0D01*
G01*
X11250000Y48730000D02*
X11250000Y49930000D01*
X12450000Y49930000D02*
X12450000Y48730000D01*
X17550000Y48730000D02*
X17550000Y49930000D01*
X18750000Y49930000D02*
X18750000Y48730000D01*
X11250000Y49930000D02*
G75*
G02*
X12450000Y49930000I600000J0D01*
G01*
X12450000Y48730000D02*
G75*
G02*
X11250000Y48730000I-600000J0D01*
G01*
X17550000Y49930000D02*
G75*
G02*
X18750000Y49930000I600000J0D01*
G01*
X18750000Y48730000D02*
G75*
G02*
X17550000Y48730000I-600000J0D01*
G01*
X15750000Y52480000D02*
G75*
G02*
X14250000Y52480000I-750000J0D01*
G01*
X14250000Y52480000D02*
G75*
G02*
X15750000Y52480000I750000J0D01*
G01*
X70750000Y48730000D02*
X70750000Y49930000D01*
X71950000Y49930000D02*
X71950000Y48730000D01*
X77050000Y48730000D02*
X77050000Y49930000D01*
X78250000Y49930000D02*
X78250000Y48730000D01*
X70750000Y49930000D02*
G75*
G02*
X71950000Y49930000I600000J0D01*
G01*
X71950000Y48730000D02*
G75*
G02*
X70750000Y48730000I-600000J0D01*
G01*
X77050000Y49930000D02*
G75*
G02*
X78250000Y49930000I600000J0D01*
G01*
X78250000Y48730000D02*
G75*
G02*
X77050000Y48730000I-600000J0D01*
G01*
X75250000Y52480000D02*
G75*
G02*
X73750000Y52480000I-750000J0D01*
G01*
X73750000Y52480000D02*
G75*
G02*
X75250000Y52480000I750000J0D01*
G01*
X11250000Y-36350000D02*
X11250000Y-35150000D01*
X12450000Y-35150000D02*
X12450000Y-36350000D01*
X17550000Y-36350000D02*
X17550000Y-35150000D01*
X18750000Y-35150000D02*
X18750000Y-36350000D01*
X11250000Y-35150000D02*
G75*
G02*
X12450000Y-35150000I600000J0D01*
G01*
X12450000Y-36350000D02*
G75*
G02*
X11250000Y-36350000I-600000J0D01*
G01*
X17550000Y-35150000D02*
G75*
G02*
X18750000Y-35150000I600000J0D01*
G01*
X18750000Y-36350000D02*
G75*
G02*
X17550000Y-36350000I-600000J0D01*
G01*
X15750000Y-32600000D02*
G75*
G02*
X14250000Y-32600000I-750000J0D01*
G01*
X14250000Y-32600000D02*
G75*
G02*
X15750000Y-32600000I750000J0D01*
G01*
%TD*%
D12*
X29750000Y137010000D02*
X29750000Y-51930000D01*
X89250000Y137010000D02*
X89250000Y-51930000D01*
X-29750000Y137010000D02*
X-29750000Y-51930000D01*
D13*
X28662238Y139364949D02*
X30662238Y140031615D01*
X30662238Y140031615D02*
X28662238Y140698282D01*
X29900333Y141364949D02*
X29900333Y142888759D01*
X30567000Y143745901D02*
X30662238Y144031615D01*
X30662238Y144031615D02*
X30662238Y144507806D01*
X30662238Y144507806D02*
X30567000Y144698282D01*
X30567000Y144698282D02*
X30471761Y144793520D01*
X30471761Y144793520D02*
X30281285Y144888758D01*
X30281285Y144888758D02*
X30090809Y144888758D01*
X30090809Y144888758D02*
X29900333Y144793520D01*
X29900333Y144793520D02*
X29805095Y144698282D01*
X29805095Y144698282D02*
X29709857Y144507806D01*
X29709857Y144507806D02*
X29614619Y144126853D01*
X29614619Y144126853D02*
X29519380Y143936377D01*
X29519380Y143936377D02*
X29424142Y143841139D01*
X29424142Y143841139D02*
X29233666Y143745901D01*
X29233666Y143745901D02*
X29043190Y143745901D01*
X29043190Y143745901D02*
X28852714Y143841139D01*
X28852714Y143841139D02*
X28757476Y143936377D01*
X28757476Y143936377D02*
X28662238Y144126853D01*
X28662238Y144126853D02*
X28662238Y144603044D01*
X28662238Y144603044D02*
X28757476Y144888758D01*
X30471761Y146888758D02*
X30567000Y146793520D01*
X30567000Y146793520D02*
X30662238Y146507806D01*
X30662238Y146507806D02*
X30662238Y146317330D01*
X30662238Y146317330D02*
X30567000Y146031615D01*
X30567000Y146031615D02*
X30376523Y145841139D01*
X30376523Y145841139D02*
X30186047Y145745901D01*
X30186047Y145745901D02*
X29805095Y145650663D01*
X29805095Y145650663D02*
X29519380Y145650663D01*
X29519380Y145650663D02*
X29138428Y145745901D01*
X29138428Y145745901D02*
X28947952Y145841139D01*
X28947952Y145841139D02*
X28757476Y146031615D01*
X28757476Y146031615D02*
X28662238Y146317330D01*
X28662238Y146317330D02*
X28662238Y146507806D01*
X28662238Y146507806D02*
X28757476Y146793520D01*
X28757476Y146793520D02*
X28852714Y146888758D01*
X28662238Y148126853D02*
X28662238Y148507806D01*
X28662238Y148507806D02*
X28757476Y148698282D01*
X28757476Y148698282D02*
X28947952Y148888758D01*
X28947952Y148888758D02*
X29328904Y148983996D01*
X29328904Y148983996D02*
X29995571Y148983996D01*
X29995571Y148983996D02*
X30376523Y148888758D01*
X30376523Y148888758D02*
X30567000Y148698282D01*
X30567000Y148698282D02*
X30662238Y148507806D01*
X30662238Y148507806D02*
X30662238Y148126853D01*
X30662238Y148126853D02*
X30567000Y147936377D01*
X30567000Y147936377D02*
X30376523Y147745901D01*
X30376523Y147745901D02*
X29995571Y147650663D01*
X29995571Y147650663D02*
X29328904Y147650663D01*
X29328904Y147650663D02*
X28947952Y147745901D01*
X28947952Y147745901D02*
X28757476Y147936377D01*
X28757476Y147936377D02*
X28662238Y148126853D01*
X30662238Y150983996D02*
X29709857Y150317329D01*
X30662238Y149841139D02*
X28662238Y149841139D01*
X28662238Y149841139D02*
X28662238Y150603044D01*
X28662238Y150603044D02*
X28757476Y150793520D01*
X28757476Y150793520D02*
X28852714Y150888758D01*
X28852714Y150888758D02*
X29043190Y150983996D01*
X29043190Y150983996D02*
X29328904Y150983996D01*
X29328904Y150983996D02*
X29519380Y150888758D01*
X29519380Y150888758D02*
X29614619Y150793520D01*
X29614619Y150793520D02*
X29709857Y150603044D01*
X29709857Y150603044D02*
X29709857Y149841139D01*
X29614619Y151841139D02*
X29614619Y152507806D01*
X30662238Y152793520D02*
X30662238Y151841139D01*
X30662238Y151841139D02*
X28662238Y151841139D01*
X28662238Y151841139D02*
X28662238Y152793520D01*
X88162238Y139364949D02*
X90162238Y140031615D01*
X90162238Y140031615D02*
X88162238Y140698282D01*
X89400333Y141364949D02*
X89400333Y142888759D01*
X90067000Y143745901D02*
X90162238Y144031615D01*
X90162238Y144031615D02*
X90162238Y144507806D01*
X90162238Y144507806D02*
X90067000Y144698282D01*
X90067000Y144698282D02*
X89971761Y144793520D01*
X89971761Y144793520D02*
X89781285Y144888758D01*
X89781285Y144888758D02*
X89590809Y144888758D01*
X89590809Y144888758D02*
X89400333Y144793520D01*
X89400333Y144793520D02*
X89305095Y144698282D01*
X89305095Y144698282D02*
X89209857Y144507806D01*
X89209857Y144507806D02*
X89114619Y144126853D01*
X89114619Y144126853D02*
X89019380Y143936377D01*
X89019380Y143936377D02*
X88924142Y143841139D01*
X88924142Y143841139D02*
X88733666Y143745901D01*
X88733666Y143745901D02*
X88543190Y143745901D01*
X88543190Y143745901D02*
X88352714Y143841139D01*
X88352714Y143841139D02*
X88257476Y143936377D01*
X88257476Y143936377D02*
X88162238Y144126853D01*
X88162238Y144126853D02*
X88162238Y144603044D01*
X88162238Y144603044D02*
X88257476Y144888758D01*
X89971761Y146888758D02*
X90067000Y146793520D01*
X90067000Y146793520D02*
X90162238Y146507806D01*
X90162238Y146507806D02*
X90162238Y146317330D01*
X90162238Y146317330D02*
X90067000Y146031615D01*
X90067000Y146031615D02*
X89876523Y145841139D01*
X89876523Y145841139D02*
X89686047Y145745901D01*
X89686047Y145745901D02*
X89305095Y145650663D01*
X89305095Y145650663D02*
X89019380Y145650663D01*
X89019380Y145650663D02*
X88638428Y145745901D01*
X88638428Y145745901D02*
X88447952Y145841139D01*
X88447952Y145841139D02*
X88257476Y146031615D01*
X88257476Y146031615D02*
X88162238Y146317330D01*
X88162238Y146317330D02*
X88162238Y146507806D01*
X88162238Y146507806D02*
X88257476Y146793520D01*
X88257476Y146793520D02*
X88352714Y146888758D01*
X88162238Y148126853D02*
X88162238Y148507806D01*
X88162238Y148507806D02*
X88257476Y148698282D01*
X88257476Y148698282D02*
X88447952Y148888758D01*
X88447952Y148888758D02*
X88828904Y148983996D01*
X88828904Y148983996D02*
X89495571Y148983996D01*
X89495571Y148983996D02*
X89876523Y148888758D01*
X89876523Y148888758D02*
X90067000Y148698282D01*
X90067000Y148698282D02*
X90162238Y148507806D01*
X90162238Y148507806D02*
X90162238Y148126853D01*
X90162238Y148126853D02*
X90067000Y147936377D01*
X90067000Y147936377D02*
X89876523Y147745901D01*
X89876523Y147745901D02*
X89495571Y147650663D01*
X89495571Y147650663D02*
X88828904Y147650663D01*
X88828904Y147650663D02*
X88447952Y147745901D01*
X88447952Y147745901D02*
X88257476Y147936377D01*
X88257476Y147936377D02*
X88162238Y148126853D01*
X90162238Y150983996D02*
X89209857Y150317329D01*
X90162238Y149841139D02*
X88162238Y149841139D01*
X88162238Y149841139D02*
X88162238Y150603044D01*
X88162238Y150603044D02*
X88257476Y150793520D01*
X88257476Y150793520D02*
X88352714Y150888758D01*
X88352714Y150888758D02*
X88543190Y150983996D01*
X88543190Y150983996D02*
X88828904Y150983996D01*
X88828904Y150983996D02*
X89019380Y150888758D01*
X89019380Y150888758D02*
X89114619Y150793520D01*
X89114619Y150793520D02*
X89209857Y150603044D01*
X89209857Y150603044D02*
X89209857Y149841139D01*
X89114619Y151841139D02*
X89114619Y152507806D01*
X90162238Y152793520D02*
X90162238Y151841139D01*
X90162238Y151841139D02*
X88162238Y151841139D01*
X88162238Y151841139D02*
X88162238Y152793520D01*
X22988094Y-43452238D02*
X22321427Y-42499857D01*
X21845237Y-43452238D02*
X21845237Y-41452238D01*
X21845237Y-41452238D02*
X22607142Y-41452238D01*
X22607142Y-41452238D02*
X22797618Y-41547476D01*
X22797618Y-41547476D02*
X22892856Y-41642714D01*
X22892856Y-41642714D02*
X22988094Y-41833190D01*
X22988094Y-41833190D02*
X22988094Y-42118904D01*
X22988094Y-42118904D02*
X22892856Y-42309380D01*
X22892856Y-42309380D02*
X22797618Y-42404619D01*
X22797618Y-42404619D02*
X22607142Y-42499857D01*
X22607142Y-42499857D02*
X21845237Y-42499857D01*
X24226189Y-41452238D02*
X24607142Y-41452238D01*
X24607142Y-41452238D02*
X24797618Y-41547476D01*
X24797618Y-41547476D02*
X24988094Y-41737952D01*
X24988094Y-41737952D02*
X25083332Y-42118904D01*
X25083332Y-42118904D02*
X25083332Y-42785571D01*
X25083332Y-42785571D02*
X24988094Y-43166523D01*
X24988094Y-43166523D02*
X24797618Y-43357000D01*
X24797618Y-43357000D02*
X24607142Y-43452238D01*
X24607142Y-43452238D02*
X24226189Y-43452238D01*
X24226189Y-43452238D02*
X24035713Y-43357000D01*
X24035713Y-43357000D02*
X23845237Y-43166523D01*
X23845237Y-43166523D02*
X23749999Y-42785571D01*
X23749999Y-42785571D02*
X23749999Y-42118904D01*
X23749999Y-42118904D02*
X23845237Y-41737952D01*
X23845237Y-41737952D02*
X24035713Y-41547476D01*
X24035713Y-41547476D02*
X24226189Y-41452238D01*
X25940475Y-41452238D02*
X25940475Y-43071285D01*
X25940475Y-43071285D02*
X26035713Y-43261761D01*
X26035713Y-43261761D02*
X26130951Y-43357000D01*
X26130951Y-43357000D02*
X26321427Y-43452238D01*
X26321427Y-43452238D02*
X26702380Y-43452238D01*
X26702380Y-43452238D02*
X26892856Y-43357000D01*
X26892856Y-43357000D02*
X26988094Y-43261761D01*
X26988094Y-43261761D02*
X27083332Y-43071285D01*
X27083332Y-43071285D02*
X27083332Y-41452238D01*
X27749999Y-41452238D02*
X28892856Y-41452238D01*
X28321427Y-43452238D02*
X28321427Y-41452238D01*
X29559523Y-42404619D02*
X30226190Y-42404619D01*
X30511904Y-43452238D02*
X29559523Y-43452238D01*
X29559523Y-43452238D02*
X29559523Y-41452238D01*
X29559523Y-41452238D02*
X30511904Y-41452238D01*
X33273809Y-41452238D02*
X33654762Y-41452238D01*
X33654762Y-41452238D02*
X33845238Y-41547476D01*
X33845238Y-41547476D02*
X34035714Y-41737952D01*
X34035714Y-41737952D02*
X34130952Y-42118904D01*
X34130952Y-42118904D02*
X34130952Y-42785571D01*
X34130952Y-42785571D02*
X34035714Y-43166523D01*
X34035714Y-43166523D02*
X33845238Y-43357000D01*
X33845238Y-43357000D02*
X33654762Y-43452238D01*
X33654762Y-43452238D02*
X33273809Y-43452238D01*
X33273809Y-43452238D02*
X33083333Y-43357000D01*
X33083333Y-43357000D02*
X32892857Y-43166523D01*
X32892857Y-43166523D02*
X32797619Y-42785571D01*
X32797619Y-42785571D02*
X32797619Y-42118904D01*
X32797619Y-42118904D02*
X32892857Y-41737952D01*
X32892857Y-41737952D02*
X33083333Y-41547476D01*
X33083333Y-41547476D02*
X33273809Y-41452238D01*
X34988095Y-41452238D02*
X34988095Y-43071285D01*
X34988095Y-43071285D02*
X35083333Y-43261761D01*
X35083333Y-43261761D02*
X35178571Y-43357000D01*
X35178571Y-43357000D02*
X35369047Y-43452238D01*
X35369047Y-43452238D02*
X35750000Y-43452238D01*
X35750000Y-43452238D02*
X35940476Y-43357000D01*
X35940476Y-43357000D02*
X36035714Y-43261761D01*
X36035714Y-43261761D02*
X36130952Y-43071285D01*
X36130952Y-43071285D02*
X36130952Y-41452238D01*
X36797619Y-41452238D02*
X37940476Y-41452238D01*
X37369047Y-43452238D02*
X37369047Y-41452238D01*
X-30837762Y139364949D02*
X-28837762Y140031615D01*
X-28837762Y140031615D02*
X-30837762Y140698282D01*
X-29599667Y141364949D02*
X-29599667Y142888759D01*
X-28933000Y143745901D02*
X-28837762Y144031615D01*
X-28837762Y144031615D02*
X-28837762Y144507806D01*
X-28837762Y144507806D02*
X-28933000Y144698282D01*
X-28933000Y144698282D02*
X-29028239Y144793520D01*
X-29028239Y144793520D02*
X-29218715Y144888758D01*
X-29218715Y144888758D02*
X-29409191Y144888758D01*
X-29409191Y144888758D02*
X-29599667Y144793520D01*
X-29599667Y144793520D02*
X-29694905Y144698282D01*
X-29694905Y144698282D02*
X-29790143Y144507806D01*
X-29790143Y144507806D02*
X-29885381Y144126853D01*
X-29885381Y144126853D02*
X-29980620Y143936377D01*
X-29980620Y143936377D02*
X-30075858Y143841139D01*
X-30075858Y143841139D02*
X-30266334Y143745901D01*
X-30266334Y143745901D02*
X-30456810Y143745901D01*
X-30456810Y143745901D02*
X-30647286Y143841139D01*
X-30647286Y143841139D02*
X-30742524Y143936377D01*
X-30742524Y143936377D02*
X-30837762Y144126853D01*
X-30837762Y144126853D02*
X-30837762Y144603044D01*
X-30837762Y144603044D02*
X-30742524Y144888758D01*
X-29028239Y146888758D02*
X-28933000Y146793520D01*
X-28933000Y146793520D02*
X-28837762Y146507806D01*
X-28837762Y146507806D02*
X-28837762Y146317330D01*
X-28837762Y146317330D02*
X-28933000Y146031615D01*
X-28933000Y146031615D02*
X-29123477Y145841139D01*
X-29123477Y145841139D02*
X-29313953Y145745901D01*
X-29313953Y145745901D02*
X-29694905Y145650663D01*
X-29694905Y145650663D02*
X-29980620Y145650663D01*
X-29980620Y145650663D02*
X-30361572Y145745901D01*
X-30361572Y145745901D02*
X-30552048Y145841139D01*
X-30552048Y145841139D02*
X-30742524Y146031615D01*
X-30742524Y146031615D02*
X-30837762Y146317330D01*
X-30837762Y146317330D02*
X-30837762Y146507806D01*
X-30837762Y146507806D02*
X-30742524Y146793520D01*
X-30742524Y146793520D02*
X-30647286Y146888758D01*
X-30837762Y148126853D02*
X-30837762Y148507806D01*
X-30837762Y148507806D02*
X-30742524Y148698282D01*
X-30742524Y148698282D02*
X-30552048Y148888758D01*
X-30552048Y148888758D02*
X-30171096Y148983996D01*
X-30171096Y148983996D02*
X-29504429Y148983996D01*
X-29504429Y148983996D02*
X-29123477Y148888758D01*
X-29123477Y148888758D02*
X-28933000Y148698282D01*
X-28933000Y148698282D02*
X-28837762Y148507806D01*
X-28837762Y148507806D02*
X-28837762Y148126853D01*
X-28837762Y148126853D02*
X-28933000Y147936377D01*
X-28933000Y147936377D02*
X-29123477Y147745901D01*
X-29123477Y147745901D02*
X-29504429Y147650663D01*
X-29504429Y147650663D02*
X-30171096Y147650663D01*
X-30171096Y147650663D02*
X-30552048Y147745901D01*
X-30552048Y147745901D02*
X-30742524Y147936377D01*
X-30742524Y147936377D02*
X-30837762Y148126853D01*
X-28837762Y150983996D02*
X-29790143Y150317329D01*
X-28837762Y149841139D02*
X-30837762Y149841139D01*
X-30837762Y149841139D02*
X-30837762Y150603044D01*
X-30837762Y150603044D02*
X-30742524Y150793520D01*
X-30742524Y150793520D02*
X-30647286Y150888758D01*
X-30647286Y150888758D02*
X-30456810Y150983996D01*
X-30456810Y150983996D02*
X-30171096Y150983996D01*
X-30171096Y150983996D02*
X-29980620Y150888758D01*
X-29980620Y150888758D02*
X-29885381Y150793520D01*
X-29885381Y150793520D02*
X-29790143Y150603044D01*
X-29790143Y150603044D02*
X-29790143Y149841139D01*
X-29885381Y151841139D02*
X-29885381Y152507806D01*
X-28837762Y152793520D02*
X-28837762Y151841139D01*
X-28837762Y151841139D02*
X-30837762Y151841139D01*
X-30837762Y151841139D02*
X-30837762Y152793520D01*
X22988094Y126707761D02*
X22321427Y127660142D01*
X21845237Y126707761D02*
X21845237Y128707761D01*
X21845237Y128707761D02*
X22607142Y128707761D01*
X22607142Y128707761D02*
X22797618Y128612523D01*
X22797618Y128612523D02*
X22892856Y128517285D01*
X22892856Y128517285D02*
X22988094Y128326809D01*
X22988094Y128326809D02*
X22988094Y128041095D01*
X22988094Y128041095D02*
X22892856Y127850619D01*
X22892856Y127850619D02*
X22797618Y127755380D01*
X22797618Y127755380D02*
X22607142Y127660142D01*
X22607142Y127660142D02*
X21845237Y127660142D01*
X24226189Y128707761D02*
X24607142Y128707761D01*
X24607142Y128707761D02*
X24797618Y128612523D01*
X24797618Y128612523D02*
X24988094Y128422047D01*
X24988094Y128422047D02*
X25083332Y128041095D01*
X25083332Y128041095D02*
X25083332Y127374428D01*
X25083332Y127374428D02*
X24988094Y126993476D01*
X24988094Y126993476D02*
X24797618Y126803000D01*
X24797618Y126803000D02*
X24607142Y126707761D01*
X24607142Y126707761D02*
X24226189Y126707761D01*
X24226189Y126707761D02*
X24035713Y126803000D01*
X24035713Y126803000D02*
X23845237Y126993476D01*
X23845237Y126993476D02*
X23749999Y127374428D01*
X23749999Y127374428D02*
X23749999Y128041095D01*
X23749999Y128041095D02*
X23845237Y128422047D01*
X23845237Y128422047D02*
X24035713Y128612523D01*
X24035713Y128612523D02*
X24226189Y128707761D01*
X25940475Y128707761D02*
X25940475Y127088714D01*
X25940475Y127088714D02*
X26035713Y126898238D01*
X26035713Y126898238D02*
X26130951Y126803000D01*
X26130951Y126803000D02*
X26321427Y126707761D01*
X26321427Y126707761D02*
X26702380Y126707761D01*
X26702380Y126707761D02*
X26892856Y126803000D01*
X26892856Y126803000D02*
X26988094Y126898238D01*
X26988094Y126898238D02*
X27083332Y127088714D01*
X27083332Y127088714D02*
X27083332Y128707761D01*
X27749999Y128707761D02*
X28892856Y128707761D01*
X28321427Y126707761D02*
X28321427Y128707761D01*
X29559523Y127755380D02*
X30226190Y127755380D01*
X30511904Y126707761D02*
X29559523Y126707761D01*
X29559523Y126707761D02*
X29559523Y128707761D01*
X29559523Y128707761D02*
X30511904Y128707761D01*
X33273809Y128707761D02*
X33654762Y128707761D01*
X33654762Y128707761D02*
X33845238Y128612523D01*
X33845238Y128612523D02*
X34035714Y128422047D01*
X34035714Y128422047D02*
X34130952Y128041095D01*
X34130952Y128041095D02*
X34130952Y127374428D01*
X34130952Y127374428D02*
X34035714Y126993476D01*
X34035714Y126993476D02*
X33845238Y126803000D01*
X33845238Y126803000D02*
X33654762Y126707761D01*
X33654762Y126707761D02*
X33273809Y126707761D01*
X33273809Y126707761D02*
X33083333Y126803000D01*
X33083333Y126803000D02*
X32892857Y126993476D01*
X32892857Y126993476D02*
X32797619Y127374428D01*
X32797619Y127374428D02*
X32797619Y128041095D01*
X32797619Y128041095D02*
X32892857Y128422047D01*
X32892857Y128422047D02*
X33083333Y128612523D01*
X33083333Y128612523D02*
X33273809Y128707761D01*
X34988095Y128707761D02*
X34988095Y127088714D01*
X34988095Y127088714D02*
X35083333Y126898238D01*
X35083333Y126898238D02*
X35178571Y126803000D01*
X35178571Y126803000D02*
X35369047Y126707761D01*
X35369047Y126707761D02*
X35750000Y126707761D01*
X35750000Y126707761D02*
X35940476Y126803000D01*
X35940476Y126803000D02*
X36035714Y126898238D01*
X36035714Y126898238D02*
X36130952Y127088714D01*
X36130952Y127088714D02*
X36130952Y128707761D01*
X36797619Y128707761D02*
X37940476Y128707761D01*
X37369047Y126707761D02*
X37369047Y128707761D01*
X22988094Y41627762D02*
X22321427Y42580143D01*
X21845237Y41627762D02*
X21845237Y43627762D01*
X21845237Y43627762D02*
X22607142Y43627762D01*
X22607142Y43627762D02*
X22797618Y43532524D01*
X22797618Y43532524D02*
X22892856Y43437286D01*
X22892856Y43437286D02*
X22988094Y43246810D01*
X22988094Y43246810D02*
X22988094Y42961096D01*
X22988094Y42961096D02*
X22892856Y42770620D01*
X22892856Y42770620D02*
X22797618Y42675381D01*
X22797618Y42675381D02*
X22607142Y42580143D01*
X22607142Y42580143D02*
X21845237Y42580143D01*
X24226189Y43627762D02*
X24607142Y43627762D01*
X24607142Y43627762D02*
X24797618Y43532524D01*
X24797618Y43532524D02*
X24988094Y43342048D01*
X24988094Y43342048D02*
X25083332Y42961096D01*
X25083332Y42961096D02*
X25083332Y42294429D01*
X25083332Y42294429D02*
X24988094Y41913477D01*
X24988094Y41913477D02*
X24797618Y41723000D01*
X24797618Y41723000D02*
X24607142Y41627762D01*
X24607142Y41627762D02*
X24226189Y41627762D01*
X24226189Y41627762D02*
X24035713Y41723000D01*
X24035713Y41723000D02*
X23845237Y41913477D01*
X23845237Y41913477D02*
X23749999Y42294429D01*
X23749999Y42294429D02*
X23749999Y42961096D01*
X23749999Y42961096D02*
X23845237Y43342048D01*
X23845237Y43342048D02*
X24035713Y43532524D01*
X24035713Y43532524D02*
X24226189Y43627762D01*
X25940475Y43627762D02*
X25940475Y42008715D01*
X25940475Y42008715D02*
X26035713Y41818239D01*
X26035713Y41818239D02*
X26130951Y41723000D01*
X26130951Y41723000D02*
X26321427Y41627762D01*
X26321427Y41627762D02*
X26702380Y41627762D01*
X26702380Y41627762D02*
X26892856Y41723000D01*
X26892856Y41723000D02*
X26988094Y41818239D01*
X26988094Y41818239D02*
X27083332Y42008715D01*
X27083332Y42008715D02*
X27083332Y43627762D01*
X27749999Y43627762D02*
X28892856Y43627762D01*
X28321427Y41627762D02*
X28321427Y43627762D01*
X29559523Y42675381D02*
X30226190Y42675381D01*
X30511904Y41627762D02*
X29559523Y41627762D01*
X29559523Y41627762D02*
X29559523Y43627762D01*
X29559523Y43627762D02*
X30511904Y43627762D01*
X33273809Y43627762D02*
X33654762Y43627762D01*
X33654762Y43627762D02*
X33845238Y43532524D01*
X33845238Y43532524D02*
X34035714Y43342048D01*
X34035714Y43342048D02*
X34130952Y42961096D01*
X34130952Y42961096D02*
X34130952Y42294429D01*
X34130952Y42294429D02*
X34035714Y41913477D01*
X34035714Y41913477D02*
X33845238Y41723000D01*
X33845238Y41723000D02*
X33654762Y41627762D01*
X33654762Y41627762D02*
X33273809Y41627762D01*
X33273809Y41627762D02*
X33083333Y41723000D01*
X33083333Y41723000D02*
X32892857Y41913477D01*
X32892857Y41913477D02*
X32797619Y42294429D01*
X32797619Y42294429D02*
X32797619Y42961096D01*
X32797619Y42961096D02*
X32892857Y43342048D01*
X32892857Y43342048D02*
X33083333Y43532524D01*
X33083333Y43532524D02*
X33273809Y43627762D01*
X34988095Y43627762D02*
X34988095Y42008715D01*
X34988095Y42008715D02*
X35083333Y41818239D01*
X35083333Y41818239D02*
X35178571Y41723000D01*
X35178571Y41723000D02*
X35369047Y41627762D01*
X35369047Y41627762D02*
X35750000Y41627762D01*
X35750000Y41627762D02*
X35940476Y41723000D01*
X35940476Y41723000D02*
X36035714Y41818239D01*
X36035714Y41818239D02*
X36130952Y42008715D01*
X36130952Y42008715D02*
X36130952Y43627762D01*
X36797619Y43627762D02*
X37940476Y43627762D01*
X37369047Y41627762D02*
X37369047Y43627762D01*
M02*
