%TF.GenerationSoftware,KiCad,Pcbnew,8.0.5*%
%TF.CreationDate,2024-11-04T11:07:50-07:00*%
%TF.ProjectId,SparkFun_IoT_Node_LoRaWAN_panelized,53706172-6b46-4756-9e5f-496f545f4e6f,v10*%
%TF.SameCoordinates,Original*%
%TF.FileFunction,Soldermask,Top*%
%TF.FilePolarity,Negative*%
%FSLAX46Y46*%
G04 Gerber Fmt 4.6, Leading zero omitted, Abs format (unit mm)*
G04 Created by KiCad (PCBNEW 8.0.5) date 2024-11-04 11:07:50*
%MOMM*%
%LPD*%
G01*
G04 APERTURE LIST*
G04 Aperture macros list*
%AMRoundRect*
0 Rectangle with rounded corners*
0 $1 Rounding radius*
0 $2 $3 $4 $5 $6 $7 $8 $9 X,Y pos of 4 corners*
0 Add a 4 corners polygon primitive as box body*
4,1,4,$2,$3,$4,$5,$6,$7,$8,$9,$2,$3,0*
0 Add four circle primitives for the rounded corners*
1,1,$1+$1,$2,$3*
1,1,$1+$1,$4,$5*
1,1,$1+$1,$6,$7*
1,1,$1+$1,$8,$9*
0 Add four rect primitives between the rounded corners*
20,1,$1+$1,$2,$3,$4,$5,0*
20,1,$1+$1,$4,$5,$6,$7,0*
20,1,$1+$1,$6,$7,$8,$9,0*
20,1,$1+$1,$8,$9,$2,$3,0*%
%AMFreePoly0*
4,1,29,0.312822,0.469384,0.442609,0.448828,0.457487,0.443994,0.574570,0.384337,0.587225,0.375142,0.680142,0.282225,0.689337,0.269570,0.748994,0.152487,0.753828,0.137609,0.774384,0.007822,0.774384,-0.007822,0.753828,-0.137609,0.748994,-0.152487,0.689337,-0.269570,0.680142,-0.282225,0.587225,-0.375142,0.574570,-0.384337,0.457487,-0.443994,0.442609,-0.448828,0.312822,-0.469384,
0.305000,-0.470000,-0.725000,-0.470000,-0.760355,-0.455355,-0.775000,-0.420000,-0.775000,0.420000,-0.760355,0.455355,-0.725000,0.470000,0.305000,0.470000,0.312822,0.469384,0.312822,0.469384,$1*%
G04 Aperture macros list end*
%ADD10C,1.250000*%
%ADD11C,0.800000*%
%ADD12C,0.000000*%
%ADD13C,3.200000*%
%ADD14RoundRect,0.250000X0.250000X0.275000X-0.250000X0.275000X-0.250000X-0.275000X0.250000X-0.275000X0*%
%ADD15RoundRect,0.060000X-0.427500X-0.090000X0.427500X-0.090000X0.427500X0.090000X-0.427500X0.090000X0*%
%ADD16RoundRect,0.060000X0.427500X0.090000X-0.427500X0.090000X-0.427500X-0.090000X0.427500X-0.090000X0*%
%ADD17RoundRect,0.060000X0.090000X-0.427500X0.090000X0.427500X-0.090000X0.427500X-0.090000X-0.427500X0*%
%ADD18RoundRect,0.060000X-0.090000X0.427500X-0.090000X-0.427500X0.090000X-0.427500X0.090000X0.427500X0*%
%ADD19RoundRect,0.050000X1.750000X1.750000X-1.750000X1.750000X-1.750000X-1.750000X1.750000X-1.750000X0*%
%ADD20C,3.000000*%
%ADD21RoundRect,0.225000X-0.300000X0.225000X-0.300000X-0.225000X0.300000X-0.225000X0.300000X0.225000X0*%
%ADD22RoundRect,0.250000X0.275000X-0.250000X0.275000X0.250000X-0.275000X0.250000X-0.275000X-0.250000X0*%
%ADD23RoundRect,0.250000X-0.250000X-0.275000X0.250000X-0.275000X0.250000X0.275000X-0.250000X0.275000X0*%
%ADD24RoundRect,0.101600X-0.600000X0.275000X-0.600000X-0.275000X0.600000X-0.275000X0.600000X0.275000X0*%
%ADD25RoundRect,0.066667X0.133333X-0.318333X0.133333X0.318333X-0.133333X0.318333X-0.133333X-0.318333X0*%
%ADD26RoundRect,0.225000X-0.225000X-0.300000X0.225000X-0.300000X0.225000X0.300000X-0.225000X0.300000X0*%
%ADD27RoundRect,0.101600X0.275000X0.600000X-0.275000X0.600000X-0.275000X-0.600000X0.275000X-0.600000X0*%
%ADD28RoundRect,0.250000X-0.275000X0.250000X-0.275000X-0.250000X0.275000X-0.250000X0.275000X0.250000X0*%
%ADD29RoundRect,0.101600X-0.675000X0.300000X-0.675000X-0.300000X0.675000X-0.300000X0.675000X0.300000X0*%
%ADD30RoundRect,0.101600X-1.000000X0.600000X-1.000000X-0.600000X1.000000X-0.600000X1.000000X0.600000X0*%
%ADD31RoundRect,0.225000X0.300000X-0.225000X0.300000X0.225000X-0.300000X0.225000X-0.300000X-0.225000X0*%
%ADD32RoundRect,0.101600X0.450000X0.500000X-0.450000X0.500000X-0.450000X-0.500000X0.450000X-0.500000X0*%
%ADD33RoundRect,0.225000X0.225000X0.300000X-0.225000X0.300000X-0.225000X-0.300000X0.225000X-0.300000X0*%
%ADD34RoundRect,0.101600X0.300000X0.600000X-0.300000X0.600000X-0.300000X-0.600000X0.300000X-0.600000X0*%
%ADD35RoundRect,0.101600X-0.500000X0.250000X-0.500000X-0.250000X0.500000X-0.250000X0.500000X0.250000X0*%
%ADD36RoundRect,0.095000X-0.500000X0.250000X-0.500000X-0.250000X0.500000X-0.250000X0.500000X0.250000X0*%
%ADD37RoundRect,0.101600X-0.600000X0.475000X-0.600000X-0.475000X0.600000X-0.475000X0.600000X0.475000X0*%
%ADD38C,1.000000*%
%ADD39RoundRect,0.243750X0.243750X0.281250X-0.243750X0.281250X-0.243750X-0.281250X0.243750X-0.281250X0*%
%ADD40RoundRect,0.101600X-0.450000X-0.500000X0.450000X-0.500000X0.450000X0.500000X-0.450000X0.500000X0*%
%ADD41RoundRect,0.101600X-0.315000X-0.415000X0.315000X-0.415000X0.315000X0.415000X-0.315000X0.415000X0*%
%ADD42RoundRect,0.101600X0.200000X0.125000X-0.200000X0.125000X-0.200000X-0.125000X0.200000X-0.125000X0*%
%ADD43RoundRect,0.101600X0.100000X0.800000X-0.100000X0.800000X-0.100000X-0.800000X0.100000X-0.800000X0*%
%ADD44RoundRect,0.101600X-0.275000X-0.600000X0.275000X-0.600000X0.275000X0.600000X-0.275000X0.600000X0*%
%ADD45RoundRect,0.101600X-0.500000X0.600000X-0.500000X-0.600000X0.500000X-0.600000X0.500000X0.600000X0*%
%ADD46C,2.082800*%
%ADD47C,0.750000*%
%ADD48RoundRect,0.070000X0.150000X0.500000X-0.150000X0.500000X-0.150000X-0.500000X0.150000X-0.500000X0*%
%ADD49RoundRect,0.070000X-0.150000X-0.500000X0.150000X-0.500000X0.150000X0.500000X-0.150000X0.500000X0*%
%ADD50RoundRect,0.070000X0.300000X0.500000X-0.300000X0.500000X-0.300000X-0.500000X0.300000X-0.500000X0*%
%ADD51RoundRect,0.070000X-0.300000X-0.500000X0.300000X-0.500000X0.300000X0.500000X-0.300000X0.500000X0*%
%ADD52O,1.100000X1.700000*%
%ADD53O,1.100000X2.200000*%
%ADD54RoundRect,0.101600X-0.350000X0.350000X-0.350000X-0.350000X0.350000X-0.350000X0.350000X0.350000X0*%
%ADD55C,1.979600*%
%ADD56RoundRect,0.101600X2.300000X-0.500000X2.300000X0.500000X-2.300000X0.500000X-2.300000X-0.500000X0*%
%ADD57RoundRect,0.101600X1.700000X0.800000X-1.700000X0.800000X-1.700000X-0.800000X1.700000X-0.800000X0*%
%ADD58FreePoly0,0.000000*%
%ADD59FreePoly0,90.000000*%
%ADD60FreePoly0,180.000000*%
%ADD61RoundRect,0.101600X-0.425000X0.250000X-0.425000X-0.250000X0.425000X-0.250000X0.425000X0.250000X0*%
%ADD62C,0.950000*%
%ADD63RoundRect,0.101600X0.575000X-0.500000X0.575000X0.500000X-0.575000X0.500000X-0.575000X-0.500000X0*%
%ADD64RoundRect,0.101600X-0.450000X0.400000X-0.450000X-0.400000X0.450000X-0.400000X0.450000X0.400000X0*%
%ADD65RoundRect,0.101600X-0.370000X-1.190000X0.370000X-1.190000X0.370000X1.190000X-0.370000X1.190000X0*%
%ADD66RoundRect,0.270000X0.880000X-0.405000X0.880000X0.405000X-0.880000X0.405000X-0.880000X-0.405000X0*%
G04 APERTURE END LIST*
D10*
%TO.C,REF\u002A\u002A*%
X41350000Y-35150000D02*
X41350000Y-36350000D01*
X47650000Y-35150000D02*
X47650000Y-36350000D01*
D11*
X44875000Y-32600000D02*
G75*
G02*
X44125000Y-32600000I-375000J0D01*
G01*
X44125000Y-32600000D02*
G75*
G02*
X44875000Y-32600000I375000J0D01*
G01*
D10*
X-18150000Y49930000D02*
X-18150000Y48730000D01*
X-11850000Y49930000D02*
X-11850000Y48730000D01*
D11*
X-14625000Y52480000D02*
G75*
G02*
X-15375000Y52480000I-375000J0D01*
G01*
X-15375000Y52480000D02*
G75*
G02*
X-14625000Y52480000I375000J0D01*
G01*
D10*
X41350000Y49930000D02*
X41350000Y48730000D01*
X47650000Y49930000D02*
X47650000Y48730000D01*
D11*
X44875000Y52480000D02*
G75*
G02*
X44125000Y52480000I-375000J0D01*
G01*
X44125000Y52480000D02*
G75*
G02*
X44875000Y52480000I375000J0D01*
G01*
D10*
X-18150000Y-35150000D02*
X-18150000Y-36350000D01*
X-11850000Y-35150000D02*
X-11850000Y-36350000D01*
D11*
X-14625000Y-32600000D02*
G75*
G02*
X-15375000Y-32600000I-375000J0D01*
G01*
X-15375000Y-32600000D02*
G75*
G02*
X-14625000Y-32600000I375000J0D01*
G01*
D10*
X71350000Y-35150000D02*
X71350000Y-36350000D01*
X77650000Y-35150000D02*
X77650000Y-36350000D01*
D11*
X74875000Y-32600000D02*
G75*
G02*
X74125000Y-32600000I-375000J0D01*
G01*
X74125000Y-32600000D02*
G75*
G02*
X74875000Y-32600000I375000J0D01*
G01*
D10*
X11850000Y49930000D02*
X11850000Y48730000D01*
X18150000Y49930000D02*
X18150000Y48730000D01*
D11*
X15375000Y52480000D02*
G75*
G02*
X14625000Y52480000I-375000J0D01*
G01*
X14625000Y52480000D02*
G75*
G02*
X15375000Y52480000I375000J0D01*
G01*
D10*
X71350000Y49930000D02*
X71350000Y48730000D01*
X77650000Y49930000D02*
X77650000Y48730000D01*
D11*
X74875000Y52480000D02*
G75*
G02*
X74125000Y52480000I-375000J0D01*
G01*
X74125000Y52480000D02*
G75*
G02*
X74875000Y52480000I375000J0D01*
G01*
D10*
X11850000Y-35150000D02*
X11850000Y-36350000D01*
X18150000Y-35150000D02*
X18150000Y-36350000D01*
D11*
X15375000Y-32600000D02*
G75*
G02*
X14625000Y-32600000I-375000J0D01*
G01*
X14625000Y-32600000D02*
G75*
G02*
X15375000Y-32600000I375000J0D01*
G01*
D12*
%TO.C,U2*%
G36*
X67460000Y-18910000D02*
G01*
X66840000Y-19530000D01*
X66540000Y-19530000D01*
X66540000Y-15470000D01*
X67460000Y-15470000D01*
X67460000Y-18910000D01*
G37*
G36*
X7960000Y66170000D02*
G01*
X7340000Y65550000D01*
X7040000Y65550000D01*
X7040000Y69610000D01*
X7960000Y69610000D01*
X7960000Y66170000D01*
G37*
G36*
X67460000Y66170000D02*
G01*
X66840000Y65550000D01*
X66540000Y65550000D01*
X66540000Y69610000D01*
X67460000Y69610000D01*
X67460000Y66170000D01*
G37*
G36*
X7960000Y-18910000D02*
G01*
X7340000Y-19530000D01*
X7040000Y-19530000D01*
X7040000Y-15470000D01*
X7960000Y-15470000D01*
X7960000Y-18910000D01*
G37*
%TO.C,U9*%
G36*
X-15530000Y63670000D02*
G01*
X-15970000Y63670000D01*
X-15970000Y64510000D01*
X-15530000Y64510000D01*
X-15530000Y63670000D01*
G37*
G36*
X-15530000Y61670000D02*
G01*
X-15970000Y61670000D01*
X-15970000Y62510000D01*
X-15530000Y62510000D01*
X-15530000Y61670000D01*
G37*
G36*
X-15030000Y63670000D02*
G01*
X-15470000Y63670000D01*
X-15470000Y64510000D01*
X-15030000Y64510000D01*
X-15030000Y63670000D01*
G37*
G36*
X-15030000Y61670000D02*
G01*
X-15470000Y61670000D01*
X-15470000Y62510000D01*
X-15030000Y62510000D01*
X-15030000Y61670000D01*
G37*
G36*
X-14530000Y63670000D02*
G01*
X-14970000Y63670000D01*
X-14970000Y64510000D01*
X-14530000Y64510000D01*
X-14530000Y63670000D01*
G37*
G36*
X-14530000Y61670000D02*
G01*
X-14970000Y61670000D01*
X-14970000Y62510000D01*
X-14530000Y62510000D01*
X-14530000Y61670000D01*
G37*
G36*
X-14240000Y62610000D02*
G01*
X-15760000Y62610000D01*
X-15760000Y63550000D01*
X-14240000Y63550000D01*
X-14240000Y62610000D01*
G37*
G36*
X-14030000Y63670000D02*
G01*
X-14470000Y63670000D01*
X-14470000Y64510000D01*
X-14030000Y64510000D01*
X-14030000Y63670000D01*
G37*
G36*
X-14030000Y61670000D02*
G01*
X-14470000Y61670000D01*
X-14470000Y62510000D01*
X-14030000Y62510000D01*
X-14030000Y61670000D01*
G37*
G36*
X43970000Y63670000D02*
G01*
X43530000Y63670000D01*
X43530000Y64510000D01*
X43970000Y64510000D01*
X43970000Y63670000D01*
G37*
G36*
X43970000Y61670000D02*
G01*
X43530000Y61670000D01*
X43530000Y62510000D01*
X43970000Y62510000D01*
X43970000Y61670000D01*
G37*
G36*
X44470000Y63670000D02*
G01*
X44030000Y63670000D01*
X44030000Y64510000D01*
X44470000Y64510000D01*
X44470000Y63670000D01*
G37*
G36*
X44470000Y61670000D02*
G01*
X44030000Y61670000D01*
X44030000Y62510000D01*
X44470000Y62510000D01*
X44470000Y61670000D01*
G37*
G36*
X44970000Y63670000D02*
G01*
X44530000Y63670000D01*
X44530000Y64510000D01*
X44970000Y64510000D01*
X44970000Y63670000D01*
G37*
G36*
X44970000Y61670000D02*
G01*
X44530000Y61670000D01*
X44530000Y62510000D01*
X44970000Y62510000D01*
X44970000Y61670000D01*
G37*
G36*
X45260000Y62610000D02*
G01*
X43740000Y62610000D01*
X43740000Y63550000D01*
X45260000Y63550000D01*
X45260000Y62610000D01*
G37*
G36*
X45470000Y63670000D02*
G01*
X45030000Y63670000D01*
X45030000Y64510000D01*
X45470000Y64510000D01*
X45470000Y63670000D01*
G37*
G36*
X45470000Y61670000D02*
G01*
X45030000Y61670000D01*
X45030000Y62510000D01*
X45470000Y62510000D01*
X45470000Y61670000D01*
G37*
G36*
X43970000Y-21410000D02*
G01*
X43530000Y-21410000D01*
X43530000Y-20570000D01*
X43970000Y-20570000D01*
X43970000Y-21410000D01*
G37*
G36*
X43970000Y-23410000D02*
G01*
X43530000Y-23410000D01*
X43530000Y-22570000D01*
X43970000Y-22570000D01*
X43970000Y-23410000D01*
G37*
G36*
X44470000Y-21410000D02*
G01*
X44030000Y-21410000D01*
X44030000Y-20570000D01*
X44470000Y-20570000D01*
X44470000Y-21410000D01*
G37*
G36*
X44470000Y-23410000D02*
G01*
X44030000Y-23410000D01*
X44030000Y-22570000D01*
X44470000Y-22570000D01*
X44470000Y-23410000D01*
G37*
G36*
X44970000Y-21410000D02*
G01*
X44530000Y-21410000D01*
X44530000Y-20570000D01*
X44970000Y-20570000D01*
X44970000Y-21410000D01*
G37*
G36*
X44970000Y-23410000D02*
G01*
X44530000Y-23410000D01*
X44530000Y-22570000D01*
X44970000Y-22570000D01*
X44970000Y-23410000D01*
G37*
G36*
X45260000Y-22470000D02*
G01*
X43740000Y-22470000D01*
X43740000Y-21530000D01*
X45260000Y-21530000D01*
X45260000Y-22470000D01*
G37*
G36*
X45470000Y-21410000D02*
G01*
X45030000Y-21410000D01*
X45030000Y-20570000D01*
X45470000Y-20570000D01*
X45470000Y-21410000D01*
G37*
G36*
X45470000Y-23410000D02*
G01*
X45030000Y-23410000D01*
X45030000Y-22570000D01*
X45470000Y-22570000D01*
X45470000Y-23410000D01*
G37*
G36*
X-15530000Y-21410000D02*
G01*
X-15970000Y-21410000D01*
X-15970000Y-20570000D01*
X-15530000Y-20570000D01*
X-15530000Y-21410000D01*
G37*
G36*
X-15530000Y-23410000D02*
G01*
X-15970000Y-23410000D01*
X-15970000Y-22570000D01*
X-15530000Y-22570000D01*
X-15530000Y-23410000D01*
G37*
G36*
X-15030000Y-21410000D02*
G01*
X-15470000Y-21410000D01*
X-15470000Y-20570000D01*
X-15030000Y-20570000D01*
X-15030000Y-21410000D01*
G37*
G36*
X-15030000Y-23410000D02*
G01*
X-15470000Y-23410000D01*
X-15470000Y-22570000D01*
X-15030000Y-22570000D01*
X-15030000Y-23410000D01*
G37*
G36*
X-14530000Y-21410000D02*
G01*
X-14970000Y-21410000D01*
X-14970000Y-20570000D01*
X-14530000Y-20570000D01*
X-14530000Y-21410000D01*
G37*
G36*
X-14530000Y-23410000D02*
G01*
X-14970000Y-23410000D01*
X-14970000Y-22570000D01*
X-14530000Y-22570000D01*
X-14530000Y-23410000D01*
G37*
G36*
X-14240000Y-22470000D02*
G01*
X-15760000Y-22470000D01*
X-15760000Y-21530000D01*
X-14240000Y-21530000D01*
X-14240000Y-22470000D01*
G37*
G36*
X-14030000Y-21410000D02*
G01*
X-14470000Y-21410000D01*
X-14470000Y-20570000D01*
X-14030000Y-20570000D01*
X-14030000Y-21410000D01*
G37*
G36*
X-14030000Y-23410000D02*
G01*
X-14470000Y-23410000D01*
X-14470000Y-22570000D01*
X-14030000Y-22570000D01*
X-14030000Y-23410000D01*
G37*
%TD*%
D13*
%TO.C,ST2*%
X23500000Y51080000D03*
%TD*%
%TO.C,ST2*%
X83000000Y51080000D03*
%TD*%
%TO.C,ST2*%
X83000000Y-34000000D03*
%TD*%
%TO.C,ST2*%
X23500000Y-34000000D03*
%TD*%
D14*
%TO.C,C2*%
X65775000Y80580000D03*
X64225000Y80580000D03*
%TD*%
%TO.C,C2*%
X65775000Y-4500000D03*
X64225000Y-4500000D03*
%TD*%
%TO.C,C2*%
X6275000Y80580000D03*
X4725000Y80580000D03*
%TD*%
%TO.C,C2*%
X6275000Y-4500000D03*
X4725000Y-4500000D03*
%TD*%
D15*
%TO.C,U1*%
X62936500Y-12800000D03*
X62936500Y-12400000D03*
X62936500Y-12000000D03*
X62936500Y-11600000D03*
X62936500Y-11200000D03*
X62936500Y-10800000D03*
D16*
X62936500Y-10400000D03*
D15*
X62936500Y-10000000D03*
X62936500Y-9600000D03*
X62936500Y-9200000D03*
X62936500Y-8800000D03*
X62936500Y-8400000D03*
X62936500Y-8000000D03*
D16*
X62936500Y-7600000D03*
D15*
X62936500Y-7200000D03*
D17*
X62300000Y-6563500D03*
X61900000Y-6563500D03*
X61500000Y-6563500D03*
X61100000Y-6563500D03*
X60700000Y-6563500D03*
D18*
X60300000Y-6563500D03*
D17*
X59900000Y-6563500D03*
X59500000Y-6563500D03*
X59100000Y-6563500D03*
X58700000Y-6563500D03*
X58300000Y-6563500D03*
X57900000Y-6563500D03*
D18*
X57500000Y-6563500D03*
D17*
X57100000Y-6563500D03*
X56700000Y-6563500D03*
D16*
X56063500Y-7200000D03*
X56063500Y-7600000D03*
X56063500Y-8000000D03*
X56063500Y-8400000D03*
D15*
X56063500Y-8800000D03*
D16*
X56063500Y-9200000D03*
X56063500Y-9600000D03*
X56063500Y-10000000D03*
X56063500Y-10400000D03*
X56063500Y-10800000D03*
X56063500Y-11200000D03*
D15*
X56063500Y-11600000D03*
D16*
X56063500Y-12000000D03*
X56063500Y-12400000D03*
X56063500Y-12800000D03*
D18*
X56700000Y-13436500D03*
X57100000Y-13436500D03*
X57500000Y-13436500D03*
D17*
X57900000Y-13436500D03*
D18*
X58300000Y-13436500D03*
X58700000Y-13436500D03*
X59100000Y-13436500D03*
X59500000Y-13436500D03*
X59900000Y-13436500D03*
X60300000Y-13436500D03*
D17*
X60700000Y-13436500D03*
X61100000Y-13436500D03*
X61500000Y-13436500D03*
X61900000Y-13436500D03*
X62300000Y-13436500D03*
D19*
X59500000Y-10000000D03*
%TD*%
D15*
%TO.C,U1*%
X3436500Y72280000D03*
X3436500Y72680000D03*
X3436500Y73080000D03*
X3436500Y73480000D03*
X3436500Y73880000D03*
X3436500Y74280000D03*
D16*
X3436500Y74680000D03*
D15*
X3436500Y75080000D03*
X3436500Y75480000D03*
X3436500Y75880000D03*
X3436500Y76280000D03*
X3436500Y76680000D03*
X3436500Y77080000D03*
D16*
X3436500Y77480000D03*
D15*
X3436500Y77880000D03*
D17*
X2800000Y78516500D03*
X2400000Y78516500D03*
X2000000Y78516500D03*
X1600000Y78516500D03*
X1200000Y78516500D03*
D18*
X800000Y78516500D03*
D17*
X400000Y78516500D03*
X0Y78516500D03*
X-400000Y78516500D03*
X-800000Y78516500D03*
X-1200000Y78516500D03*
X-1600000Y78516500D03*
D18*
X-2000000Y78516500D03*
D17*
X-2400000Y78516500D03*
X-2800000Y78516500D03*
D16*
X-3436500Y77880000D03*
X-3436500Y77480000D03*
X-3436500Y77080000D03*
X-3436500Y76680000D03*
D15*
X-3436500Y76280000D03*
D16*
X-3436500Y75880000D03*
X-3436500Y75480000D03*
X-3436500Y75080000D03*
X-3436500Y74680000D03*
X-3436500Y74280000D03*
X-3436500Y73880000D03*
D15*
X-3436500Y73480000D03*
D16*
X-3436500Y73080000D03*
X-3436500Y72680000D03*
X-3436500Y72280000D03*
D18*
X-2800000Y71643500D03*
X-2400000Y71643500D03*
X-2000000Y71643500D03*
D17*
X-1600000Y71643500D03*
D18*
X-1200000Y71643500D03*
X-800000Y71643500D03*
X-400000Y71643500D03*
X0Y71643500D03*
X400000Y71643500D03*
X800000Y71643500D03*
D17*
X1200000Y71643500D03*
X1600000Y71643500D03*
X2000000Y71643500D03*
X2400000Y71643500D03*
X2800000Y71643500D03*
D19*
X0Y75080000D03*
%TD*%
D15*
%TO.C,U1*%
X62936500Y72280000D03*
X62936500Y72680000D03*
X62936500Y73080000D03*
X62936500Y73480000D03*
X62936500Y73880000D03*
X62936500Y74280000D03*
D16*
X62936500Y74680000D03*
D15*
X62936500Y75080000D03*
X62936500Y75480000D03*
X62936500Y75880000D03*
X62936500Y76280000D03*
X62936500Y76680000D03*
X62936500Y77080000D03*
D16*
X62936500Y77480000D03*
D15*
X62936500Y77880000D03*
D17*
X62300000Y78516500D03*
X61900000Y78516500D03*
X61500000Y78516500D03*
X61100000Y78516500D03*
X60700000Y78516500D03*
D18*
X60300000Y78516500D03*
D17*
X59900000Y78516500D03*
X59500000Y78516500D03*
X59100000Y78516500D03*
X58700000Y78516500D03*
X58300000Y78516500D03*
X57900000Y78516500D03*
D18*
X57500000Y78516500D03*
D17*
X57100000Y78516500D03*
X56700000Y78516500D03*
D16*
X56063500Y77880000D03*
X56063500Y77480000D03*
X56063500Y77080000D03*
X56063500Y76680000D03*
D15*
X56063500Y76280000D03*
D16*
X56063500Y75880000D03*
X56063500Y75480000D03*
X56063500Y75080000D03*
X56063500Y74680000D03*
X56063500Y74280000D03*
X56063500Y73880000D03*
D15*
X56063500Y73480000D03*
D16*
X56063500Y73080000D03*
X56063500Y72680000D03*
X56063500Y72280000D03*
D18*
X56700000Y71643500D03*
X57100000Y71643500D03*
X57500000Y71643500D03*
D17*
X57900000Y71643500D03*
D18*
X58300000Y71643500D03*
X58700000Y71643500D03*
X59100000Y71643500D03*
X59500000Y71643500D03*
X59900000Y71643500D03*
X60300000Y71643500D03*
D17*
X60700000Y71643500D03*
X61100000Y71643500D03*
X61500000Y71643500D03*
X61900000Y71643500D03*
X62300000Y71643500D03*
D19*
X59500000Y75080000D03*
%TD*%
D15*
%TO.C,U1*%
X3436500Y-12800000D03*
X3436500Y-12400000D03*
X3436500Y-12000000D03*
X3436500Y-11600000D03*
X3436500Y-11200000D03*
X3436500Y-10800000D03*
D16*
X3436500Y-10400000D03*
D15*
X3436500Y-10000000D03*
X3436500Y-9600000D03*
X3436500Y-9200000D03*
X3436500Y-8800000D03*
X3436500Y-8400000D03*
X3436500Y-8000000D03*
D16*
X3436500Y-7600000D03*
D15*
X3436500Y-7200000D03*
D17*
X2800000Y-6563500D03*
X2400000Y-6563500D03*
X2000000Y-6563500D03*
X1600000Y-6563500D03*
X1200000Y-6563500D03*
D18*
X800000Y-6563500D03*
D17*
X400000Y-6563500D03*
X0Y-6563500D03*
X-400000Y-6563500D03*
X-800000Y-6563500D03*
X-1200000Y-6563500D03*
X-1600000Y-6563500D03*
D18*
X-2000000Y-6563500D03*
D17*
X-2400000Y-6563500D03*
X-2800000Y-6563500D03*
D16*
X-3436500Y-7200000D03*
X-3436500Y-7600000D03*
X-3436500Y-8000000D03*
X-3436500Y-8400000D03*
D15*
X-3436500Y-8800000D03*
D16*
X-3436500Y-9200000D03*
X-3436500Y-9600000D03*
X-3436500Y-10000000D03*
X-3436500Y-10400000D03*
X-3436500Y-10800000D03*
X-3436500Y-11200000D03*
D15*
X-3436500Y-11600000D03*
D16*
X-3436500Y-12000000D03*
X-3436500Y-12400000D03*
X-3436500Y-12800000D03*
D18*
X-2800000Y-13436500D03*
X-2400000Y-13436500D03*
X-2000000Y-13436500D03*
D17*
X-1600000Y-13436500D03*
D18*
X-1200000Y-13436500D03*
X-800000Y-13436500D03*
X-400000Y-13436500D03*
X0Y-13436500D03*
X400000Y-13436500D03*
X800000Y-13436500D03*
D17*
X1200000Y-13436500D03*
X1600000Y-13436500D03*
X2000000Y-13436500D03*
X2400000Y-13436500D03*
X2800000Y-13436500D03*
D19*
X0Y-10000000D03*
%TD*%
D20*
%TO.C,*%
X-33175000Y127910000D03*
%TD*%
D21*
%TO.C,R24*%
X13000000Y88405000D03*
X13000000Y86755000D03*
%TD*%
%TO.C,R24*%
X72500000Y3325000D03*
X72500000Y1675000D03*
%TD*%
%TO.C,R24*%
X72500000Y88405000D03*
X72500000Y86755000D03*
%TD*%
%TO.C,R24*%
X13000000Y3325000D03*
X13000000Y1675000D03*
%TD*%
D22*
%TO.C,C29*%
X41500000Y68805000D03*
X41500000Y70355000D03*
%TD*%
%TO.C,C29*%
X-18000000Y68805000D03*
X-18000000Y70355000D03*
%TD*%
%TO.C,C29*%
X41500000Y-16275000D03*
X41500000Y-14725000D03*
%TD*%
%TO.C,C29*%
X-18000000Y-16275000D03*
X-18000000Y-14725000D03*
%TD*%
D23*
%TO.C,C21*%
X19225000Y111330000D03*
X20775000Y111330000D03*
%TD*%
%TO.C,C21*%
X78725000Y26250000D03*
X80275000Y26250000D03*
%TD*%
%TO.C,C21*%
X78725000Y111330000D03*
X80275000Y111330000D03*
%TD*%
%TO.C,C21*%
X19225000Y26250000D03*
X20775000Y26250000D03*
%TD*%
D24*
%TO.C,U8*%
X43199900Y-14550000D03*
X43199900Y-15500000D03*
X43199900Y-16450000D03*
X45800100Y-16450000D03*
X45800100Y-14550000D03*
%TD*%
%TO.C,U8*%
X43199900Y70530000D03*
X43199900Y69580000D03*
X43199900Y68630000D03*
X45800100Y68630000D03*
X45800100Y70530000D03*
%TD*%
%TO.C,U8*%
X-16300100Y70530000D03*
X-16300100Y69580000D03*
X-16300100Y68630000D03*
X-13699900Y68630000D03*
X-13699900Y70530000D03*
%TD*%
%TO.C,U8*%
X-16300100Y-14550000D03*
X-16300100Y-15500000D03*
X-16300100Y-16450000D03*
X-13699900Y-16450000D03*
X-13699900Y-14550000D03*
%TD*%
D25*
%TO.C,U6*%
X-15750000Y73840000D03*
X-15250000Y73840000D03*
X-14750000Y73840000D03*
X-14250000Y73840000D03*
X-14250000Y75320000D03*
X-14750000Y75320000D03*
X-15250000Y75320000D03*
X-15750000Y75320000D03*
%TD*%
%TO.C,U6*%
X43750000Y73840000D03*
X44250000Y73840000D03*
X44750000Y73840000D03*
X45250000Y73840000D03*
X45250000Y75320000D03*
X44750000Y75320000D03*
X44250000Y75320000D03*
X43750000Y75320000D03*
%TD*%
%TO.C,U6*%
X43750000Y-11240000D03*
X44250000Y-11240000D03*
X44750000Y-11240000D03*
X45250000Y-11240000D03*
X45250000Y-9760000D03*
X44750000Y-9760000D03*
X44250000Y-9760000D03*
X43750000Y-9760000D03*
%TD*%
%TO.C,U6*%
X-15750000Y-11240000D03*
X-15250000Y-11240000D03*
X-14750000Y-11240000D03*
X-14250000Y-11240000D03*
X-14250000Y-9760000D03*
X-14750000Y-9760000D03*
X-15250000Y-9760000D03*
X-15750000Y-9760000D03*
%TD*%
D26*
%TO.C,R7*%
X68175000Y-12500000D03*
X69825000Y-12500000D03*
%TD*%
%TO.C,R7*%
X8675000Y72580000D03*
X10325000Y72580000D03*
%TD*%
%TO.C,R7*%
X68175000Y72580000D03*
X69825000Y72580000D03*
%TD*%
%TO.C,R7*%
X8675000Y-12500000D03*
X10325000Y-12500000D03*
%TD*%
D14*
%TO.C,C13*%
X-5225000Y74080000D03*
X-6775000Y74080000D03*
%TD*%
%TO.C,C13*%
X54275000Y-11000000D03*
X52725000Y-11000000D03*
%TD*%
%TO.C,C13*%
X54275000Y74080000D03*
X52725000Y74080000D03*
%TD*%
%TO.C,C13*%
X-5225000Y-11000000D03*
X-6775000Y-11000000D03*
%TD*%
%TO.C,C5*%
X6275000Y85580000D03*
X4725000Y85580000D03*
%TD*%
%TO.C,C5*%
X65775000Y85580000D03*
X64225000Y85580000D03*
%TD*%
%TO.C,C5*%
X65775000Y500000D03*
X64225000Y500000D03*
%TD*%
%TO.C,C5*%
X6275000Y500000D03*
X4725000Y500000D03*
%TD*%
D27*
%TO.C,D3*%
X75450000Y29550100D03*
X74500000Y29550100D03*
X73550000Y29550100D03*
X73550000Y26949900D03*
X74500000Y26950000D03*
X75450000Y26949900D03*
%TD*%
%TO.C,D3*%
X15950000Y114630100D03*
X15000000Y114630100D03*
X14050000Y114630100D03*
X14050000Y112029900D03*
X15000000Y112030000D03*
X15950000Y112029900D03*
%TD*%
%TO.C,D3*%
X75450000Y114630100D03*
X74500000Y114630100D03*
X73550000Y114630100D03*
X73550000Y112029900D03*
X74500000Y112030000D03*
X75450000Y112029900D03*
%TD*%
%TO.C,D3*%
X15950000Y29550100D03*
X15000000Y29550100D03*
X14050000Y29550100D03*
X14050000Y26949900D03*
X15000000Y26950000D03*
X15950000Y26949900D03*
%TD*%
D22*
%TO.C,C8*%
X-3500000Y80305000D03*
X-3500000Y81855000D03*
%TD*%
%TO.C,C8*%
X56000000Y-4775000D03*
X56000000Y-3225000D03*
%TD*%
%TO.C,C8*%
X56000000Y80305000D03*
X56000000Y81855000D03*
%TD*%
%TO.C,C8*%
X-3500000Y-4775000D03*
X-3500000Y-3225000D03*
%TD*%
D28*
%TO.C,C17*%
X63750000Y-21725000D03*
X63750000Y-23275000D03*
%TD*%
%TO.C,C17*%
X63750000Y63355000D03*
X63750000Y61805000D03*
%TD*%
%TO.C,C17*%
X4250000Y63355000D03*
X4250000Y61805000D03*
%TD*%
%TO.C,C17*%
X4250000Y-21725000D03*
X4250000Y-23275000D03*
%TD*%
D29*
%TO.C,J11*%
X-24500000Y90580000D03*
X-24500000Y89580000D03*
X-24500000Y88580000D03*
X-24500000Y87580000D03*
D30*
X-28175000Y86280000D03*
X-28175000Y91880000D03*
%TD*%
D29*
%TO.C,J11*%
X35000000Y90580000D03*
X35000000Y89580000D03*
X35000000Y88580000D03*
X35000000Y87580000D03*
D30*
X31325000Y86280000D03*
X31325000Y91880000D03*
%TD*%
D29*
%TO.C,J11*%
X35000000Y5500000D03*
X35000000Y4500000D03*
X35000000Y3500000D03*
X35000000Y2500000D03*
D30*
X31325000Y1200000D03*
X31325000Y6800000D03*
%TD*%
D29*
%TO.C,J11*%
X-24500000Y5500000D03*
X-24500000Y4500000D03*
X-24500000Y3500000D03*
X-24500000Y2500000D03*
D30*
X-28175000Y1200000D03*
X-28175000Y6800000D03*
%TD*%
D31*
%TO.C,R18*%
X20000000Y76755000D03*
X20000000Y78405000D03*
%TD*%
%TO.C,R18*%
X79500000Y-8325000D03*
X79500000Y-6675000D03*
%TD*%
%TO.C,R18*%
X79500000Y76755000D03*
X79500000Y78405000D03*
%TD*%
%TO.C,R18*%
X20000000Y-8325000D03*
X20000000Y-6675000D03*
%TD*%
D21*
%TO.C,R6*%
X750000Y63405000D03*
X750000Y61755000D03*
%TD*%
%TO.C,R6*%
X60250000Y63405000D03*
X60250000Y61755000D03*
%TD*%
%TO.C,R6*%
X60250000Y-21675000D03*
X60250000Y-23325000D03*
%TD*%
%TO.C,R6*%
X750000Y-21675000D03*
X750000Y-23325000D03*
%TD*%
D32*
%TO.C,SW2*%
X51050000Y56530000D03*
X46950000Y56530000D03*
X51050000Y58130000D03*
X46950000Y58130000D03*
%TD*%
%TO.C,SW2*%
X51050000Y-28550000D03*
X46950000Y-28550000D03*
X51050000Y-26950000D03*
X46950000Y-26950000D03*
%TD*%
%TO.C,SW2*%
X-8450000Y56530000D03*
X-12550000Y56530000D03*
X-8450000Y58130000D03*
X-12550000Y58130000D03*
%TD*%
%TO.C,SW2*%
X-8450000Y-28550000D03*
X-12550000Y-28550000D03*
X-8450000Y-26950000D03*
X-12550000Y-26950000D03*
%TD*%
D22*
%TO.C,C23*%
X51000000Y33975000D03*
X51000000Y35525000D03*
%TD*%
%TO.C,C23*%
X-8500000Y119055000D03*
X-8500000Y120605000D03*
%TD*%
%TO.C,C23*%
X51000000Y119055000D03*
X51000000Y120605000D03*
%TD*%
%TO.C,C23*%
X-8500000Y33975000D03*
X-8500000Y35525000D03*
%TD*%
D33*
%TO.C,R1*%
X54325000Y-15500000D03*
X52675000Y-15500000D03*
%TD*%
%TO.C,R1*%
X54325000Y69580000D03*
X52675000Y69580000D03*
%TD*%
%TO.C,R1*%
X-5175000Y69580000D03*
X-6825000Y69580000D03*
%TD*%
%TO.C,R1*%
X-5175000Y-15500000D03*
X-6825000Y-15500000D03*
%TD*%
D34*
%TO.C,U5*%
X78945000Y24550000D03*
X77675000Y24550000D03*
X76405000Y24550000D03*
X75135000Y24550000D03*
X73865000Y24550000D03*
X72595000Y24550000D03*
X71325000Y24550000D03*
X70055000Y24550000D03*
X70055000Y18950000D03*
X71325000Y18950000D03*
X72595000Y18950000D03*
X73865000Y18950000D03*
X75135000Y18950000D03*
X76405000Y18950000D03*
X77675000Y18950000D03*
X78945000Y18950000D03*
%TD*%
%TO.C,U5*%
X19445000Y109630000D03*
X18175000Y109630000D03*
X16905000Y109630000D03*
X15635000Y109630000D03*
X14365000Y109630000D03*
X13095000Y109630000D03*
X11825000Y109630000D03*
X10555000Y109630000D03*
X10555000Y104030000D03*
X11825000Y104030000D03*
X13095000Y104030000D03*
X14365000Y104030000D03*
X15635000Y104030000D03*
X16905000Y104030000D03*
X18175000Y104030000D03*
X19445000Y104030000D03*
%TD*%
%TO.C,U5*%
X78945000Y109630000D03*
X77675000Y109630000D03*
X76405000Y109630000D03*
X75135000Y109630000D03*
X73865000Y109630000D03*
X72595000Y109630000D03*
X71325000Y109630000D03*
X70055000Y109630000D03*
X70055000Y104030000D03*
X71325000Y104030000D03*
X72595000Y104030000D03*
X73865000Y104030000D03*
X75135000Y104030000D03*
X76405000Y104030000D03*
X77675000Y104030000D03*
X78945000Y104030000D03*
%TD*%
%TO.C,U5*%
X19445000Y24550000D03*
X18175000Y24550000D03*
X16905000Y24550000D03*
X15635000Y24550000D03*
X14365000Y24550000D03*
X13095000Y24550000D03*
X11825000Y24550000D03*
X10555000Y24550000D03*
X10555000Y18950000D03*
X11825000Y18950000D03*
X13095000Y18950000D03*
X14365000Y18950000D03*
X15635000Y18950000D03*
X16905000Y18950000D03*
X18175000Y18950000D03*
X19445000Y18950000D03*
%TD*%
D35*
%TO.C,J10*%
X80475000Y3850000D03*
X80475000Y2750000D03*
X80475000Y1650000D03*
D36*
X80475000Y900000D03*
D35*
X80475000Y-550000D03*
X80475000Y-1650000D03*
X80475000Y-2750000D03*
X80475000Y-3850000D03*
D36*
X80475000Y200000D03*
D37*
X74275000Y-5100000D03*
X78725000Y-5100000D03*
X74275000Y5100000D03*
X78725000Y5100000D03*
%TD*%
D35*
%TO.C,J10*%
X80475000Y88930000D03*
X80475000Y87830000D03*
X80475000Y86730000D03*
D36*
X80475000Y85980000D03*
D35*
X80475000Y84530000D03*
X80475000Y83430000D03*
X80475000Y82330000D03*
X80475000Y81230000D03*
D36*
X80475000Y85280000D03*
D37*
X74275000Y79980000D03*
X78725000Y79980000D03*
X74275000Y90180000D03*
X78725000Y90180000D03*
%TD*%
D35*
%TO.C,J10*%
X20975000Y88930000D03*
X20975000Y87830000D03*
X20975000Y86730000D03*
D36*
X20975000Y85980000D03*
D35*
X20975000Y84530000D03*
X20975000Y83430000D03*
X20975000Y82330000D03*
X20975000Y81230000D03*
D36*
X20975000Y85280000D03*
D37*
X14775000Y79980000D03*
X19225000Y79980000D03*
X14775000Y90180000D03*
X19225000Y90180000D03*
%TD*%
D35*
%TO.C,J10*%
X20975000Y3850000D03*
X20975000Y2750000D03*
X20975000Y1650000D03*
D36*
X20975000Y900000D03*
D35*
X20975000Y-550000D03*
X20975000Y-1650000D03*
X20975000Y-2750000D03*
X20975000Y-3850000D03*
D36*
X20975000Y200000D03*
D37*
X14775000Y-5100000D03*
X19225000Y-5100000D03*
X14775000Y5100000D03*
X19225000Y5100000D03*
%TD*%
D21*
%TO.C,R16*%
X42000000Y80405000D03*
X42000000Y78755000D03*
%TD*%
%TO.C,R16*%
X42000000Y-4675000D03*
X42000000Y-6325000D03*
%TD*%
%TO.C,R16*%
X-17500000Y80405000D03*
X-17500000Y78755000D03*
%TD*%
%TO.C,R16*%
X-17500000Y-4675000D03*
X-17500000Y-6325000D03*
%TD*%
D38*
%TO.C,FID4*%
X82500000Y-39000000D03*
%TD*%
%TO.C,FID4*%
X23000000Y46080000D03*
%TD*%
%TO.C,FID4*%
X82500000Y46080000D03*
%TD*%
%TO.C,FID4*%
X23000000Y-39000000D03*
%TD*%
D22*
%TO.C,C20*%
X48000000Y33975000D03*
X48000000Y35525000D03*
%TD*%
%TO.C,C20*%
X48000000Y119055000D03*
X48000000Y120605000D03*
%TD*%
%TO.C,C20*%
X-11500000Y119055000D03*
X-11500000Y120605000D03*
%TD*%
%TO.C,C20*%
X-11500000Y33975000D03*
X-11500000Y35525000D03*
%TD*%
D38*
%TO.C,FID1*%
X36500000Y39000000D03*
%TD*%
%TO.C,FID1*%
X-23000000Y124080000D03*
%TD*%
%TO.C,FID1*%
X36500000Y124080000D03*
%TD*%
%TO.C,FID1*%
X-23000000Y39000000D03*
%TD*%
D31*
%TO.C,R8*%
X10750000Y61755000D03*
X10750000Y63405000D03*
%TD*%
%TO.C,R8*%
X70250000Y61755000D03*
X70250000Y63405000D03*
%TD*%
%TO.C,R8*%
X70250000Y-23325000D03*
X70250000Y-21675000D03*
%TD*%
%TO.C,R8*%
X10750000Y-23325000D03*
X10750000Y-21675000D03*
%TD*%
D33*
%TO.C,R9*%
X72825000Y-12500000D03*
X71175000Y-12500000D03*
%TD*%
%TO.C,R9*%
X13325000Y72580000D03*
X11675000Y72580000D03*
%TD*%
%TO.C,R9*%
X72825000Y72580000D03*
X71175000Y72580000D03*
%TD*%
%TO.C,R9*%
X13325000Y-12500000D03*
X11675000Y-12500000D03*
%TD*%
D14*
%TO.C,C1*%
X-5225000Y72580000D03*
X-6775000Y72580000D03*
%TD*%
%TO.C,C1*%
X54275000Y-12500000D03*
X52725000Y-12500000D03*
%TD*%
%TO.C,C1*%
X54275000Y72580000D03*
X52725000Y72580000D03*
%TD*%
%TO.C,C1*%
X-5225000Y-12500000D03*
X-6775000Y-12500000D03*
%TD*%
D39*
%TO.C,D5*%
X45287500Y49830000D03*
X43712500Y49830000D03*
%TD*%
%TO.C,D5*%
X-14212500Y49830000D03*
X-15787500Y49830000D03*
%TD*%
%TO.C,D5*%
X45287500Y-35250000D03*
X43712500Y-35250000D03*
%TD*%
%TO.C,D5*%
X-14212500Y-35250000D03*
X-15787500Y-35250000D03*
%TD*%
D21*
%TO.C,R28*%
X-17500000Y63905000D03*
X-17500000Y62255000D03*
%TD*%
%TO.C,R28*%
X42000000Y-21175000D03*
X42000000Y-22825000D03*
%TD*%
%TO.C,R28*%
X42000000Y63905000D03*
X42000000Y62255000D03*
%TD*%
%TO.C,R28*%
X-17500000Y-21175000D03*
X-17500000Y-22825000D03*
%TD*%
D40*
%TO.C,SW4*%
X8950000Y75880000D03*
X13050000Y75880000D03*
X8950000Y74280000D03*
X13050000Y74280000D03*
%TD*%
%TO.C,SW4*%
X68450000Y-9200000D03*
X72550000Y-9200000D03*
X68450000Y-10800000D03*
X72550000Y-10800000D03*
%TD*%
%TO.C,SW4*%
X68450000Y75880000D03*
X72550000Y75880000D03*
X68450000Y74280000D03*
X72550000Y74280000D03*
%TD*%
%TO.C,SW4*%
X8950000Y-9200000D03*
X13050000Y-9200000D03*
X8950000Y-10800000D03*
X13050000Y-10800000D03*
%TD*%
D41*
%TO.C,D2*%
X75650000Y102330000D03*
X73350000Y102330000D03*
%TD*%
%TO.C,D2*%
X16150000Y102330000D03*
X13850000Y102330000D03*
%TD*%
%TO.C,D2*%
X75650000Y17250000D03*
X73350000Y17250000D03*
%TD*%
%TO.C,D2*%
X16150000Y17250000D03*
X13850000Y17250000D03*
%TD*%
D21*
%TO.C,R11*%
X12500000Y114155000D03*
X12500000Y112505000D03*
%TD*%
%TO.C,R11*%
X72000000Y29075000D03*
X72000000Y27425000D03*
%TD*%
%TO.C,R11*%
X72000000Y114155000D03*
X72000000Y112505000D03*
%TD*%
%TO.C,R11*%
X12500000Y29075000D03*
X12500000Y27425000D03*
%TD*%
D42*
%TO.C,U3*%
X68250000Y-23250000D03*
X68250000Y-22750000D03*
X68250000Y-22250000D03*
X68250000Y-21750000D03*
X65750000Y-21750000D03*
X65750000Y-22250000D03*
X65750000Y-22750000D03*
X65750000Y-23250000D03*
D43*
X67000000Y-22500000D03*
%TD*%
D42*
%TO.C,U3*%
X8750000Y61830000D03*
X8750000Y62330000D03*
X8750000Y62830000D03*
X8750000Y63330000D03*
X6250000Y63330000D03*
X6250000Y62830000D03*
X6250000Y62330000D03*
X6250000Y61830000D03*
D43*
X7500000Y62580000D03*
%TD*%
D42*
%TO.C,U3*%
X68250000Y61830000D03*
X68250000Y62330000D03*
X68250000Y62830000D03*
X68250000Y63330000D03*
X65750000Y63330000D03*
X65750000Y62830000D03*
X65750000Y62330000D03*
X65750000Y61830000D03*
D43*
X67000000Y62580000D03*
%TD*%
D42*
%TO.C,U3*%
X8750000Y-23250000D03*
X8750000Y-22750000D03*
X8750000Y-22250000D03*
X8750000Y-21750000D03*
X6250000Y-21750000D03*
X6250000Y-22250000D03*
X6250000Y-22750000D03*
X6250000Y-23250000D03*
D43*
X7500000Y-22500000D03*
%TD*%
D28*
%TO.C,C3*%
X2500000Y67355000D03*
X2500000Y65805000D03*
%TD*%
%TO.C,C3*%
X62000000Y-17725000D03*
X62000000Y-19275000D03*
%TD*%
%TO.C,C3*%
X62000000Y67355000D03*
X62000000Y65805000D03*
%TD*%
%TO.C,C3*%
X2500000Y-17725000D03*
X2500000Y-19275000D03*
%TD*%
D26*
%TO.C,R14*%
X66675000Y100830000D03*
X68325000Y100830000D03*
%TD*%
%TO.C,R14*%
X7175000Y100830000D03*
X8825000Y100830000D03*
%TD*%
%TO.C,R14*%
X66675000Y15750000D03*
X68325000Y15750000D03*
%TD*%
%TO.C,R14*%
X7175000Y15750000D03*
X8825000Y15750000D03*
%TD*%
D44*
%TO.C,U7*%
X43550000Y-6800100D03*
X44500000Y-6800100D03*
X45450000Y-6800100D03*
X45450000Y-4199900D03*
X43550000Y-4199900D03*
%TD*%
%TO.C,U7*%
X43550000Y78279900D03*
X44500000Y78279900D03*
X45450000Y78279900D03*
X45450000Y80880100D03*
X43550000Y80880100D03*
%TD*%
%TO.C,U7*%
X-15950000Y78279900D03*
X-15000000Y78279900D03*
X-14050000Y78279900D03*
X-14050000Y80880100D03*
X-15950000Y80880100D03*
%TD*%
%TO.C,U7*%
X-15950000Y-6800100D03*
X-15000000Y-6800100D03*
X-14050000Y-6800100D03*
X-14050000Y-4199900D03*
X-15950000Y-4199900D03*
%TD*%
%TO.C,D1*%
X58550000Y55529900D03*
X59500000Y55529900D03*
X60450000Y55529900D03*
X60450000Y58130100D03*
X59500000Y58130000D03*
X58550000Y58130100D03*
%TD*%
%TO.C,D1*%
X-950000Y55529900D03*
X0Y55529900D03*
X950000Y55529900D03*
X950000Y58130100D03*
X0Y58130000D03*
X-950000Y58130100D03*
%TD*%
%TO.C,D1*%
X58550000Y-29550100D03*
X59500000Y-29550100D03*
X60450000Y-29550100D03*
X60450000Y-26949900D03*
X59500000Y-26950000D03*
X58550000Y-26949900D03*
%TD*%
%TO.C,D1*%
X-950000Y-29550100D03*
X0Y-29550100D03*
X950000Y-29550100D03*
X950000Y-26949900D03*
X0Y-26950000D03*
X-950000Y-26949900D03*
%TD*%
D45*
%TO.C,Y1*%
X4850000Y83930000D03*
X4850000Y82230000D03*
X6150000Y82230000D03*
X6150000Y83930000D03*
%TD*%
%TO.C,Y1*%
X64350000Y-1150000D03*
X64350000Y-2850000D03*
X65650000Y-2850000D03*
X65650000Y-1150000D03*
%TD*%
%TO.C,Y1*%
X64350000Y83930000D03*
X64350000Y82230000D03*
X65650000Y82230000D03*
X65650000Y83930000D03*
%TD*%
%TO.C,Y1*%
X4850000Y-1150000D03*
X4850000Y-2850000D03*
X6150000Y-2850000D03*
X6150000Y-1150000D03*
%TD*%
D46*
%TO.C,J7*%
X87440000Y-10160000D03*
X87440000Y-12700000D03*
X87440000Y-15240000D03*
X87440000Y-17780000D03*
X87440000Y-20320000D03*
X87440000Y-22860000D03*
X87440000Y-25400000D03*
X87440000Y-27940000D03*
X87440000Y-30480000D03*
X87440000Y-33020000D03*
X87440000Y-35560000D03*
X87440000Y-38100000D03*
%TD*%
%TO.C,J7*%
X87440000Y74920000D03*
X87440000Y72380000D03*
X87440000Y69840000D03*
X87440000Y67300000D03*
X87440000Y64760000D03*
X87440000Y62220000D03*
X87440000Y59680000D03*
X87440000Y57140000D03*
X87440000Y54600000D03*
X87440000Y52060000D03*
X87440000Y49520000D03*
X87440000Y46980000D03*
%TD*%
%TO.C,J7*%
X27940000Y74920000D03*
X27940000Y72380000D03*
X27940000Y69840000D03*
X27940000Y67300000D03*
X27940000Y64760000D03*
X27940000Y62220000D03*
X27940000Y59680000D03*
X27940000Y57140000D03*
X27940000Y54600000D03*
X27940000Y52060000D03*
X27940000Y49520000D03*
X27940000Y46980000D03*
%TD*%
%TO.C,J7*%
X27940000Y-10160000D03*
X27940000Y-12700000D03*
X27940000Y-15240000D03*
X27940000Y-17780000D03*
X27940000Y-20320000D03*
X27940000Y-22860000D03*
X27940000Y-25400000D03*
X27940000Y-27940000D03*
X27940000Y-30480000D03*
X27940000Y-33020000D03*
X27940000Y-35560000D03*
X27940000Y-38100000D03*
%TD*%
D47*
%TO.C,J1*%
X56610000Y-33195000D03*
X62390000Y-33195000D03*
D48*
X58250000Y-32090000D03*
X59250000Y-32090000D03*
D49*
X59750000Y-32090000D03*
X60750000Y-32090000D03*
X61250000Y-32090000D03*
X60250000Y-32090000D03*
D48*
X58750000Y-32090000D03*
X57750000Y-32090000D03*
D50*
X56275000Y-32090000D03*
D51*
X62725000Y-32090000D03*
D52*
X55182000Y-36845000D03*
D53*
X55182000Y-32665000D03*
X63818000Y-32665000D03*
D52*
X63818000Y-36845000D03*
D50*
X57050000Y-32090000D03*
D51*
X61950000Y-32090000D03*
%TD*%
D47*
%TO.C,J1*%
X-2890000Y51885000D03*
X2890000Y51885000D03*
D48*
X-1250000Y52990000D03*
X-250000Y52990000D03*
D49*
X250000Y52990000D03*
X1250000Y52990000D03*
X1750000Y52990000D03*
X750000Y52990000D03*
D48*
X-750000Y52990000D03*
X-1750000Y52990000D03*
D50*
X-3225000Y52990000D03*
D51*
X3225000Y52990000D03*
D52*
X-4318000Y48235000D03*
D53*
X-4318000Y52415000D03*
X4318000Y52415000D03*
D52*
X4318000Y48235000D03*
D50*
X-2450000Y52990000D03*
D51*
X2450000Y52990000D03*
%TD*%
D47*
%TO.C,J1*%
X56610000Y51885000D03*
X62390000Y51885000D03*
D48*
X58250000Y52990000D03*
X59250000Y52990000D03*
D49*
X59750000Y52990000D03*
X60750000Y52990000D03*
X61250000Y52990000D03*
X60250000Y52990000D03*
D48*
X58750000Y52990000D03*
X57750000Y52990000D03*
D50*
X56275000Y52990000D03*
D51*
X62725000Y52990000D03*
D52*
X55182000Y48235000D03*
D53*
X55182000Y52415000D03*
X63818000Y52415000D03*
D52*
X63818000Y48235000D03*
D50*
X57050000Y52990000D03*
D51*
X61950000Y52990000D03*
%TD*%
D47*
%TO.C,J1*%
X-2890000Y-33195000D03*
X2890000Y-33195000D03*
D48*
X-1250000Y-32090000D03*
X-250000Y-32090000D03*
D49*
X250000Y-32090000D03*
X1250000Y-32090000D03*
X1750000Y-32090000D03*
X750000Y-32090000D03*
D48*
X-750000Y-32090000D03*
X-1750000Y-32090000D03*
D50*
X-3225000Y-32090000D03*
D51*
X3225000Y-32090000D03*
D52*
X-4318000Y-36845000D03*
D53*
X-4318000Y-32665000D03*
X4318000Y-32665000D03*
D52*
X4318000Y-36845000D03*
D50*
X-2450000Y-32090000D03*
D51*
X2450000Y-32090000D03*
%TD*%
D14*
%TO.C,C4*%
X54275000Y-14000000D03*
X52725000Y-14000000D03*
%TD*%
%TO.C,C4*%
X-5225000Y71080000D03*
X-6775000Y71080000D03*
%TD*%
%TO.C,C4*%
X54275000Y71080000D03*
X52725000Y71080000D03*
%TD*%
%TO.C,C4*%
X-5225000Y-14000000D03*
X-6775000Y-14000000D03*
%TD*%
D13*
%TO.C,ST4*%
X36000000Y119080000D03*
%TD*%
%TO.C,ST4*%
X-23500000Y119080000D03*
%TD*%
%TO.C,ST4*%
X36000000Y34000000D03*
%TD*%
%TO.C,ST4*%
X-23500000Y34000000D03*
%TD*%
D14*
%TO.C,C30*%
X77275000Y92080000D03*
X75725000Y92080000D03*
%TD*%
%TO.C,C30*%
X17775000Y92080000D03*
X16225000Y92080000D03*
%TD*%
%TO.C,C30*%
X77275000Y7000000D03*
X75725000Y7000000D03*
%TD*%
%TO.C,C30*%
X17775000Y7000000D03*
X16225000Y7000000D03*
%TD*%
D23*
%TO.C,C24*%
X43725000Y76580000D03*
X45275000Y76580000D03*
%TD*%
%TO.C,C24*%
X-15775000Y76580000D03*
X-14225000Y76580000D03*
%TD*%
%TO.C,C24*%
X43725000Y-8500000D03*
X45275000Y-8500000D03*
%TD*%
%TO.C,C24*%
X-15775000Y-8500000D03*
X-14225000Y-8500000D03*
%TD*%
D46*
%TO.C,J8*%
X27940000Y123180000D03*
X27940000Y120640000D03*
X27940000Y118100000D03*
X27940000Y115560000D03*
X27940000Y113020000D03*
X27940000Y110480000D03*
X27940000Y107940000D03*
X27940000Y105400000D03*
X27940000Y102860000D03*
X27940000Y100320000D03*
X27940000Y97780000D03*
X27940000Y95240000D03*
%TD*%
%TO.C,J8*%
X87440000Y38100000D03*
X87440000Y35560000D03*
X87440000Y33020000D03*
X87440000Y30480000D03*
X87440000Y27940000D03*
X87440000Y25400000D03*
X87440000Y22860000D03*
X87440000Y20320000D03*
X87440000Y17780000D03*
X87440000Y15240000D03*
X87440000Y12700000D03*
X87440000Y10160000D03*
%TD*%
%TO.C,J8*%
X87440000Y123180000D03*
X87440000Y120640000D03*
X87440000Y118100000D03*
X87440000Y115560000D03*
X87440000Y113020000D03*
X87440000Y110480000D03*
X87440000Y107940000D03*
X87440000Y105400000D03*
X87440000Y102860000D03*
X87440000Y100320000D03*
X87440000Y97780000D03*
X87440000Y95240000D03*
%TD*%
%TO.C,J8*%
X27940000Y38100000D03*
X27940000Y35560000D03*
X27940000Y33020000D03*
X27940000Y30480000D03*
X27940000Y27940000D03*
X27940000Y25400000D03*
X27940000Y22860000D03*
X27940000Y20320000D03*
X27940000Y17780000D03*
X27940000Y15240000D03*
X27940000Y12700000D03*
X27940000Y10160000D03*
%TD*%
D23*
%TO.C,C16*%
X66225000Y-26500000D03*
X67775000Y-26500000D03*
%TD*%
%TO.C,C16*%
X66225000Y58580000D03*
X67775000Y58580000D03*
%TD*%
%TO.C,C16*%
X6725000Y58580000D03*
X8275000Y58580000D03*
%TD*%
%TO.C,C16*%
X6725000Y-26500000D03*
X8275000Y-26500000D03*
%TD*%
D31*
%TO.C,R17*%
X81000000Y-8325000D03*
X81000000Y-6675000D03*
%TD*%
%TO.C,R17*%
X21500000Y76755000D03*
X21500000Y78405000D03*
%TD*%
%TO.C,R17*%
X81000000Y76755000D03*
X81000000Y78405000D03*
%TD*%
%TO.C,R17*%
X21500000Y-8325000D03*
X21500000Y-6675000D03*
%TD*%
D54*
%TO.C,D4*%
X14450000Y48915000D03*
X15550000Y48915000D03*
X15550000Y50745000D03*
X14450000Y50745000D03*
%TD*%
%TO.C,D4*%
X73950000Y48915000D03*
X75050000Y48915000D03*
X75050000Y50745000D03*
X73950000Y50745000D03*
%TD*%
%TO.C,D4*%
X73950000Y-36165000D03*
X75050000Y-36165000D03*
X75050000Y-34335000D03*
X73950000Y-34335000D03*
%TD*%
%TO.C,D4*%
X14450000Y-36165000D03*
X15550000Y-36165000D03*
X15550000Y-34335000D03*
X14450000Y-34335000D03*
%TD*%
D23*
%TO.C,C11*%
X64725000Y74080000D03*
X66275000Y74080000D03*
%TD*%
%TO.C,C11*%
X5225000Y74080000D03*
X6775000Y74080000D03*
%TD*%
%TO.C,C11*%
X64725000Y-11000000D03*
X66275000Y-11000000D03*
%TD*%
%TO.C,C11*%
X5225000Y-11000000D03*
X6775000Y-11000000D03*
%TD*%
D22*
%TO.C,C28*%
X-12000000Y68805000D03*
X-12000000Y70355000D03*
%TD*%
%TO.C,C28*%
X47500000Y68805000D03*
X47500000Y70355000D03*
%TD*%
%TO.C,C28*%
X47500000Y-16275000D03*
X47500000Y-14725000D03*
%TD*%
%TO.C,C28*%
X-12000000Y-16275000D03*
X-12000000Y-14725000D03*
%TD*%
D21*
%TO.C,R12*%
X77000000Y29075000D03*
X77000000Y27425000D03*
%TD*%
%TO.C,R12*%
X77000000Y114155000D03*
X77000000Y112505000D03*
%TD*%
%TO.C,R12*%
X17500000Y114155000D03*
X17500000Y112505000D03*
%TD*%
%TO.C,R12*%
X17500000Y29075000D03*
X17500000Y27425000D03*
%TD*%
D55*
%TO.C,J2*%
X62040000Y0D03*
X59500000Y0D03*
X56960000Y0D03*
%TD*%
%TO.C,J2*%
X62040000Y85080000D03*
X59500000Y85080000D03*
X56960000Y85080000D03*
%TD*%
%TO.C,J2*%
X2540000Y85080000D03*
X0Y85080000D03*
X-2540000Y85080000D03*
%TD*%
%TO.C,J2*%
X2540000Y0D03*
X0Y0D03*
X-2540000Y0D03*
%TD*%
D39*
%TO.C,D6*%
X43037500Y-13000000D03*
X41462500Y-13000000D03*
%TD*%
%TO.C,D6*%
X43037500Y72080000D03*
X41462500Y72080000D03*
%TD*%
%TO.C,D6*%
X-16462500Y72080000D03*
X-18037500Y72080000D03*
%TD*%
%TO.C,D6*%
X-16462500Y-13000000D03*
X-18037500Y-13000000D03*
%TD*%
D31*
%TO.C,R22*%
X45500000Y-28575000D03*
X45500000Y-26925000D03*
%TD*%
%TO.C,R22*%
X-14000000Y56505000D03*
X-14000000Y58155000D03*
%TD*%
%TO.C,R22*%
X45500000Y56505000D03*
X45500000Y58155000D03*
%TD*%
%TO.C,R22*%
X-14000000Y-28575000D03*
X-14000000Y-26925000D03*
%TD*%
%TO.C,R10*%
X5000000Y97505000D03*
X5000000Y99155000D03*
%TD*%
%TO.C,R10*%
X64500000Y12425000D03*
X64500000Y14075000D03*
%TD*%
%TO.C,R10*%
X64500000Y97505000D03*
X64500000Y99155000D03*
%TD*%
%TO.C,R10*%
X5000000Y12425000D03*
X5000000Y14075000D03*
%TD*%
D32*
%TO.C,SW3*%
X42050000Y-28550000D03*
X37950000Y-28550000D03*
X42050000Y-26950000D03*
X37950000Y-26950000D03*
%TD*%
%TO.C,SW3*%
X-17450000Y56530000D03*
X-21550000Y56530000D03*
X-17450000Y58130000D03*
X-21550000Y58130000D03*
%TD*%
%TO.C,SW3*%
X42050000Y56530000D03*
X37950000Y56530000D03*
X42050000Y58130000D03*
X37950000Y58130000D03*
%TD*%
%TO.C,SW3*%
X-17450000Y-28550000D03*
X-21550000Y-28550000D03*
X-17450000Y-26950000D03*
X-21550000Y-26950000D03*
%TD*%
D33*
%TO.C,R13*%
X68325000Y102330000D03*
X66675000Y102330000D03*
%TD*%
%TO.C,R13*%
X8825000Y102330000D03*
X7175000Y102330000D03*
%TD*%
%TO.C,R13*%
X68325000Y17250000D03*
X66675000Y17250000D03*
%TD*%
%TO.C,R13*%
X8825000Y17250000D03*
X7175000Y17250000D03*
%TD*%
D26*
%TO.C,R21*%
X45925000Y-13000000D03*
X47575000Y-13000000D03*
%TD*%
%TO.C,R21*%
X-13575000Y72080000D03*
X-11925000Y72080000D03*
%TD*%
%TO.C,R21*%
X45925000Y72080000D03*
X47575000Y72080000D03*
%TD*%
%TO.C,R21*%
X-13575000Y-13000000D03*
X-11925000Y-13000000D03*
%TD*%
D56*
%TO.C,J9*%
X37200000Y-5500000D03*
X37200000Y-3500000D03*
D57*
X32000000Y-7900000D03*
X32000000Y-1100000D03*
%TD*%
D56*
%TO.C,J9*%
X-22300000Y79580000D03*
X-22300000Y81580000D03*
D57*
X-27500000Y77180000D03*
X-27500000Y83980000D03*
%TD*%
D56*
%TO.C,J9*%
X37200000Y79580000D03*
X37200000Y81580000D03*
D57*
X32000000Y77180000D03*
X32000000Y83980000D03*
%TD*%
D56*
%TO.C,J9*%
X-22300000Y-5500000D03*
X-22300000Y-3500000D03*
D57*
X-27500000Y-7900000D03*
X-27500000Y-1100000D03*
%TD*%
D31*
%TO.C,R3*%
X2500000Y56005000D03*
X2500000Y57655000D03*
%TD*%
%TO.C,R3*%
X62000000Y-29075000D03*
X62000000Y-27425000D03*
%TD*%
%TO.C,R3*%
X62000000Y56005000D03*
X62000000Y57655000D03*
%TD*%
%TO.C,R3*%
X2500000Y-29075000D03*
X2500000Y-27425000D03*
%TD*%
D20*
%TO.C,*%
X-33175000Y-42830000D03*
%TD*%
D23*
%TO.C,C18*%
X66225000Y-25000000D03*
X67775000Y-25000000D03*
%TD*%
%TO.C,C18*%
X6725000Y60080000D03*
X8275000Y60080000D03*
%TD*%
%TO.C,C18*%
X66225000Y60080000D03*
X67775000Y60080000D03*
%TD*%
%TO.C,C18*%
X6725000Y-25000000D03*
X8275000Y-25000000D03*
%TD*%
%TO.C,C27*%
X14225000Y54330000D03*
X15775000Y54330000D03*
%TD*%
%TO.C,C27*%
X73725000Y-30750000D03*
X75275000Y-30750000D03*
%TD*%
%TO.C,C27*%
X73725000Y54330000D03*
X75275000Y54330000D03*
%TD*%
%TO.C,C27*%
X14225000Y-30750000D03*
X15775000Y-30750000D03*
%TD*%
D22*
%TO.C,C15*%
X55500000Y-19775000D03*
X55500000Y-18225000D03*
%TD*%
%TO.C,C15*%
X55500000Y65305000D03*
X55500000Y66855000D03*
%TD*%
%TO.C,C15*%
X-4000000Y65305000D03*
X-4000000Y66855000D03*
%TD*%
%TO.C,C15*%
X-4000000Y-19775000D03*
X-4000000Y-18225000D03*
%TD*%
D58*
%TO.C,U4*%
X52950000Y35100000D03*
X52950000Y33850000D03*
X52950000Y32600000D03*
X52950000Y31350000D03*
X52950000Y30100000D03*
X52950000Y28850000D03*
X52950000Y27600000D03*
X52950000Y26350000D03*
X52950000Y25100000D03*
X52950000Y23850000D03*
X52950000Y22600000D03*
X52950000Y21350000D03*
D59*
X55120000Y19820000D03*
X56370000Y19820000D03*
X57620000Y19820000D03*
X58870000Y19820000D03*
X60120000Y19820000D03*
X61370000Y19820000D03*
X62620000Y19820000D03*
X63870000Y19820000D03*
D60*
X66050000Y21350000D03*
X66050000Y22600000D03*
X66050000Y23850000D03*
X66050000Y25100000D03*
X66050000Y26350000D03*
X66050000Y27600000D03*
X66050000Y28850000D03*
X66050000Y30100000D03*
X66050000Y31350000D03*
X66050000Y32600000D03*
X66050000Y33850000D03*
X66050000Y35100000D03*
X66050000Y36350000D03*
X66050000Y37600000D03*
%TD*%
D58*
%TO.C,U4*%
X-6550000Y120180000D03*
X-6550000Y118930000D03*
X-6550000Y117680000D03*
X-6550000Y116430000D03*
X-6550000Y115180000D03*
X-6550000Y113930000D03*
X-6550000Y112680000D03*
X-6550000Y111430000D03*
X-6550000Y110180000D03*
X-6550000Y108930000D03*
X-6550000Y107680000D03*
X-6550000Y106430000D03*
D59*
X-4380000Y104900000D03*
X-3130000Y104900000D03*
X-1880000Y104900000D03*
X-630000Y104900000D03*
X620000Y104900000D03*
X1870000Y104900000D03*
X3120000Y104900000D03*
X4370000Y104900000D03*
D60*
X6550000Y106430000D03*
X6550000Y107680000D03*
X6550000Y108930000D03*
X6550000Y110180000D03*
X6550000Y111430000D03*
X6550000Y112680000D03*
X6550000Y113930000D03*
X6550000Y115180000D03*
X6550000Y116430000D03*
X6550000Y117680000D03*
X6550000Y118930000D03*
X6550000Y120180000D03*
X6550000Y121430000D03*
X6550000Y122680000D03*
%TD*%
D58*
%TO.C,U4*%
X52950000Y120180000D03*
X52950000Y118930000D03*
X52950000Y117680000D03*
X52950000Y116430000D03*
X52950000Y115180000D03*
X52950000Y113930000D03*
X52950000Y112680000D03*
X52950000Y111430000D03*
X52950000Y110180000D03*
X52950000Y108930000D03*
X52950000Y107680000D03*
X52950000Y106430000D03*
D59*
X55120000Y104900000D03*
X56370000Y104900000D03*
X57620000Y104900000D03*
X58870000Y104900000D03*
X60120000Y104900000D03*
X61370000Y104900000D03*
X62620000Y104900000D03*
X63870000Y104900000D03*
D60*
X66050000Y106430000D03*
X66050000Y107680000D03*
X66050000Y108930000D03*
X66050000Y110180000D03*
X66050000Y111430000D03*
X66050000Y112680000D03*
X66050000Y113930000D03*
X66050000Y115180000D03*
X66050000Y116430000D03*
X66050000Y117680000D03*
X66050000Y118930000D03*
X66050000Y120180000D03*
X66050000Y121430000D03*
X66050000Y122680000D03*
%TD*%
D58*
%TO.C,U4*%
X-6550000Y35100000D03*
X-6550000Y33850000D03*
X-6550000Y32600000D03*
X-6550000Y31350000D03*
X-6550000Y30100000D03*
X-6550000Y28850000D03*
X-6550000Y27600000D03*
X-6550000Y26350000D03*
X-6550000Y25100000D03*
X-6550000Y23850000D03*
X-6550000Y22600000D03*
X-6550000Y21350000D03*
D59*
X-4380000Y19820000D03*
X-3130000Y19820000D03*
X-1880000Y19820000D03*
X-630000Y19820000D03*
X620000Y19820000D03*
X1870000Y19820000D03*
X3120000Y19820000D03*
X4370000Y19820000D03*
D60*
X6550000Y21350000D03*
X6550000Y22600000D03*
X6550000Y23850000D03*
X6550000Y25100000D03*
X6550000Y26350000D03*
X6550000Y27600000D03*
X6550000Y28850000D03*
X6550000Y30100000D03*
X6550000Y31350000D03*
X6550000Y32600000D03*
X6550000Y33850000D03*
X6550000Y35100000D03*
X6550000Y36350000D03*
X6550000Y37600000D03*
%TD*%
D31*
%TO.C,R27*%
X37000000Y1675000D03*
X37000000Y3325000D03*
%TD*%
%TO.C,R27*%
X-22500000Y86755000D03*
X-22500000Y88405000D03*
%TD*%
%TO.C,R27*%
X37000000Y86755000D03*
X37000000Y88405000D03*
%TD*%
%TO.C,R27*%
X-22500000Y1675000D03*
X-22500000Y3325000D03*
%TD*%
D61*
%TO.C,U2*%
X69775000Y-19405000D03*
X69775000Y-18135000D03*
X69775000Y-16865000D03*
X69775000Y-15595000D03*
X64225000Y-15595000D03*
X64225000Y-16865000D03*
X64225000Y-18135000D03*
X64225000Y-19405000D03*
%TD*%
%TO.C,U2*%
X10275000Y65675000D03*
X10275000Y66945000D03*
X10275000Y68215000D03*
X10275000Y69485000D03*
X4725000Y69485000D03*
X4725000Y68215000D03*
X4725000Y66945000D03*
X4725000Y65675000D03*
%TD*%
%TO.C,U2*%
X69775000Y65675000D03*
X69775000Y66945000D03*
X69775000Y68215000D03*
X69775000Y69485000D03*
X64225000Y69485000D03*
X64225000Y68215000D03*
X64225000Y66945000D03*
X64225000Y65675000D03*
%TD*%
%TO.C,U2*%
X10275000Y-19405000D03*
X10275000Y-18135000D03*
X10275000Y-16865000D03*
X10275000Y-15595000D03*
X4725000Y-15595000D03*
X4725000Y-16865000D03*
X4725000Y-18135000D03*
X4725000Y-19405000D03*
%TD*%
D62*
%TO.C,SW1*%
X47000000Y29750000D03*
X47000000Y26750000D03*
D63*
X44175000Y25750000D03*
X44175000Y28250000D03*
X44175000Y30750000D03*
X49825000Y25750000D03*
X49825000Y28250000D03*
X49825000Y30750000D03*
%TD*%
D62*
%TO.C,SW1*%
X47000000Y114830000D03*
X47000000Y111830000D03*
D63*
X44175000Y110830000D03*
X44175000Y113330000D03*
X44175000Y115830000D03*
X49825000Y110830000D03*
X49825000Y113330000D03*
X49825000Y115830000D03*
%TD*%
D62*
%TO.C,SW1*%
X-12500000Y114830000D03*
X-12500000Y111830000D03*
D63*
X-15325000Y110830000D03*
X-15325000Y113330000D03*
X-15325000Y115830000D03*
X-9675000Y110830000D03*
X-9675000Y113330000D03*
X-9675000Y115830000D03*
%TD*%
D62*
%TO.C,SW1*%
X-12500000Y29750000D03*
X-12500000Y26750000D03*
D63*
X-15325000Y25750000D03*
X-15325000Y28250000D03*
X-15325000Y30750000D03*
X-9675000Y25750000D03*
X-9675000Y28250000D03*
X-9675000Y30750000D03*
%TD*%
D23*
%TO.C,C26*%
X43725000Y84080000D03*
X45275000Y84080000D03*
%TD*%
%TO.C,C26*%
X-15775000Y84080000D03*
X-14225000Y84080000D03*
%TD*%
%TO.C,C26*%
X43725000Y-1000000D03*
X45275000Y-1000000D03*
%TD*%
%TO.C,C26*%
X-15775000Y-1000000D03*
X-14225000Y-1000000D03*
%TD*%
D64*
%TO.C,Q1*%
X82500000Y-6550000D03*
X82500000Y-8450000D03*
X84600000Y-7500000D03*
%TD*%
%TO.C,Q1*%
X82500000Y78530000D03*
X82500000Y76630000D03*
X84600000Y77580000D03*
%TD*%
%TO.C,Q1*%
X23000000Y78530000D03*
X23000000Y76630000D03*
X25100000Y77580000D03*
%TD*%
%TO.C,Q1*%
X23000000Y-6550000D03*
X23000000Y-8450000D03*
X25100000Y-7500000D03*
%TD*%
D21*
%TO.C,R26*%
X37000000Y6325000D03*
X37000000Y4675000D03*
%TD*%
%TO.C,R26*%
X37000000Y91405000D03*
X37000000Y89755000D03*
%TD*%
%TO.C,R26*%
X-22500000Y91405000D03*
X-22500000Y89755000D03*
%TD*%
%TO.C,R26*%
X-22500000Y6325000D03*
X-22500000Y4675000D03*
%TD*%
D22*
%TO.C,C9*%
X59000000Y-4775000D03*
X59000000Y-3225000D03*
%TD*%
%TO.C,C9*%
X59000000Y80305000D03*
X59000000Y81855000D03*
%TD*%
%TO.C,C9*%
X-500000Y80305000D03*
X-500000Y81855000D03*
%TD*%
%TO.C,C9*%
X-500000Y-4775000D03*
X-500000Y-3225000D03*
%TD*%
D26*
%TO.C,R2*%
X1675000Y82580000D03*
X3325000Y82580000D03*
%TD*%
%TO.C,R2*%
X61175000Y-2500000D03*
X62825000Y-2500000D03*
%TD*%
%TO.C,R2*%
X61175000Y82580000D03*
X62825000Y82580000D03*
%TD*%
%TO.C,R2*%
X1675000Y-2500000D03*
X3325000Y-2500000D03*
%TD*%
D20*
%TO.C,*%
X92675000Y127910000D03*
%TD*%
D47*
%TO.C,J3*%
X77390000Y33195000D03*
X71610000Y33195000D03*
D49*
X75750000Y32090000D03*
X74750000Y32090000D03*
D48*
X74250000Y32090000D03*
X73250000Y32090000D03*
X72750000Y32090000D03*
X73750000Y32090000D03*
D49*
X75250000Y32090000D03*
X76250000Y32090000D03*
D51*
X77725000Y32090000D03*
D50*
X71275000Y32090000D03*
D52*
X78818000Y36845000D03*
D53*
X78818000Y32665000D03*
X70182000Y32665000D03*
D52*
X70182000Y36845000D03*
D51*
X76950000Y32090000D03*
D50*
X72050000Y32090000D03*
%TD*%
D47*
%TO.C,J3*%
X17890000Y118275000D03*
X12110000Y118275000D03*
D49*
X16250000Y117170000D03*
X15250000Y117170000D03*
D48*
X14750000Y117170000D03*
X13750000Y117170000D03*
X13250000Y117170000D03*
X14250000Y117170000D03*
D49*
X15750000Y117170000D03*
X16750000Y117170000D03*
D51*
X18225000Y117170000D03*
D50*
X11775000Y117170000D03*
D52*
X19318000Y121925000D03*
D53*
X19318000Y117745000D03*
X10682000Y117745000D03*
D52*
X10682000Y121925000D03*
D51*
X17450000Y117170000D03*
D50*
X12550000Y117170000D03*
%TD*%
D47*
%TO.C,J3*%
X77390000Y118275000D03*
X71610000Y118275000D03*
D49*
X75750000Y117170000D03*
X74750000Y117170000D03*
D48*
X74250000Y117170000D03*
X73250000Y117170000D03*
X72750000Y117170000D03*
X73750000Y117170000D03*
D49*
X75250000Y117170000D03*
X76250000Y117170000D03*
D51*
X77725000Y117170000D03*
D50*
X71275000Y117170000D03*
D52*
X78818000Y121925000D03*
D53*
X78818000Y117745000D03*
X70182000Y117745000D03*
D52*
X70182000Y121925000D03*
D51*
X76950000Y117170000D03*
D50*
X72050000Y117170000D03*
%TD*%
D47*
%TO.C,J3*%
X17890000Y33195000D03*
X12110000Y33195000D03*
D49*
X16250000Y32090000D03*
X15250000Y32090000D03*
D48*
X14750000Y32090000D03*
X13750000Y32090000D03*
X13250000Y32090000D03*
X14250000Y32090000D03*
D49*
X15750000Y32090000D03*
X16750000Y32090000D03*
D51*
X18225000Y32090000D03*
D50*
X11775000Y32090000D03*
D52*
X19318000Y36845000D03*
D53*
X19318000Y32665000D03*
X10682000Y32665000D03*
D52*
X10682000Y36845000D03*
D51*
X17450000Y32090000D03*
D50*
X12550000Y32090000D03*
%TD*%
D14*
%TO.C,C14*%
X58275000Y-16000000D03*
X56725000Y-16000000D03*
%TD*%
%TO.C,C14*%
X-1225000Y69080000D03*
X-2775000Y69080000D03*
%TD*%
%TO.C,C14*%
X58275000Y69080000D03*
X56725000Y69080000D03*
%TD*%
%TO.C,C14*%
X-1225000Y-16000000D03*
X-2775000Y-16000000D03*
%TD*%
%TO.C,C6*%
X54275000Y75580000D03*
X52725000Y75580000D03*
%TD*%
%TO.C,C6*%
X-5225000Y75580000D03*
X-6775000Y75580000D03*
%TD*%
%TO.C,C6*%
X54275000Y-9500000D03*
X52725000Y-9500000D03*
%TD*%
%TO.C,C6*%
X-5225000Y-9500000D03*
X-6775000Y-9500000D03*
%TD*%
D23*
%TO.C,C19*%
X19225000Y102330000D03*
X20775000Y102330000D03*
%TD*%
%TO.C,C19*%
X78725000Y17250000D03*
X80275000Y17250000D03*
%TD*%
%TO.C,C19*%
X78725000Y102330000D03*
X80275000Y102330000D03*
%TD*%
%TO.C,C19*%
X19225000Y17250000D03*
X20775000Y17250000D03*
%TD*%
D33*
%TO.C,R19*%
X45325000Y67080000D03*
X43675000Y67080000D03*
%TD*%
%TO.C,R19*%
X-14175000Y67080000D03*
X-15825000Y67080000D03*
%TD*%
%TO.C,R19*%
X45325000Y-18000000D03*
X43675000Y-18000000D03*
%TD*%
%TO.C,R19*%
X-14175000Y-18000000D03*
X-15825000Y-18000000D03*
%TD*%
%TO.C,R20*%
X45325000Y-30750000D03*
X43675000Y-30750000D03*
%TD*%
%TO.C,R20*%
X45325000Y54330000D03*
X43675000Y54330000D03*
%TD*%
%TO.C,R20*%
X-14175000Y54330000D03*
X-15825000Y54330000D03*
%TD*%
%TO.C,R20*%
X-14175000Y-30750000D03*
X-15825000Y-30750000D03*
%TD*%
D23*
%TO.C,C25*%
X-15775000Y82580000D03*
X-14225000Y82580000D03*
%TD*%
%TO.C,C25*%
X43725000Y82580000D03*
X45275000Y82580000D03*
%TD*%
%TO.C,C25*%
X43725000Y-2500000D03*
X45275000Y-2500000D03*
%TD*%
%TO.C,C25*%
X-15775000Y-2500000D03*
X-14225000Y-2500000D03*
%TD*%
D21*
%TO.C,R5*%
X2250000Y63405000D03*
X2250000Y61755000D03*
%TD*%
%TO.C,R5*%
X61750000Y-21675000D03*
X61750000Y-23325000D03*
%TD*%
%TO.C,R5*%
X61750000Y63405000D03*
X61750000Y61755000D03*
%TD*%
%TO.C,R5*%
X2250000Y-21675000D03*
X2250000Y-23325000D03*
%TD*%
D65*
%TO.C,J4*%
X56960000Y96450000D03*
X56960000Y100210000D03*
X58230000Y96450000D03*
X58230000Y100210000D03*
X59500000Y96450000D03*
X59500000Y100210000D03*
X60770000Y96450000D03*
X60770000Y100210000D03*
X62040000Y96450000D03*
X62040000Y100210000D03*
%TD*%
%TO.C,J4*%
X-2540000Y96450000D03*
X-2540000Y100210000D03*
X-1270000Y96450000D03*
X-1270000Y100210000D03*
X0Y96450000D03*
X0Y100210000D03*
X1270000Y96450000D03*
X1270000Y100210000D03*
X2540000Y96450000D03*
X2540000Y100210000D03*
%TD*%
%TO.C,J4*%
X56960000Y11370000D03*
X56960000Y15130000D03*
X58230000Y11370000D03*
X58230000Y15130000D03*
X59500000Y11370000D03*
X59500000Y15130000D03*
X60770000Y11370000D03*
X60770000Y15130000D03*
X62040000Y11370000D03*
X62040000Y15130000D03*
%TD*%
%TO.C,J4*%
X-2540000Y11370000D03*
X-2540000Y15130000D03*
X-1270000Y11370000D03*
X-1270000Y15130000D03*
X0Y11370000D03*
X0Y15130000D03*
X1270000Y11370000D03*
X1270000Y15130000D03*
X2540000Y11370000D03*
X2540000Y15130000D03*
%TD*%
D22*
%TO.C,C22*%
X49500000Y119055000D03*
X49500000Y120605000D03*
%TD*%
%TO.C,C22*%
X-10000000Y119055000D03*
X-10000000Y120605000D03*
%TD*%
%TO.C,C22*%
X49500000Y33975000D03*
X49500000Y35525000D03*
%TD*%
%TO.C,C22*%
X-10000000Y33975000D03*
X-10000000Y35525000D03*
%TD*%
D66*
%TO.C,L1*%
X57500000Y65005000D03*
X57500000Y67155000D03*
%TD*%
%TO.C,L1*%
X57500000Y-20075000D03*
X57500000Y-17925000D03*
%TD*%
%TO.C,L1*%
X-2000000Y65005000D03*
X-2000000Y67155000D03*
%TD*%
%TO.C,L1*%
X-2000000Y-20075000D03*
X-2000000Y-17925000D03*
%TD*%
D31*
%TO.C,R4*%
X-2500000Y56005000D03*
X-2500000Y57655000D03*
%TD*%
%TO.C,R4*%
X57000000Y-29075000D03*
X57000000Y-27425000D03*
%TD*%
%TO.C,R4*%
X57000000Y56005000D03*
X57000000Y57655000D03*
%TD*%
%TO.C,R4*%
X-2500000Y-29075000D03*
X-2500000Y-27425000D03*
%TD*%
D13*
%TO.C,ST1*%
X36000000Y-34000000D03*
%TD*%
%TO.C,ST1*%
X-23500000Y51080000D03*
%TD*%
%TO.C,ST1*%
X36000000Y51080000D03*
%TD*%
%TO.C,ST1*%
X-23500000Y-34000000D03*
%TD*%
D31*
%TO.C,R15*%
X47000000Y-11325000D03*
X47000000Y-9675000D03*
%TD*%
%TO.C,R15*%
X-12500000Y73755000D03*
X-12500000Y75405000D03*
%TD*%
%TO.C,R15*%
X47000000Y73755000D03*
X47000000Y75405000D03*
%TD*%
%TO.C,R15*%
X-12500000Y-11325000D03*
X-12500000Y-9675000D03*
%TD*%
D23*
%TO.C,C12*%
X1725000Y80580000D03*
X3275000Y80580000D03*
%TD*%
%TO.C,C12*%
X61225000Y-4500000D03*
X62775000Y-4500000D03*
%TD*%
%TO.C,C12*%
X61225000Y80580000D03*
X62775000Y80580000D03*
%TD*%
%TO.C,C12*%
X1725000Y-4500000D03*
X3275000Y-4500000D03*
%TD*%
%TO.C,C7*%
X5225000Y75580000D03*
X6775000Y75580000D03*
%TD*%
%TO.C,C7*%
X64725000Y-9500000D03*
X66275000Y-9500000D03*
%TD*%
%TO.C,C7*%
X64725000Y75580000D03*
X66275000Y75580000D03*
%TD*%
%TO.C,C7*%
X5225000Y-9500000D03*
X6775000Y-9500000D03*
%TD*%
%TO.C,C10*%
X64725000Y-12500000D03*
X66275000Y-12500000D03*
%TD*%
%TO.C,C10*%
X64725000Y72580000D03*
X66275000Y72580000D03*
%TD*%
%TO.C,C10*%
X5225000Y72580000D03*
X6775000Y72580000D03*
%TD*%
%TO.C,C10*%
X5225000Y-12500000D03*
X6775000Y-12500000D03*
%TD*%
D46*
%TO.C,J6*%
X31560000Y123180000D03*
X31560000Y120640000D03*
X31560000Y118100000D03*
X31560000Y115560000D03*
X31560000Y113020000D03*
X31560000Y110480000D03*
X31560000Y107940000D03*
X31560000Y105400000D03*
X31560000Y102860000D03*
X31560000Y100320000D03*
X31560000Y97780000D03*
X31560000Y95240000D03*
%TD*%
%TO.C,J6*%
X-27940000Y123180000D03*
X-27940000Y120640000D03*
X-27940000Y118100000D03*
X-27940000Y115560000D03*
X-27940000Y113020000D03*
X-27940000Y110480000D03*
X-27940000Y107940000D03*
X-27940000Y105400000D03*
X-27940000Y102860000D03*
X-27940000Y100320000D03*
X-27940000Y97780000D03*
X-27940000Y95240000D03*
%TD*%
%TO.C,J6*%
X31560000Y38100000D03*
X31560000Y35560000D03*
X31560000Y33020000D03*
X31560000Y30480000D03*
X31560000Y27940000D03*
X31560000Y25400000D03*
X31560000Y22860000D03*
X31560000Y20320000D03*
X31560000Y17780000D03*
X31560000Y15240000D03*
X31560000Y12700000D03*
X31560000Y10160000D03*
%TD*%
%TO.C,J6*%
X-27940000Y38100000D03*
X-27940000Y35560000D03*
X-27940000Y33020000D03*
X-27940000Y30480000D03*
X-27940000Y27940000D03*
X-27940000Y25400000D03*
X-27940000Y22860000D03*
X-27940000Y20320000D03*
X-27940000Y17780000D03*
X-27940000Y15240000D03*
X-27940000Y12700000D03*
X-27940000Y10160000D03*
%TD*%
D13*
%TO.C,ST3*%
X23500000Y119080000D03*
%TD*%
%TO.C,ST3*%
X83000000Y119080000D03*
%TD*%
%TO.C,ST3*%
X83000000Y34000000D03*
%TD*%
%TO.C,ST3*%
X23500000Y34000000D03*
%TD*%
D46*
%TO.C,J5*%
X-27940000Y74920000D03*
X-27940000Y72380000D03*
X-27940000Y69840000D03*
X-27940000Y67300000D03*
X-27940000Y64760000D03*
X-27940000Y62220000D03*
X-27940000Y59680000D03*
X-27940000Y57140000D03*
X-27940000Y54600000D03*
X-27940000Y52060000D03*
X-27940000Y49520000D03*
X-27940000Y46980000D03*
%TD*%
%TO.C,J5*%
X31560000Y-10160000D03*
X31560000Y-12700000D03*
X31560000Y-15240000D03*
X31560000Y-17780000D03*
X31560000Y-20320000D03*
X31560000Y-22860000D03*
X31560000Y-25400000D03*
X31560000Y-27940000D03*
X31560000Y-30480000D03*
X31560000Y-33020000D03*
X31560000Y-35560000D03*
X31560000Y-38100000D03*
%TD*%
%TO.C,J5*%
X31560000Y74920000D03*
X31560000Y72380000D03*
X31560000Y69840000D03*
X31560000Y67300000D03*
X31560000Y64760000D03*
X31560000Y62220000D03*
X31560000Y59680000D03*
X31560000Y57140000D03*
X31560000Y54600000D03*
X31560000Y52060000D03*
X31560000Y49520000D03*
X31560000Y46980000D03*
%TD*%
%TO.C,J5*%
X-27940000Y-10160000D03*
X-27940000Y-12700000D03*
X-27940000Y-15240000D03*
X-27940000Y-17780000D03*
X-27940000Y-20320000D03*
X-27940000Y-22860000D03*
X-27940000Y-25400000D03*
X-27940000Y-27940000D03*
X-27940000Y-30480000D03*
X-27940000Y-33020000D03*
X-27940000Y-35560000D03*
X-27940000Y-38100000D03*
%TD*%
D21*
%TO.C,R23*%
X13000000Y83405000D03*
X13000000Y81755000D03*
%TD*%
%TO.C,R23*%
X72500000Y-1675000D03*
X72500000Y-3325000D03*
%TD*%
%TO.C,R23*%
X72500000Y83405000D03*
X72500000Y81755000D03*
%TD*%
%TO.C,R23*%
X13000000Y-1675000D03*
X13000000Y-3325000D03*
%TD*%
D23*
%TO.C,C31*%
X43725000Y-19500000D03*
X45275000Y-19500000D03*
%TD*%
%TO.C,C31*%
X-15775000Y65580000D03*
X-14225000Y65580000D03*
%TD*%
%TO.C,C31*%
X43725000Y65580000D03*
X45275000Y65580000D03*
%TD*%
%TO.C,C31*%
X-15775000Y-19500000D03*
X-14225000Y-19500000D03*
%TD*%
D31*
%TO.C,R25*%
X-16000000Y56505000D03*
X-16000000Y58155000D03*
%TD*%
%TO.C,R25*%
X43500000Y56505000D03*
X43500000Y58155000D03*
%TD*%
%TO.C,R25*%
X43500000Y-28575000D03*
X43500000Y-26925000D03*
%TD*%
%TO.C,R25*%
X-16000000Y-28575000D03*
X-16000000Y-26925000D03*
%TD*%
D46*
%TO.C,JP2*%
X-17780000Y119080000D03*
X-15240000Y119080000D03*
%TD*%
%TO.C,JP2*%
X41720000Y119080000D03*
X44260000Y119080000D03*
%TD*%
%TO.C,JP2*%
X41720000Y34000000D03*
X44260000Y34000000D03*
%TD*%
%TO.C,JP2*%
X-17780000Y34000000D03*
X-15240000Y34000000D03*
%TD*%
M02*
