<?xml version="1.0" encoding="UTF-8"?>
<svg width="326px" height="100px" viewBox="0 0 326 100" version="1.1" xmlns="http://www.w3.org/2000/svg" xmlns:xlink="http://www.w3.org/1999/xlink">
    <title>Digi_logo_2C_RGB</title>
    <g id="Page-1" stroke="none" stroke-width="1" fill="none" fill-rule="evenodd">
        <g id="Digi_logo_2C_RGB">
            <polygon id="Fill-1" fill="#4B4F53" points="89 98 107 98 107 1 89 1"></polygon>
            <path d="M145.465517,68.5135462 C145.465517,77.9884071 149.567807,83.526741 162.464359,83.526741 C167.448276,83.526741 172.579324,83.0899893 177.559766,82.3616857 L177.559766,52.9149429 L195,52.9149429 L195,95.6267214 C184.742538,98.5422405 172.579324,100 162.317228,100 C138.432193,100 127,89.940883 127,70.6996093 L127,29.2980859 C127,9.32850871 138.725296,0 164.078165,0 C171.989642,0 183.275862,0.873503348 192.068966,3.20591862 L190.016083,19.2412736 C181.075848,17.3467624 172.13909,16.6161541 162.610331,16.6161541 C149.714938,16.6161541 145.465517,21.8652408 145.465517,31.7780057 L145.465517,68.5135462" id="Fill-2" fill="#4B4F53"></path>
            <polygon id="Fill-3" fill="#4B4F53" points="216 98 234 98 234 1 216 1"></polygon>
            <polyline id="Fill-4" fill="#84C361" points="258 69 258 1 326 1 258 69"></polyline>
            <path d="M35.9588053,1 L0,1 L0,17.2332546 L34.0722087,17.1653234 C46.3969795,17.1653234 49.7311893,22.1173929 49.7311893,31.4389355 L49.7311893,67.5587617 C49.7311893,76.8803043 46.3969795,81.8335252 34.0722087,81.8335252 L18.2688107,81.8335252 L18.2688107,26.3222192 L0,44.6740062 L0,98 L35.9588053,98 C59.7372573,98 68,85.7654753 68,71.9282348 L68,27.0694624 C68,13.0871485 59.7372573,1 35.9588053,1" id="Fill-5" fill="#4B4F53"></path>
            <path d="M246.853367,92.9245785 C247.569723,92.9245785 247.993972,92.6195652 247.993972,92.060559 C247.993972,91.5536823 247.703025,91.2231588 246.907847,91.2231588 L246.164831,91.2231588 L246.164831,92.9245785 L246.853367,92.9245785 Z M245.076388,90.3613576 L247.092153,90.3613576 C248.207256,90.3613576 249.161238,90.7928128 249.161238,92.0106477 C249.161238,92.6195652 248.763649,93.2029725 248.180596,93.405945 L249.400023,95.5122005 L248.180596,95.5122005 L247.250956,93.7364685 L246.164831,93.7364685 L246.164831,95.5122005 L245.076388,95.5122005 L245.076388,90.3613576 Z M250.938217,93 C250.938217,90.6142413 249.214559,88.9139308 246.98667,88.9139308 C244.758781,88.9139308 243.060624,90.6142413 243.060624,93 C243.060624,95.4112689 244.758781,97.060559 246.98667,97.060559 C249.214559,97.060559 250.938217,95.4112689 250.938217,93 Z M242,93 C242,90.0308341 244.25455,88 246.98667,88 C249.744291,88 252,90.0308341 252,93 C252,95.9691659 249.744291,98 246.98667,98 C244.25455,98 242,95.9691659 242,93 L242,93 Z" id="Fill-6" fill="#4B4F53"></path>
        </g>
    </g>
</svg>